<svg width="22" height="21" viewBox="0 0 22 21" fill="none" xmlns="http://www.w3.org/2000/svg">
<path d="M4 14.8C5.036 12.219 8.896 12.05 10 14.8M13 7.30005H18M13 10.8H18M13 14.3H15.5M13 2.30005H9C5.229 2.30005 3.343 2.30005 2.172 3.47205C1.001 4.64405 1 6.52905 1 10.3V11.3C1 15.071 1 16.957 2.172 18.128C3.344 19.299 5.229 19.3 9 19.3H13C16.771 19.3 18.657 19.3 19.828 18.128C20.999 16.956 21 15.071 21 11.3V10.3C21 6.52905 21 4.64305 19.828 3.47205C18.656 2.30105 16.771 2.30005 13 2.30005ZM8.75 8.55005C8.75 9.01418 8.56563 9.4593 8.23744 9.78749C7.90925 10.1157 7.46413 10.3 7 10.3C6.53587 10.3 6.09075 10.1157 5.76256 9.78749C5.43437 9.4593 5.25 9.01418 5.25 8.55005C5.25 8.08592 5.43437 7.6408 5.76256 7.31261C6.09075 6.98442 6.53587 6.80005 7 6.80005C7.46413 6.80005 7.90925 6.98442 8.23744 7.31261C8.56563 7.6408 8.75 8.08592 8.75 8.55005Z" stroke="white" stroke-width="1.5" stroke-linecap="round" stroke-linejoin="round"/>
</svg>
