<svg width="20" height="21" viewBox="0 0 20 21" fill="none" xmlns="http://www.w3.org/2000/svg">
<path d="M8.89474 16.1948C8.89474 16.4879 9.01118 16.769 9.21846 16.9763C9.42574 17.1836 9.70687 17.3 10 17.3C10.2931 17.3 10.5743 17.1836 10.7815 16.9763C10.9888 16.769 11.1053 16.4879 11.1053 16.1948V11.4053H15.8947C16.1879 11.4053 16.469 11.2889 16.6763 11.0816C16.8836 10.8743 17 10.5932 17 10.3C17 10.0069 16.8836 9.72579 16.6763 9.51851C16.469 9.31123 16.1879 9.19479 15.8947 9.19479H11.1053V4.40531C11.1053 4.11218 10.9888 3.83105 10.7815 3.62377C10.5743 3.4165 10.2931 3.30005 10 3.30005C9.70687 3.30005 9.42574 3.4165 9.21846 3.62377C9.01118 3.83105 8.89474 4.11218 8.89474 4.40531V9.19479H4.10526C3.81213 9.19479 3.531 9.31123 3.32372 9.51851C3.11645 9.72579 3 10.0069 3 10.3C3 10.5932 3.11645 10.8743 3.32372 11.0816C3.531 11.2889 3.81213 11.4053 4.10526 11.4053H8.89474V16.1948Z" fill="white"/>
</svg>
