<svg width="20" height="21" viewBox="0 0 20 21" fill="none" xmlns="http://www.w3.org/2000/svg">
<path d="M8.69389 1.93246C8.90371 2.16587 9.43072 2.23622 9.69585 2.43466C9.68243 1.12813 11.03 1.92758 11.7099 1.98654C12.1552 2.02517 13.0823 1.79745 13.4272 1.93653C13.6451 2.02436 13.8045 2.45336 13.8338 2.66848C13.881 3.01453 13.7338 3.39799 13.8228 3.73713C13.92 4.10717 14.4824 4.38897 14.6662 4.72363C14.8671 5.09002 14.8724 5.57066 15.0216 5.95412C15.1708 6.33759 15.5201 6.35385 15.8166 6.58238C15.9695 6.70031 16.2558 7.14233 16.394 7.1838C16.8714 7.32613 17.8339 6.51773 18.2125 7.1956C18.3882 7.51033 18.1966 8.36712 18.0637 8.70748C17.8144 9.3459 16.9572 10.2775 16.4473 10.7508C16.1988 10.9814 15.7902 11.19 15.6535 11.5023C15.4494 11.9691 15.4905 13.065 15.5096 13.5981C15.5332 14.2536 15.7731 14.8359 15.1464 15.3463C14.8415 15.5947 14.2335 15.6728 14.2498 16.1156C14.2677 16.6097 14.3746 16.8708 14.1888 17.3978C13.9607 18.0456 13.5581 18.2159 13.0754 18.6022C12.1824 19.3175 11.1476 20.3841 9.92438 19.7522C9.41689 19.4899 9.52465 19.213 9.36159 18.7698C9.2762 18.5384 9.0867 18.3208 9.00334 18.0708C8.90127 17.7662 8.90453 17.4551 8.79189 17.1436C8.5479 16.4694 8.07376 16.0412 8.06604 15.2227C8.06278 14.8632 8.26041 14.2805 8.69999 14.5928C8.98911 14.7981 8.83011 14.9864 8.84028 15.2645C8.86305 15.8814 9.32255 16.3527 9.52384 16.9C9.63648 17.2067 9.63485 17.5047 9.72472 17.7971C9.84793 18.1989 10.2155 18.5445 10.205 19.0247C11.0048 19.5367 11.8876 18.5681 12.483 18.0911C12.7778 17.8548 13.1543 17.671 13.3641 17.3457C13.8586 16.5796 13.0669 15.8009 13.97 15.1454C14.4844 14.7721 14.8679 14.9323 14.8195 14.1255C14.7679 13.2582 14.6508 12.4543 14.8321 11.5755C15.0131 10.698 15.7214 10.4381 16.2858 9.85746C16.5282 9.60819 16.8751 9.18244 17.0723 8.89535C17.3216 8.53263 17.4578 8.20813 17.5033 7.76123C17.0239 7.84215 16.6173 8.0776 16.122 7.90233C15.7361 7.7657 15.6125 7.42047 15.327 7.19275C14.9069 6.85808 14.5959 6.89631 14.3405 6.30871C14.1864 5.95412 14.1693 5.4259 14.0148 5.12987C13.9245 4.95745 13.6626 4.81065 13.5195 4.64922C13.2954 4.39588 13.0588 4.0173 13.0287 3.67613C13.0128 3.49436 13.1218 2.71971 13.0311 2.65546L11.8299 2.76241C11.3858 2.73598 10.978 2.57536 10.5498 2.47492C10.6311 2.99379 10.1696 3.31137 9.68487 3.23737C9.43519 3.19914 8.45478 2.72541 8.25268 2.55502C8.14045 2.46028 8.00219 2.30982 7.93957 2.17685C7.7696 1.81575 7.90338 1.51891 7.45892 1.31559C6.56106 0.905694 6.30732 1.6287 5.63962 1.7328C5.12319 1.81331 4.85887 1.62423 4.34122 1.93897C3.92035 2.19515 4.09154 2.30779 3.97484 2.71117C3.77802 3.38904 3.2193 3.29958 2.76346 3.65498C2.6008 3.78186 2.26654 4.19053 2.18359 4.37636C2.04126 4.69395 2.11975 4.9786 2.09128 5.30065C2.00467 6.277 1.3878 6.96828 2.13276 7.98488C2.31493 8.23375 3.39456 9.13161 3.66782 9.17756C3.79469 9.19911 4.23102 9.03483 4.43068 9.02263C4.77551 9.00148 4.97436 9.11087 5.33342 8.98969C5.48103 8.93967 5.64084 8.80873 5.79373 8.75872C6.17801 8.63307 7.10637 8.86688 7.55123 8.95106C8.46617 9.12388 8.05872 10.1547 7.87044 10.7439C8.09694 10.9607 8.60443 11.2282 8.55685 11.6007C8.52351 11.8618 8.21975 11.9695 7.99853 11.8785C7.90745 11.841 7.25194 11.2063 7.19339 11.0981C6.92419 10.6016 7.30074 10.2027 7.37841 9.71391L6.13857 9.46708C5.8588 9.53215 5.61115 9.75336 5.32163 9.79158C5.0321 9.82981 4.68564 9.76596 4.39002 9.79524C3.91384 9.84282 3.87399 10.0779 3.31283 9.85502C2.5642 9.55776 1.50775 8.59606 1.21863 7.84215C0.738392 6.5897 1.18041 6.44819 1.30809 5.37141C1.34428 5.06806 1.31094 4.75698 1.36502 4.4524C1.47522 3.83269 2.09006 3.13205 2.63415 2.83439C2.86918 2.70589 3.21035 2.68515 3.26159 2.40457C3.35959 1.86902 3.3173 1.72507 3.81055 1.36764C4.51933 0.854458 4.79706 1.08299 5.51803 0.960591C5.75714 0.919927 6.07635 0.623893 6.35205 0.534026C7.13199 0.280283 8.22219 0.566557 8.51781 1.3957C8.57962 1.56892 8.57352 1.79827 8.69348 1.93205L8.69389 1.93246Z" fill="white"/>
<path d="M17.7742 17.6694C17.2 18.2216 16.1301 18.0769 16.0406 17.1749C15.9764 16.5288 16.2871 16.1718 16.42 15.6033C16.5148 15.1979 16.477 14.5554 16.8921 14.3268C17.0288 14.2516 17.2614 14.224 17.3695 14.1329C17.6436 13.9019 17.7559 13.3261 18.2597 13.2549C19.0787 13.1394 19.3515 14.08 19.2885 14.7306C19.2071 15.5716 18.8208 15.8615 18.4463 16.4914C18.2223 16.8687 18.1161 17.3408 17.7742 17.6694ZM18.4386 14.0243C18.3479 13.9572 18.0706 14.4749 18.0088 14.5493C17.8038 14.7957 17.6009 14.8937 17.2968 14.9848C17.2175 15.332 17.1992 15.6919 17.0951 16.0343C16.9788 16.4161 16.6896 16.7968 16.8507 17.2189C17.4074 17.3067 17.5464 16.5333 17.755 16.1657C17.8701 15.9632 18.036 15.8168 18.1556 15.6309C18.4532 15.169 18.6334 14.5574 18.439 14.0239L18.4386 14.0243Z" fill="white"/>
<path d="M8.5479 12.8117C9.07654 12.7117 9.19202 13.5412 8.65444 13.5754C8.16851 13.6063 8.08393 12.8995 8.5479 12.8117Z" fill="white"/>
</svg>
