<svg width="20" height="21" viewBox="0 0 20 21" fill="none" xmlns="http://www.w3.org/2000/svg">
<path d="M18.2581 4.18211C18.3399 4.27094 18.3983 4.47549 18.396 4.59939C18.3843 5.16978 17.9407 6.05051 17.8735 6.65422C17.8502 6.86403 17.8315 7.45371 17.8665 7.64248C17.8829 7.72956 17.8928 7.73482 17.9647 7.77806C18.4089 8.0469 19.2867 7.96859 19.4193 8.60268C19.5269 9.11756 19.5228 12.1671 19.4316 12.7123C19.3556 13.1647 18.59 14.0688 18.3253 14.5281C17.8496 15.3539 17.6152 16.3849 16.8344 16.9529C15.8316 17.6823 14.5821 18.2211 13.3326 18.3602C12.9398 18.404 11.4233 18.4251 11.0872 18.3392C10.9575 18.3059 10.0399 17.8383 9.92363 17.7495C9.81376 17.6659 9.70096 17.5403 9.68635 17.3965C9.65596 17.0903 10.3508 15.9267 10.6214 15.6783C10.5086 15.6578 10.4444 15.7636 10.3456 15.7835C9.91311 15.87 9.44499 15.3604 9.05927 15.2815C8.14523 15.0945 7.13301 15.6865 6.25112 15.7806C5.62286 15.8478 5.29792 14.9933 4.83097 14.7175C4.47389 14.5065 3.4716 14.3733 3.21679 14.1395C2.90763 13.8561 3.11685 13.2389 2.99471 12.9888C2.9012 12.7965 1.91879 12.326 1.7084 12.1127C1.18475 11.5827 1.80658 11.1461 2.31853 10.9976C2.32321 10.6891 2.01171 10.4682 2.02574 10.1561C2.03801 9.88666 2.29048 9.5927 2.37347 9.34432C2.34133 9.17951 1.2654 8.67574 1.09358 8.4034C0.851047 8.01943 1.04917 7.22578 0.966178 6.77753C0.672214 6.30415 -0.16994 5.98447 0.0305172 5.34979C0.0831153 5.18323 0.475263 4.40361 0.578122 4.26159C0.628966 4.19088 0.676305 4.12776 0.759293 4.09211C0.957412 4.00737 2.09119 4.01438 2.28581 4.11432C2.6949 4.32412 3.37926 5.9494 3.82459 6.08207C4.32194 6.04759 5.02383 6.17733 5.49429 6.0809C6.16521 5.94356 6.89924 4.9103 7.18385 4.32237C7.41353 3.84665 7.4936 3.11495 7.76711 2.68482C7.87581 2.51358 8.60634 1.78072 8.7805 1.65273C8.90966 1.55747 9.0242 1.49552 9.18784 1.47565C9.54317 1.43298 11.0779 1.42714 11.3823 1.50428C11.7979 1.61006 12.4875 2.35053 12.8849 2.45631C13.1105 2.5165 13.4413 2.44696 13.6885 2.47092C14.6019 2.56034 15.6895 3.20788 16.5247 3.55035C16.8672 3.69119 18.0839 3.99393 18.2587 4.18328L18.2581 4.18211ZM17.2827 4.86647C16.129 4.63679 15.1484 3.88113 14.0093 3.60996C13.5056 3.48957 13.0117 3.60119 12.605 3.49483C12.197 3.38729 11.4794 2.62462 11.1042 2.54105C10.8757 2.48962 9.73194 2.49196 9.47713 2.52585C9.30239 2.54923 8.74368 3.10151 8.64141 3.26807C8.3679 3.71223 8.289 4.43049 8.02133 4.92725C7.52633 5.84421 6.69235 6.98909 5.56734 7.0902C4.87889 7.15215 4.06946 7.06098 3.37049 7.06156C3.24134 7.02182 2.78373 6.54435 2.67386 6.41402C2.48392 6.18843 1.88197 5.16394 1.77034 5.09673C1.49683 4.93309 1.14735 5.09673 1.15378 5.42342C1.15728 5.60752 1.91236 6.10077 2.00178 6.44266C2.11106 6.86227 1.95385 7.41455 2.05788 7.84761C2.32788 8.14158 3.41783 8.61963 3.52186 8.95451C3.68141 9.46588 3.14257 9.83173 3.14374 10.1561C3.14491 10.5628 3.85557 11.1093 3.41199 11.568C3.36523 11.616 3.04263 11.7638 3.08121 11.8211C3.84446 12.1864 4.21615 12.4681 4.08291 13.3914C4.12089 13.4505 5.18922 13.7292 5.40195 13.8549C5.65267 14.0028 6.14475 14.6614 6.32768 14.6865C7.30191 14.4925 8.28666 14.1202 9.3018 14.2798C9.52505 14.3148 9.90551 14.6293 10.0668 14.6257C10.238 14.6222 10.4397 14.15 10.9154 14.302C11.1813 14.3873 11.747 15.5421 11.7342 15.8238C11.7172 16.1996 10.9166 16.6403 10.9125 17.1388C11.0983 17.1732 11.2094 17.2913 11.4081 17.3164C12.3502 17.4339 14.1736 17.2387 15.0619 16.8764C15.2436 16.8021 16.302 16.1073 16.4359 15.9711C16.7304 15.6719 17.1839 14.4621 17.4481 14.0028C17.728 13.5165 18.0874 13.0747 18.3791 12.596L18.3849 9.05327C18.0383 8.75054 16.9612 8.76515 16.8771 8.22339C16.821 7.86397 16.8397 6.85994 16.88 6.47948C16.9332 5.97512 17.1711 5.36966 17.2833 4.86705L17.2827 4.86647Z" fill="white"/>
</svg>
