<svg width="20" height="21" viewBox="0 0 20 21" fill="none" xmlns="http://www.w3.org/2000/svg">
<path fill-rule="evenodd" clip-rule="evenodd" d="M1.60967 4.92685C1.99965 4.52549 2.5283 4.30005 3.07948 4.30005C3.63066 4.30005 4.15931 4.52549 4.54929 4.92685L10.0126 10.5536L15.4758 4.924C15.8683 4.53377 16.3938 4.31799 16.9391 4.32314C17.4845 4.32829 18.006 4.55394 18.3915 4.95151C18.777 5.34908 18.9954 5.88674 18.9999 6.4487C19.0044 7.01066 18.7945 7.55196 18.4154 7.956L11.4824 15.1002C11.0924 15.5016 10.5637 15.727 10.0126 15.727C9.46138 15.727 8.93273 15.5016 8.54274 15.1002L1.60967 7.956C1.41639 7.75696 1.26306 7.52062 1.15845 7.2605C1.05384 7.00038 1 6.72157 1 6.44C1 6.15842 1.05384 5.87961 1.15845 5.61949C1.26306 5.35937 1.41639 5.12303 1.60967 4.924V4.92685Z" fill="white"/>
</svg>
