<svg width="20" height="21" viewBox="0 0 20 21" fill="none" xmlns="http://www.w3.org/2000/svg">
<path d="M15.7083 10.05C15.2774 10.05 14.864 9.87884 14.5593 9.5741C14.2545 9.26935 14.0833 8.85603 14.0833 8.42505C14.0833 7.99407 14.2545 7.58075 14.5593 7.276C14.864 6.97125 15.2774 6.80005 15.7083 6.80005C16.1393 6.80005 16.5526 6.97125 16.8574 7.276C17.1621 7.58075 17.3333 7.99407 17.3333 8.42505C17.3333 8.85603 17.1621 9.26935 16.8574 9.5741C16.5526 9.87884 16.1393 10.05 15.7083 10.05ZM12.4583 5.71672C12.0274 5.71672 11.614 5.54551 11.3093 5.24076C11.0045 4.93602 10.8333 4.52269 10.8333 4.09172C10.8333 3.66074 11.0045 3.24741 11.3093 2.94267C11.614 2.63792 12.0274 2.46672 12.4583 2.46672C12.8893 2.46672 13.3026 2.63792 13.6074 2.94267C13.9121 3.24741 14.0833 3.66074 14.0833 4.09172C14.0833 4.52269 13.9121 4.93602 13.6074 5.24076C13.3026 5.54551 12.8893 5.71672 12.4583 5.71672ZM7.04167 5.71672C6.61069 5.71672 6.19736 5.54551 5.89262 5.24076C5.58787 4.93602 5.41667 4.52269 5.41667 4.09172C5.41667 3.66074 5.58787 3.24741 5.89262 2.94267C6.19736 2.63792 6.61069 2.46672 7.04167 2.46672C7.47264 2.46672 7.88597 2.63792 8.19072 2.94267C8.49546 3.24741 8.66667 3.66074 8.66667 4.09172C8.66667 4.52269 8.49546 4.93602 8.19072 5.24076C7.88597 5.54551 7.47264 5.71672 7.04167 5.71672ZM3.79167 10.05C3.36069 10.05 2.94736 9.87884 2.64262 9.5741C2.33787 9.26935 2.16667 8.85603 2.16667 8.42505C2.16667 7.99407 2.33787 7.58075 2.64262 7.276C2.94736 6.97125 3.36069 6.80005 3.79167 6.80005C4.22264 6.80005 4.63597 6.97125 4.94072 7.276C5.24546 7.58075 5.41667 7.99407 5.41667 8.42505C5.41667 8.85603 5.24546 9.26935 4.94072 9.5741C4.63597 9.87884 4.22264 10.05 3.79167 10.05ZM9.75 0.300049C7.16414 0.300049 4.68419 1.32728 2.85571 3.15576C1.02723 4.98424 0 7.46419 0 10.05C0 12.6359 1.02723 15.1159 2.85571 16.9443C4.68419 18.7728 7.16414 19.8 9.75 19.8C10.181 19.8 10.5943 19.6288 10.899 19.3241C11.2038 19.0194 11.375 18.606 11.375 18.175C11.375 17.7525 11.2125 17.3734 10.9525 17.0917C10.7033 16.7992 10.5408 16.42 10.5408 16.0084C10.5408 15.5774 10.712 15.1641 11.0168 14.8593C11.3215 14.5546 11.7349 14.3834 12.1658 14.3834H14.0833C15.5199 14.3834 16.8977 13.8127 17.9135 12.7969C18.9293 11.7811 19.5 10.4033 19.5 8.96672C19.5 4.17838 15.1342 0.300049 9.75 0.300049Z" fill="white"/>
</svg>
