<svg width="20" height="21" viewBox="0 0 20 21" fill="none" xmlns="http://www.w3.org/2000/svg">
<path d="M10.116 14.6183C9.1569 13.8503 7.60177 13.8503 6.64269 14.6183C5.68459 15.3866 5.68459 16.6317 6.64269 17.4C7.60145 18.1683 9.15658 18.1683 10.116 17.4C11.0744 16.6317 11.0744 15.3866 10.116 14.6183ZM6.43047 13.5104C7.17374 12.587 6.92219 11.4206 5.86919 10.9058C4.81618 10.391 3.36018 10.7225 2.6169 11.6458C1.8746 12.5692 2.1255 13.7356 3.17818 14.2504C4.23183 14.7655 5.68784 14.434 6.43047 13.5104ZM5.42199 9.10593C6.13342 8.31098 5.96149 7.2492 5.03751 6.7344C4.11386 6.21927 2.78882 6.44612 2.07707 7.24108C1.36532 8.03603 1.53757 9.09749 2.46122 9.61229C3.38488 10.1271 4.71056 9.90056 5.42199 9.10593ZM6.07751 6.27517C6.96087 6.78932 8.24495 6.59367 8.945 5.83934C9.64538 5.08469 9.49751 4.05671 8.61448 3.54288C7.73145 3.02873 6.44737 3.22406 5.74731 3.97839C5.04661 4.73304 5.19449 5.76102 6.07751 6.27517ZM13.535 4.96314C14.3215 4.56111 14.4089 3.77136 13.73 3.19838C13.0517 2.62541 11.8625 2.48663 11.0757 2.88833C10.2886 3.29003 10.2015 4.08011 10.8804 4.65309C11.5593 5.22607 12.7485 5.36484 13.535 4.96314Z" fill="white"/>
<path d="M16.4044 10.7898C15.7011 10.5831 15.0944 10.4043 14.9276 9.99059C14.8311 9.75074 14.8688 9.39844 15.0326 8.94376C16.7766 7.31225 19.3857 4.68331 19.3122 3.61503C19.283 3.18798 18.6024 2.57633 18.1562 2.57633L18.1211 2.57763C17.6381 2.61078 16.9001 3.24973 16.1116 4.11489C16.0456 3.91639 15.9606 3.72472 15.8578 3.54256C15.0307 2.11743 13.2123 1.30005 10.8693 1.30005C9.0477 1.30005 7.01937 1.80218 5.00468 2.75216C2.41865 3.97156 0.487164 6.51437 0.0841617 9.23074C-0.21549 11.2477 0.142662 14.2982 3.54803 17.3801C5.05798 18.7474 7.4357 19.5001 10.2421 19.5001C12.495 19.5001 14.7785 18.9987 16.5062 18.1254C18.437 17.1487 19.5001 15.798 19.5001 14.3216C19.5001 11.7001 17.7106 11.1739 16.4044 10.7898ZM18.1562 3.06383C18.3613 3.06383 18.815 3.48958 18.8257 3.64818C18.8878 4.55266 15.6657 7.75848 13.5119 9.67014L13.1447 9.35066L12.9045 9.14104C14.5074 6.74967 17.2485 3.12558 18.1562 3.06383ZM12.1115 10.0946L12.6061 9.52746L13.1687 10.0182L12.675 10.585L12.1115 10.0946ZM16.213 17.5449C14.5731 18.3743 12.3975 18.8501 10.2431 18.8501C7.59755 18.8501 5.37454 18.1569 3.98418 16.8982C0.791365 14.0092 0.450438 11.1859 0.726365 9.32596C1.09882 6.8189 2.88697 4.46946 5.28256 3.34008C7.21079 2.43073 9.14293 1.95005 10.8693 1.95005C12.9438 1.95005 14.5981 2.66733 15.2952 3.86886C15.4454 4.12724 15.5461 4.40349 15.6046 4.69274C14.1493 6.40972 12.6711 8.60998 12.3887 9.03443L11.4862 10.0692C11.0123 10.0644 10.5378 10.2714 10.3916 10.7716C9.85273 12.6095 8.6525 13.7492 8.6525 13.7492C8.6525 13.7492 11.6948 13.148 12.2769 12.4648C12.5922 12.095 12.7449 11.653 12.7413 11.25L13.6864 10.1664C13.8125 10.0556 14.0001 9.88886 14.2312 9.68021C14.2299 9.88301 14.2578 10.0683 14.3241 10.2334C14.6085 10.9393 15.3914 11.1694 16.2205 11.4131C17.513 11.7934 18.8497 12.1863 18.8497 14.3216C18.8501 15.5403 17.9131 16.685 16.213 17.5449Z" fill="white"/>
<path d="M16.9394 12.9374C15.9806 12.1694 14.4252 12.1694 13.4664 12.9374C12.5077 13.7054 12.508 14.9508 13.4664 15.7191C14.4249 16.4874 15.9803 16.487 16.9394 15.7191C17.8985 14.9511 17.8981 13.7054 16.9394 12.9374ZM16.4672 15.3404C15.7694 15.8998 14.6364 15.8998 13.939 15.3404C13.2415 14.7811 13.2412 13.8747 13.939 13.3157C14.6368 12.7567 15.7694 12.7564 16.4672 13.3157C17.1649 13.875 17.1649 14.7811 16.4672 15.3404Z" fill="white"/>
</svg>
