<svg width="23" height="21" viewBox="0 0 23 21" fill="none" xmlns="http://www.w3.org/2000/svg">
<path d="M18.7533 2.14015C18.8658 2.25669 19.3666 2.42244 19.5414 2.58268C19.6118 2.64697 19.6509 2.6977 19.6901 2.7856C19.7845 2.99757 19.8865 3.78467 19.8956 4.03682C19.9433 5.36138 18.4253 4.82492 17.7523 4.37085C17.2665 4.6009 17.3911 4.91182 17.5328 5.34681C18.0155 5.2574 18.4489 5.22224 18.7533 5.68184C19.5294 6.85269 19.2335 8.1667 18.3379 9.15873C17.703 9.86144 17.2243 9.59724 16.377 9.60929L16.3529 10.3929C17.0335 10.527 17.7086 11.3261 17.3755 12.0143C17.2243 12.3262 16.8667 12.821 16.493 12.8401C16.388 12.8456 16.0585 12.7285 16.0284 12.8782C16.0148 12.944 16.4388 13.4684 16.4925 13.6186C16.7175 14.248 16.4699 15.2144 15.6642 14.9502C15.078 14.7578 14.0755 13.6593 14.0659 13.0274C14.0624 12.8119 14.1704 12.5839 14.1136 12.3568C13.0332 12.2494 12.8845 11.8244 12.9599 10.7977C12.7388 10.7746 12.2702 10.527 12.0854 10.6917C11.9703 10.7937 11.8031 11.3317 11.6207 11.4969C11.4751 11.6285 10.7382 11.9113 10.7106 11.9545C10.7226 12.38 11.0295 12.607 10.9436 13.0671C10.9185 13.2022 10.375 14.244 10.2741 14.3565C9.94407 14.7247 9.52013 14.6724 9.19866 14.3329C8.53915 13.6357 8.43718 12.8637 8.39147 11.9254C8.37992 11.6933 8.50349 10.8208 8.46983 10.745C8.37289 10.526 8.10014 10.6149 7.92082 10.5878C7.53406 10.53 6.84692 9.64897 6.6455 9.30138C6.41494 8.90407 6.26777 8.47511 6.1216 8.04213C5.5535 7.91455 4.99746 7.55691 4.39973 7.62773C4.14607 7.65787 4.06771 7.82664 4.03406 8.06875C3.98986 8.38771 4.24352 8.48616 4.39873 8.72224C5.07632 8.36058 5.77401 9.03266 6.15425 9.54148C6.39133 9.85893 6.48928 10.2462 6.27681 10.6094C6.13767 10.8475 5.12706 11.4803 4.84778 11.5914C4.25407 11.8274 3.88237 11.3317 3.82159 10.7937C2.9702 11.0278 2.34986 11.7661 1.614 10.8168C1.1775 10.2537 1.30609 9.72532 1.40655 9.06782C1.24983 8.9111 0.944941 8.71772 0.8485 8.51831C0.768133 8.35205 0.60338 7.49764 0.603882 7.30225C0.604384 6.5694 1.40052 6.07966 1.50098 5.34128C1.48792 5.25288 0.778681 5.00173 0.642056 4.9078C0.390406 4.73501 0.0337763 4.13628 0.00514548 3.8354C-0.0691943 3.05735 0.675208 2.61633 1.38244 2.70925C1.72601 2.75446 2.20018 3.11762 2.44781 3.14324C2.79088 3.1784 3.15705 2.79414 3.61866 3.1352C3.71862 3.20904 4.47307 4.30254 4.5022 4.41154C4.58608 4.72748 4.43037 4.96758 4.5022 5.26594L5.0276 5.71901L5.32596 5.09114C5.09692 4.70236 5.00349 4.62049 5.03463 4.14331C5.08687 3.34818 5.31943 2.81223 6.23311 3.05684C6.17936 2.62487 6.26877 2.38628 6.4943 2.03718C6.67161 1.76293 6.88007 1.50676 7.22615 1.46055C7.43711 1.43242 9.00528 1.70617 9.22579 1.79759C9.56584 1.93873 9.65877 2.33605 9.75521 2.64898C10.0405 2.64546 10.3283 2.55756 10.6166 2.61633C10.905 2.6751 11.24 3.05132 11.5404 3.14625C12.3104 2.76401 12.8026 2.37523 13.7093 2.5882C13.9162 2.63692 14.3999 2.872 14.5446 2.85743C14.7083 2.84086 15.2438 2.07536 15.4492 1.95129C15.508 1.52434 15.3764 0.637285 15.9244 0.467509C16.3006 0.350977 17.8738 0.703588 18.1847 0.97533C18.581 1.32141 18.5821 1.96335 18.7528 2.14066L18.7533 2.14015ZM19.0793 3.0699C18.8211 2.90816 18.4278 2.77254 18.2385 2.52943C17.8663 2.05125 18.1596 1.55448 17.3856 1.32292C17.0164 1.21241 16.5598 1.17424 16.1791 1.09789C16.0902 1.39726 16.1695 1.73882 16.1253 2.02412C16.0866 2.27427 15.1805 3.25023 14.9484 3.40895C14.4582 3.74499 14.0081 3.29493 13.5295 3.21959C12.6293 3.07794 12.5284 3.51042 11.8734 3.74951C11.1119 4.02728 10.9587 3.37982 10.467 3.26831C10.1349 3.19297 9.76877 3.43557 9.40159 3.22813C9.11779 3.06789 9.10122 2.67912 8.98469 2.4139C8.91587 2.36317 7.37935 2.11403 7.29647 2.13513C7.16688 2.16878 6.94336 2.5229 6.9092 2.653C6.82783 2.96442 6.98203 3.22561 6.7123 3.51092C6.45764 3.78015 6.10804 3.72691 5.78104 3.6591C5.78004 3.86052 5.64994 4.20258 5.67908 4.38491C5.69917 4.51049 5.91566 4.66871 5.95835 4.81237C6.10201 5.29608 5.56506 6.3725 5.00249 6.37601C4.61421 6.37853 3.79949 5.60901 3.77337 5.2358C3.7593 5.03338 3.90949 4.81136 3.85122 4.61296C3.83214 4.54715 3.26555 3.71234 3.21783 3.6822C2.91595 3.66261 2.65877 3.85148 2.34333 3.80727C1.89076 3.74348 1.47888 3.22863 0.956494 3.38133C0.508446 3.51192 0.670185 3.92732 0.886172 4.20911C1.20613 4.62652 2.0962 4.54464 2.162 5.24786C2.18762 5.52412 1.86012 6.28409 1.70341 6.53876C1.55021 6.78689 1.26239 6.97525 1.25988 7.30024C1.25938 7.4012 1.40504 8.12802 1.44473 8.21793C1.47587 8.28926 1.82396 8.52835 1.91387 8.65694C2.26196 9.15471 1.81592 9.73034 2.00981 10.2181C2.05803 10.3396 2.30315 10.6385 2.44078 10.6375C2.80846 10.6335 3.43331 10.0156 3.92456 10.1101C4.39571 10.2005 4.44042 10.6284 4.60065 10.9921C4.81613 10.7505 5.49172 10.533 5.66552 10.3261C5.73182 10.2467 5.7489 10.1337 5.7062 10.0403C5.68561 9.99505 5.0497 9.35915 5.005 9.33303C4.78499 9.20444 4.58709 9.40034 4.35503 9.38376C3.98534 9.35814 3.33888 8.60872 3.32281 8.25209C3.30874 7.93665 3.57195 7.3148 3.85474 7.13398C4.45649 6.74972 5.74438 7.14101 6.35919 7.42581C6.83386 7.64582 6.74696 7.92459 6.91272 8.32894C7.10309 8.79407 7.31907 9.21398 7.66315 9.58769C8.1122 10.0749 8.0896 9.82478 8.59239 10.0146C9.43173 10.3321 9.0309 11.1584 9.04295 11.7732C9.04798 12.0349 9.1841 13.157 9.27702 13.3484C9.30565 13.4071 9.69142 13.8919 9.72457 13.9059C9.82503 13.926 9.78585 13.8833 9.81046 13.8421C9.89736 13.695 10.2776 13.0244 10.2922 12.9154C10.3404 12.5598 9.7753 12.1951 10.1083 11.6285C10.3283 11.2543 10.8939 11.2553 11.1531 11.0157C11.2792 10.8992 11.3686 10.5561 11.4851 10.3934C11.9085 9.80268 12.557 9.93377 13.1542 10.1744C13.8087 10.4376 13.6445 11.0077 13.6721 11.5903C13.9916 11.6642 14.4672 11.6647 14.6717 11.9721C14.9268 12.3558 14.628 12.8772 14.8023 13.2479C15.0881 13.6683 15.399 14.0908 15.8762 14.3078C16.05 13.6216 15.1911 13.3363 15.397 12.6482C15.5231 12.2273 16.1208 12.0103 16.5206 12.1399C16.7507 11.7837 16.9621 11.5381 16.5558 11.1925C16.3262 10.9971 15.9631 11.0961 15.7662 10.7264C15.6301 10.4702 15.6346 9.63993 15.7365 9.3707C16.061 8.51178 17.2615 9.23809 17.7116 8.88448C17.7965 8.81767 18.2566 8.19734 18.3158 8.08231C18.4675 7.78596 18.5886 7.13348 18.5273 6.8105C18.5102 6.72159 18.2164 6.05254 18.1667 6.01637C17.9431 5.85564 17.5277 6.17409 17.158 5.91943C16.8431 5.70244 16.6668 4.8636 16.7527 4.50948C16.7919 4.34875 17.1415 3.99262 17.2821 3.88412C18.028 3.31 18.472 4.31459 19.2421 4.21162L19.0783 3.0699H19.0793Z" fill="white"/>
<path d="M18.3761 17.3838C18.7574 17.3155 19.4048 17.54 19.6369 17.8575C20.2371 18.6767 20.1 19.3026 19.2084 19.7737C18.8684 19.9536 18.6097 19.9696 18.2264 19.9209C17.8643 19.8752 16.0876 19.4126 15.8531 19.2303C15.4507 18.9173 15.505 18.3954 15.8069 18.0293C16.0751 17.7043 16.5 17.6209 16.9089 17.6721C17.2088 17.7093 17.4238 18.0217 17.6603 17.9765C17.8311 17.9439 17.9572 17.4587 18.3761 17.3838ZM16.2293 18.728C16.8526 18.7968 18.1777 19.4086 18.7428 19.2574C18.8131 19.2388 19.2607 18.9575 19.2968 18.9078C19.5158 18.6084 18.9276 17.9856 18.563 18.0273C18.4294 18.0338 18.1802 18.5492 17.8507 18.6165C17.7156 18.6441 17.4564 18.6446 17.3213 18.6165C17.1415 18.5793 16.9787 18.3738 16.8461 18.3387C16.5251 18.2543 16.2444 18.3703 16.2303 18.728H16.2293Z" fill="white"/>
<path d="M19.1311 12.0108C19.2782 12.0057 19.4887 12.0761 19.6118 12.1564C20.0598 12.4488 19.8333 12.9586 19.8991 13.376C19.9388 13.6251 20.1351 13.7286 20.0859 14.0692C20.0292 14.4615 19.657 14.5599 19.5229 14.8141C19.3646 15.1145 19.4746 15.557 19.2431 15.8905C18.252 17.317 15.8611 14.909 17.809 14.1551C18.1561 13.494 18.1747 12.0444 19.1306 12.0103L19.1311 12.0108ZM19.2431 12.7009C19.1321 12.6914 19.0266 12.6964 18.9693 12.8039C18.7428 13.2565 18.568 14.3906 18.2058 14.7026C18.015 14.8668 17.4971 14.9196 17.8145 15.3103C17.8371 15.3385 18.1727 15.6142 18.2013 15.6268C18.8854 15.9237 18.7428 14.8412 18.9316 14.474C19.0462 14.251 19.2973 14.1681 19.436 13.9747C19.454 13.8768 19.2431 13.6292 19.2431 13.5804V12.7009Z" fill="white"/>
<path d="M12.6504 14.6724C12.782 14.6644 13.1236 14.7473 13.2502 14.801C13.5686 14.9366 13.9976 15.4128 14.2829 15.5263C14.6225 15.661 14.9344 15.4937 15.2769 15.8383C15.4221 15.9844 15.7561 16.545 15.7782 16.7434C15.8872 17.7274 14.9665 18.2071 14.1076 17.9117C13.8464 17.8218 12.779 17.0408 12.5866 16.8208C12.3571 16.5575 11.9131 15.7318 11.9271 15.3957C11.9432 15.015 12.2722 14.695 12.6499 14.6724H12.6504ZM12.6128 15.3631C12.6896 15.8267 12.9337 16.2542 13.2924 16.5671C13.4129 16.6721 14.1649 17.2181 14.2683 17.2487C14.636 17.3577 15.2247 17.3296 15.1162 16.8062C15.1026 16.7399 14.858 16.3491 14.8018 16.3134C14.6606 16.2245 14.303 16.2567 14.1181 16.1934C13.865 16.106 12.8212 15.1541 12.6128 15.3631Z" fill="white"/>
<path d="M20.9891 14.9241C21.6224 14.8477 22.1931 15.2712 22.1021 15.9367C22.0594 16.2491 21.6541 16.551 21.6541 16.6952C21.6541 16.8062 21.952 16.988 21.8952 17.3843C21.8108 17.969 21.1191 18.1001 20.6279 18.0222C20.4581 17.9956 19.9538 17.4943 19.8544 17.3391C19.5033 16.7891 19.782 16.1552 20.0382 15.6303C20.2738 15.1481 20.4174 14.9929 20.9891 14.9241ZM21.202 17.3215C21.091 17.0357 20.9524 16.884 21.0046 16.547C21.0453 16.2858 21.4532 15.9196 21.4537 15.7895C21.4547 15.4856 20.877 15.5459 20.7258 15.7162C20.66 15.79 20.3421 16.6379 20.3426 16.7454C20.3441 17.0875 20.8464 17.5501 21.202 17.322V17.3215Z" fill="white"/>
</svg>
