<svg width="20" height="21" viewBox="0 0 20 21" fill="none" xmlns="http://www.w3.org/2000/svg">
<path d="M16.838 5.48208C16.5249 5.1341 16.0681 4.9681 15.7696 4.50673C15.471 4.04535 15.4639 3.59819 15.2968 3.09559C15.1671 2.7053 15.0515 2.76218 14.7889 2.53718C14.4398 2.23824 14.3574 1.79962 14.2201 1.38161C14.1274 1.37059 14.1643 1.38303 14.1487 1.4335C14.1213 1.52165 14.0783 1.80744 14.0773 1.89879C14.0691 2.55708 14.2944 3.5822 13.7602 4.10222C13.136 4.70969 12.0953 3.98741 11.544 3.579C11.1117 3.25909 10.7826 2.88872 10.9799 2.31715C11.0325 2.16431 11.2468 1.87177 11.2656 1.74701C11.272 1.70507 11.2781 1.67379 11.2354 1.64891C11.1842 1.60732 10.8786 1.56928 10.7908 1.5604C10.4769 1.52841 9.80617 1.48255 9.51399 1.52663C8.82761 1.63042 8.59941 2.89582 7.66351 2.8777C7.34361 2.87165 7.04112 2.61502 6.71197 2.67047C6.48946 2.70779 6.05652 3.0899 5.86778 3.24772C5.67903 3.40554 4.98129 4.01087 4.91766 4.18149C4.78294 4.54369 4.83448 4.86857 4.48081 5.16644C3.71553 5.81052 1.77903 5.81585 1.20498 6.76028C1.04183 7.029 0.796569 7.77083 0.783773 8.08149C0.763157 8.5745 1.32192 9.10803 1.48756 9.61952C1.66316 10.1616 1.5391 10.624 1.64147 11.1362C1.67737 11.3164 1.79325 11.481 1.8288 11.6598C1.92192 12.1258 1.71328 12.3465 1.49645 12.7205C1.7346 12.7674 1.96636 12.9185 2.20557 12.9536C2.66944 13.0222 3.29787 12.5726 3.77133 12.4539C4.33117 12.3138 4.89598 12.3938 5.46079 12.1884C5.93425 12.016 6.37216 11.6637 6.83993 11.4704C8.10072 10.9493 9.36719 11.1113 10.4019 12.0089C10.7886 12.3444 11.0478 12.8331 11.5315 13.0475C11.7409 13.1403 11.8749 13.1026 12.0537 13.3073C12.0967 13.3564 12.1216 13.4623 12.1596 13.4858C12.2858 13.5632 12.5933 13.425 12.8687 13.6297C13.4033 14.0268 13.0429 14.7327 13.8775 15.038C14.0997 15.1194 14.3574 15.1148 14.5671 15.2371C14.7181 15.3252 14.7846 15.4837 14.9147 15.5648C15.1269 15.2122 15.4166 15.1539 15.8051 15.172C15.8968 15.1763 16.1232 15.2456 16.179 15.2246C16.253 15.1969 16.479 14.8955 16.6507 14.8112C16.8629 14.7071 17.2297 14.7181 17.3687 14.6051C17.5642 14.4465 17.4693 14.0058 17.496 13.7726C17.5365 13.4204 17.8504 12.6647 18.3068 12.9185C18.7454 13.1627 18.3331 13.5405 18.2826 13.8124C18.2534 13.9692 18.289 14.1426 18.2737 14.3012C18.2147 14.9218 17.9854 15.2563 17.3869 15.4404C17.2688 15.4766 17.1267 15.4617 17.0047 15.5204C16.8828 15.579 16.7773 15.7745 16.6365 15.8634C16.2661 16.0962 16.0006 15.9579 15.5961 15.9604C15.3629 16.3361 15.0583 16.6976 14.5756 16.436C14.3303 16.3031 14.2571 15.9661 14.1498 15.9021C14.0673 15.8534 13.7012 15.8036 13.5576 15.7478C13.248 15.6273 12.9021 15.3711 12.7223 15.0903C12.5669 14.8478 12.5367 14.5525 12.4095 14.299C12.086 14.3353 11.7338 14.4046 11.5265 14.0826C11.4807 14.0111 11.4597 13.8839 11.4139 13.8398C11.368 13.7957 11.1587 13.7378 11.0705 13.6855C10.125 13.1239 9.89823 12.2033 8.64882 11.984C7.18081 11.7259 6.3519 12.9227 4.99408 13.1068C4.67524 13.1502 4.3269 13.1218 4.01197 13.1911C3.23709 13.3617 2.86742 13.8991 1.9365 13.6845C1.2846 13.5341 0.457114 13.2185 0.790882 12.3871C0.851308 12.2363 1.07275 11.9818 1.07275 11.8493C1.07275 11.7426 0.891119 11.3911 0.860906 11.2059C0.805455 10.864 0.852375 10.4829 0.817185 10.1477C0.742896 9.45353 0.0337728 8.98931 0.00107141 8.2258C-0.0216774 7.69512 0.338038 6.57402 0.67856 6.16384C1.41967 5.27165 2.68792 5.13445 3.69811 4.70471C4.23555 4.47616 4.02264 4.28883 4.21458 3.83492C4.36458 3.48054 5.42951 2.56703 5.77892 2.30684C6.14645 2.03279 6.50617 1.82734 6.98709 1.87959C7.19574 1.90234 7.58887 2.12805 7.75202 2.07864C7.91517 2.02924 8.43235 1.28173 8.65806 1.09867C9.21754 0.645469 9.66861 0.744995 10.3283 0.777697C10.8224 0.802223 11.4395 0.76419 11.839 1.11537C12.3789 1.5899 11.8923 2.14049 11.7053 2.63919C11.7149 2.72805 11.8632 2.84713 11.9335 2.90471C12.08 3.02414 12.8545 3.51715 13.0024 3.54203C13.2729 3.58753 13.2999 3.45886 13.328 3.20933C13.4108 2.47248 13.178 1.77296 13.4677 1.0386C13.7545 0.311346 14.4515 0.230659 14.8433 0.919877C15.0039 1.20246 15.0626 1.65388 15.2357 1.87817C15.3448 2.01964 15.5517 2.08504 15.6796 2.2162C16.2089 2.75898 16.0411 3.58753 16.4808 4.15199C16.8718 4.65353 17.3858 4.76514 17.7103 5.41064C17.785 5.55886 17.8251 5.7508 17.9001 5.89618C17.9908 6.07106 18.8122 7.04251 18.9583 7.11289C19.0692 7.1662 19.2153 7.16301 19.3319 7.20139C19.6685 7.31194 19.8811 7.57853 19.875 7.94038C19.8718 8.12379 19.7648 8.36016 19.7694 8.54144C19.7733 8.70637 19.8597 8.96265 19.8718 9.14962C19.8981 9.55199 19.9447 10.2185 19.9034 10.602C19.8675 10.9343 19.7193 11.2059 19.3383 11.1049C18.9967 11.0143 19.1232 10.6926 19.1275 10.4658C19.135 10.066 19.1179 9.58469 19.0902 9.18516C19.0756 8.97758 18.9839 8.70353 18.9828 8.50767C18.9821 8.40602 19.098 7.9912 19.0752 7.95637C18.8801 7.87106 18.686 7.87071 18.4973 7.75199C18.2712 7.61016 17.4974 6.71052 17.3346 6.46206C17.1476 6.17699 17.0396 5.70602 16.8388 5.48279L16.838 5.48208Z" fill="white"/>
<path d="M15.064 17.0658C15.5058 16.9916 15.8566 17.2031 16.2647 17.2347C16.5622 17.2578 16.7822 17.1437 17.0733 17.2791C17.3961 17.4291 17.5401 17.9143 17.5265 18.2467C17.5205 18.3917 17.4388 18.5243 17.4213 18.6412C17.4039 18.7581 17.4313 18.8751 17.4153 18.9906C17.3033 19.8074 16.4179 20.1924 15.7159 19.7733C15.3029 19.527 14.5269 18.2861 14.5141 17.8116C14.5049 17.4672 14.7064 17.1259 15.064 17.0658ZM16.7079 17.9811C16.2423 18.0967 15.7681 17.9317 15.3228 17.8038C15.2378 17.9136 15.9597 19.0208 16.1211 19.12C16.2508 19.1996 16.4119 19.2071 16.5288 19.0994C16.6959 18.9455 16.6138 18.6942 16.6404 18.5004C16.6653 18.3195 16.8178 18.1891 16.7079 17.9811Z" fill="white"/>
<path d="M18.7241 11.5553C19.2988 11.4231 19.3642 12.2317 18.9217 12.3217C18.3796 12.4318 18.2997 11.6531 18.7241 11.5553Z" fill="white"/>
</svg>
