<svg width="20" height="21" viewBox="0 0 20 21" fill="none" xmlns="http://www.w3.org/2000/svg">
<g clip-path="url(#clip0_1_121)">
<path d="M18.7143 16.0858V17.0143H2V16.0858L3.85714 14.2286V8.65719C3.85714 5.77862 5.74214 3.24362 8.5 2.42648V2.15719C8.5 1.66465 8.69566 1.19228 9.04394 0.843993C9.39223 0.495711 9.8646 0.300049 10.3571 0.300049C10.8497 0.300049 11.3221 0.495711 11.6703 0.843993C12.0186 1.19228 12.2143 1.66465 12.2143 2.15719V2.42648C14.9721 3.24362 16.8571 5.77862 16.8571 8.65719V14.2286L18.7143 16.0858ZM12.2143 17.9429C12.2143 18.4355 12.0186 18.9078 11.6703 19.2561C11.3221 19.6044 10.8497 19.8 10.3571 19.8C9.8646 19.8 9.39223 19.6044 9.04394 19.2561C8.69566 18.9078 8.5 18.4355 8.5 17.9429" fill="white"/>
</g>
<defs>
<clipPath id="clip0_1_121">
<rect width="20" height="20" fill="white" transform="translate(0 0.300049)"/>
</clipPath>
</defs>
</svg>
