<svg width="20" height="21" viewBox="0 0 20 21" fill="none" xmlns="http://www.w3.org/2000/svg">
<path fill-rule="evenodd" clip-rule="evenodd" d="M5.38021 2.46191C8.43307 2.23197 11.4994 2.24711 14.5499 2.5072L16.3886 2.66344C17.0631 2.72112 17.6987 3.0039 18.1931 3.46633C18.6876 3.92875 19.0122 4.54398 19.1149 5.21315L19.2304 5.97059C19.6233 8.53832 19.5865 11.1535 19.1217 13.7092C19.011 14.3205 18.689 14.8734 18.212 15.2714C17.7349 15.6694 17.1332 15.887 16.512 15.8864H6.34937C6.115 15.8864 5.88517 15.9441 5.67911 16.0551L1.25108 18.435C1.12168 18.5045 0.976466 18.5393 0.829613 18.5359C0.68276 18.5325 0.539295 18.4911 0.413236 18.4157C0.287176 18.3403 0.182834 18.2335 0.110404 18.1057C0.0379742 17.9779 -6.60144e-05 17.8335 8.59978e-08 17.6866V8.04365C0.000291471 6.63619 0.532281 5.2808 1.48943 4.24891C2.44658 3.21701 3.75823 2.58481 5.16169 2.47889L5.38021 2.46191ZM5.37794 8.06289C5.0026 8.06289 4.64262 8.212 4.37721 8.47741C4.1118 8.74282 3.9627 9.10279 3.9627 9.47814C3.9627 9.85349 4.1118 10.2135 4.37721 10.4789C4.64262 10.7443 5.0026 10.8934 5.37794 10.8934C5.75329 10.8934 6.11326 10.7443 6.37867 10.4789C6.64409 10.2135 6.79319 9.85349 6.79319 9.47814C6.79319 9.10279 6.64409 8.74282 6.37867 8.47741C6.11326 8.212 5.75329 8.06289 5.37794 8.06289ZM9.90674 8.06289C9.53139 8.06289 9.17142 8.212 8.90601 8.47741C8.6406 8.74282 8.49149 9.10279 8.49149 9.47814C8.49149 9.85349 8.6406 10.2135 8.90601 10.4789C9.17142 10.7443 9.53139 10.8934 9.90674 10.8934C10.2821 10.8934 10.6421 10.7443 10.9075 10.4789C11.1729 10.2135 11.322 9.85349 11.322 9.47814C11.322 9.10279 11.1729 8.74282 10.9075 8.47741C10.6421 8.212 10.2821 8.06289 9.90674 8.06289ZM13.0203 9.47814C13.0203 9.10279 13.1694 8.74282 13.4348 8.47741C13.7002 8.212 14.0602 8.06289 14.4355 8.06289C14.8109 8.06289 15.1709 8.212 15.4363 8.47741C15.7017 8.74282 15.8508 9.10279 15.8508 9.47814C15.8508 9.85349 15.7017 10.2135 15.4363 10.4789C15.1709 10.7443 14.8109 10.8934 14.4355 10.8934C14.0602 10.8934 13.7002 10.7443 13.4348 10.4789C13.1694 10.2135 13.0203 9.85349 13.0203 9.47814Z" fill="white"/>
</svg>
