<svg width="20" height="21" viewBox="0 0 20 21" fill="none" xmlns="http://www.w3.org/2000/svg">
<path d="M14.8414 5.8827C14.9707 5.90896 15.0952 5.92038 15.1158 6.10534C15.1263 6.19955 15.2534 6.20919 15.3472 6.21173C15.5155 6.21632 15.5596 6.24353 15.5495 6.39358C15.5415 6.51477 15.5806 6.55063 15.6939 6.5606C15.8431 6.57373 15.9829 6.61626 16.1399 6.5559C16.2812 6.5016 16.362 6.57328 16.4291 6.74344C16.4433 6.77949 16.4637 6.82756 16.5058 6.80157C16.6978 6.68312 16.927 6.77539 17.1327 6.67086C17.2693 6.60143 17.464 6.63288 17.6011 6.76462C17.6674 6.82832 17.746 6.85894 17.8283 6.80294C17.9155 6.74356 17.9877 6.79819 18.0326 6.84437C18.1752 6.99101 18.3362 6.94742 18.4998 6.91623C18.5217 6.91206 18.5429 6.90416 18.5644 6.89802C18.6533 6.87256 18.57 7.0765 18.6696 6.98957C18.7224 6.94351 18.7593 6.93387 18.819 6.92663C19.0909 6.89358 19.2914 7.04781 19.4999 7.18452L19.4002 7.4188C19.393 7.41697 19.3857 7.41529 19.3785 7.41376C19.3193 7.40143 19.2653 7.29792 19.2475 7.32623C19.2106 7.38466 19.1364 7.43463 19.1461 7.51635C19.1584 7.62122 19.1066 7.646 19.0137 7.65044C18.931 7.65438 18.8465 7.66903 18.7824 7.7344C18.7303 7.78771 18.6685 7.78877 18.5945 7.78593C18.4033 7.77857 18.3004 7.86932 18.2765 8.06309C18.252 8.26183 18.0664 8.33316 17.9682 8.47313C17.9365 8.51835 17.9081 8.45973 17.891 8.42957C17.8131 8.29154 17.8614 8.16322 17.9309 8.04211C17.9645 7.98353 18.0185 7.93694 18.0612 7.88317C18.087 7.85058 18.1543 7.82964 18.1237 7.77895C18.0966 7.7341 18.0342 7.72192 17.9802 7.72332C17.9127 7.72511 17.867 7.7714 17.8359 7.82394C17.7817 7.91554 17.7178 7.90207 17.6238 7.88522C17.3789 7.84132 17.1254 7.81564 16.9548 8.06142C16.9096 8.12649 16.7699 8.13598 16.8125 8.24164C16.8526 8.34109 16.9761 8.2753 17.0598 8.30106C17.1216 8.32007 17.2049 8.29875 17.2077 8.38195C17.2106 8.47165 17.3019 8.57204 17.2001 8.65194C17.1685 8.67676 17.1399 8.69186 17.1357 8.73409C17.1335 8.75537 17.1342 8.78759 17.1082 8.78751C17.0836 8.78743 17.0863 8.75564 17.0837 8.73519C17.0819 8.72009 17.0831 8.70465 17.0814 8.68951C17.0765 8.64705 17.0952 8.60099 17.0623 8.56278C17.0508 8.60577 17.0468 8.65282 17.0265 8.6911C16.9294 8.87386 16.826 9.0465 16.5992 9.10151C16.3915 9.1519 16.3708 9.19443 16.4208 9.40425C16.439 9.48074 16.4394 9.54589 16.3574 9.57294C16.2781 9.59908 16.2534 9.52544 16.226 9.47444C16.2049 9.43513 16.1931 9.38892 16.1862 9.34442C16.1762 9.27923 16.14 9.27335 16.0892 9.29202C16.0497 9.30655 16.0077 9.3558 15.9716 9.29744C15.9467 9.25719 15.9309 9.23055 15.8949 9.28105C15.8734 9.31129 15.8395 9.34855 15.8437 9.37799C15.8529 9.44204 15.9004 9.39021 15.9313 9.39321C16.0196 9.40186 16.1028 9.41237 15.9867 9.51644C15.9341 9.56364 15.9499 9.62541 15.9619 9.68703C16.0235 10.0017 15.8887 10.2342 15.59 10.3409C15.5154 10.3675 15.4221 10.363 15.3899 10.4682C15.3694 10.5353 15.3387 10.5296 15.3089 10.4624C15.2729 10.3813 15.2189 10.4332 15.1785 10.4615C15.1236 10.5 15.1227 10.5482 15.1736 10.5944C15.1962 10.6149 15.2204 10.6337 15.2416 10.6556C15.3858 10.8049 15.335 11.014 15.1388 11.0919C15.0847 11.1134 15.0764 11.0765 15.0547 11.0458C14.9958 10.9622 14.8941 10.8635 14.8184 10.932C14.7208 11.0203 14.8241 11.1252 14.9017 11.1995C14.9589 11.2542 15.0261 11.32 15.0116 11.3911C14.9784 11.5535 15.1224 11.6523 15.1315 11.7962C15.1356 11.8611 15.1981 11.8708 15.2501 11.8852C15.4027 11.9276 15.5448 12.015 15.7134 11.9887C15.7424 11.9842 15.785 11.9958 15.7871 12.027C15.7901 12.0712 15.7442 12.0585 15.7173 12.0609C15.525 12.0782 15.3281 12.0458 15.1551 11.9905C15.0218 11.9479 14.9089 11.7945 14.8223 11.6665C14.7503 11.5598 14.6714 11.4581 14.5861 11.3618C14.5611 11.3337 14.5144 11.316 14.5446 11.2734C14.5786 11.2255 14.6283 11.2443 14.6636 11.2754C14.7148 11.3205 14.7595 11.373 14.8076 11.4218C14.8235 11.438 14.8463 11.4556 14.8656 11.4394C14.8882 11.4203 14.864 11.3996 14.8521 11.3831C14.727 11.2079 14.68 11.0136 14.6972 10.7995C14.7036 10.7197 14.6906 10.6398 14.5721 10.6654C14.4702 10.6874 14.4729 10.5901 14.4375 10.54C14.289 10.3298 14.2338 10.3244 14.043 10.4948C13.9992 10.534 13.9511 10.5684 13.9032 10.6024C13.7384 10.7193 13.695 10.8926 13.7796 11.085C13.797 11.1244 13.8395 11.168 13.7925 11.208C13.7493 11.2448 13.7128 11.1982 13.6716 11.1841C13.4815 11.1191 13.4098 10.9607 13.3837 10.7902C13.3447 10.5363 13.1536 10.3895 13.0169 10.2035C12.9819 10.1557 12.9295 10.1456 12.8746 10.1446C12.806 10.1434 12.7367 10.1374 12.6688 10.144C12.6265 10.1481 12.5862 10.142 12.5465 10.1333C12.4789 10.1185 12.4387 10.2055 12.4939 10.2473C12.5203 10.2673 12.5488 10.2854 12.5732 10.3071C12.617 10.346 12.5719 10.3696 12.5591 10.4026C12.4786 10.6115 12.2776 10.6652 12.1049 10.7446C11.9969 10.7942 11.8947 10.8691 11.7684 10.8766C11.7449 10.8779 11.7216 10.8903 11.7216 10.9171C11.7216 10.9532 11.7502 10.9707 11.7806 10.9734C11.858 10.9804 11.9261 10.9382 12.0001 10.9264C12.1032 10.91 12.1529 10.9799 12.1069 11.0736C12.0163 11.2585 11.8997 11.429 11.7328 11.559C11.4771 11.7581 11.4528 11.8394 11.5486 12.1376C11.6238 12.3712 11.615 12.4065 11.4112 12.5611C11.3334 12.6201 11.2668 12.6741 11.3055 12.7858C11.3208 12.83 11.3245 12.8903 11.2879 12.9156C11.1418 13.0165 11.0939 13.1844 11.0021 13.321C10.8546 13.5406 10.6284 13.5301 10.4109 13.5466C10.3427 13.5518 10.2913 13.4842 10.2844 13.4313C10.2595 13.2411 10.1652 13.068 10.0998 12.9003C9.99922 12.6421 9.92376 12.4196 10.0245 12.1475C10.0534 12.0693 10.0153 11.9403 9.96394 11.8644C9.87781 11.7373 9.83687 11.6092 9.84085 11.4596C9.84211 11.412 9.81619 11.3526 9.76816 11.3596C9.63718 11.3787 9.53095 11.258 9.42122 11.2827C9.2981 11.3104 9.16329 11.2862 9.05015 11.3566C8.97416 11.4038 8.90692 11.3848 8.83772 11.3393C8.66394 11.2251 8.56549 11.0383 8.41387 10.9028C8.39797 10.8886 8.38838 10.8606 8.39217 10.8397C8.4443 10.551 8.34459 10.219 8.61697 9.99257C8.74939 9.88247 8.80167 9.71374 8.92908 9.6009C8.98258 9.55351 8.98504 9.48935 8.90374 9.45763C8.84952 9.43646 8.79298 9.406 8.81063 9.34745C8.84003 9.2499 8.78342 9.14708 8.83286 9.05781C8.87725 8.97771 8.96346 8.99224 9.03896 8.99626C9.26399 9.00825 9.28456 8.99099 9.24457 8.76152C9.22764 8.66431 9.25079 8.61897 9.33384 8.55887C9.43018 8.48914 9.52222 8.40806 9.62015 8.33889C9.77768 8.22757 9.79548 8.18431 9.68298 8.01525C9.64777 7.96236 9.62493 7.9106 9.61104 7.85104C9.57242 7.68508 9.59845 7.61367 9.75511 7.54007C9.86442 7.48873 9.94637 7.42154 9.99444 7.30927C10.078 7.11421 10.2388 7.00365 10.4293 6.93034C10.5074 6.90026 10.5891 6.87928 10.6678 6.8504C10.8079 6.79895 10.9277 6.77516 11.0548 6.90967C11.1385 6.99818 11.2981 6.98456 11.4088 7.05635C11.4465 7.08078 11.505 7.08499 11.5285 7.11709C11.6207 7.24257 11.6883 7.30752 11.7407 7.09046C11.7527 7.04064 11.8323 7.02402 11.8753 7.07517C11.9405 7.15291 11.9993 7.1347 12.0734 7.09194C12.1976 7.02023 12.3417 7.05658 12.4755 7.03051C12.6175 7.00285 12.5243 6.94165 12.506 6.88887L12.5086 6.88573C12.6203 6.9086 12.7314 6.93467 12.8439 6.95303C12.9033 6.96275 12.9453 6.96419 12.9637 6.87104C13.0039 6.66885 13.0946 6.63072 13.3166 6.65163C13.3961 6.6591 13.4729 6.6454 13.5534 6.68095C13.5998 6.70148 13.6832 6.69245 13.6961 6.60989C13.7141 6.49474 13.7729 6.50957 13.8597 6.53499C13.9399 6.55848 14.0493 6.59866 14.0482 6.43676C14.0479 6.39434 14.1003 6.3866 14.1372 6.37856C14.299 6.34327 14.4499 6.26899 14.6244 6.27676C14.7846 6.2839 14.8278 6.17755 14.7417 6.02483C14.7889 5.98742 14.8161 5.93571 14.8414 5.8827ZM9.70806 9.03591C9.53918 9.06573 9.4246 9.16761 9.35581 9.3144C9.32219 9.38615 9.2929 9.4505 9.21858 9.48582C9.1938 9.49759 9.14356 9.49083 9.14964 9.52316C9.15438 9.54835 9.20507 9.54308 9.23223 9.53359C9.36837 9.48613 9.50386 9.4417 9.64978 9.42903C9.7295 9.42208 9.80105 9.43354 9.87052 9.46534C9.93882 9.4966 9.93005 9.56118 9.93381 9.62249C9.93677 9.67014 9.97407 9.70987 10.0218 9.71234C10.1746 9.72019 10.3202 9.84976 10.4821 9.73685C10.5071 9.71943 10.5614 9.72303 10.5918 9.73795C10.7602 9.82062 10.9403 9.76325 11.1133 9.78704C11.1981 9.79869 11.2282 9.71571 11.2445 9.65417C11.2643 9.5789 11.2032 9.57738 11.1446 9.57332C11.0938 9.56979 11.0412 9.52729 10.995 9.53519C10.8361 9.56235 10.7662 9.49637 10.7561 9.34385C10.7541 9.31304 10.7354 9.28367 10.6971 9.28895C10.6714 9.29251 10.6736 9.32078 10.6638 9.33952C10.6076 9.44781 10.4619 9.4664 10.3923 9.37428C10.3711 9.34635 10.3693 9.27225 10.3386 9.28766C10.1804 9.36703 10.1104 9.22016 10.005 9.16916C9.93582 9.13566 9.8928 9.12337 9.88585 9.22384C9.88217 9.2773 9.85228 9.3448 9.79199 9.32704C9.70537 9.30154 9.78224 9.24148 9.78595 9.19614C9.79168 9.12819 9.84086 9.03773 9.70806 9.03591ZM10.3116 8.20355C10.4171 8.20905 10.4083 8.20351 10.4512 8.13601C10.5518 7.97746 10.5119 7.82072 10.4594 7.66281C10.4446 7.61838 10.4505 7.53631 10.3691 7.56534C10.3071 7.58746 10.2683 7.65962 10.3084 7.71422C10.4442 7.89892 10.2656 7.98808 10.1925 8.09978C10.1468 8.16963 10.055 8.24047 9.97744 8.10854C9.9661 8.08923 9.93996 8.0736 9.92159 8.09181C9.90843 8.10486 9.90319 8.13457 9.90687 8.15457C9.93108 8.28562 10.0343 8.25769 10.1226 8.25792C10.1906 8.25811 10.2338 8.17039 10.3116 8.20355ZM11.5662 9.12557C11.534 9.00017 11.3561 9.01102 11.3298 8.86715C11.3238 8.83433 11.279 8.91754 11.2471 8.94167C11.1965 8.97987 11.1455 8.99129 11.1142 8.92846C11.0886 8.87705 11.0611 8.84617 11.0165 8.8931C10.9656 8.94675 10.9053 9.00214 10.9151 9.08877C10.9213 9.14382 10.9637 9.17523 11.0102 9.1651C11.1562 9.13331 11.2914 9.15372 11.4292 9.20798C11.487 9.23067 11.5502 9.20342 11.5662 9.12557ZM11.4223 10.3158C11.3745 10.3262 11.3726 10.3609 11.3701 10.3989C11.3628 10.5096 11.4424 10.574 11.5009 10.6493C11.5275 10.6835 11.5548 10.7446 11.5986 10.7259C11.662 10.6989 11.6221 10.6367 11.6101 10.5897C11.5874 10.5005 11.5216 10.4352 11.4755 10.3591C11.4649 10.3415 11.4421 10.3314 11.4223 10.3158ZM-5.34058e-05 8.35858C0.190755 8.24157 0.383953 8.12968 0.597527 8.05759C0.624769 8.04841 0.662634 8.03152 0.659675 7.99859C0.65626 7.96046 0.610237 7.97704 0.586106 7.96285C0.487799 7.90503 0.385888 7.85225 0.292704 7.78703C0.177589 7.70644 0.182939 7.63974 0.301468 7.56754C0.327041 7.55194 0.357129 7.54386 0.384978 7.53187C0.416887 7.5181 0.481843 7.52758 0.469094 7.4805C0.457901 7.43914 0.402393 7.47822 0.36669 7.47621C0.336678 7.47454 0.304428 7.47625 0.277375 7.46566C0.225206 7.44525 0.179183 7.40636 0.188516 7.34702C0.200392 7.27148 0.267473 7.26563 0.330342 7.26491C0.358343 7.26457 0.398485 7.29739 0.41093 7.26233C0.422502 7.22978 0.374544 7.22458 0.350375 7.20891C0.169811 7.09167 0.170494 7.06299 0.352386 6.9574C0.398409 6.93069 0.441511 6.89787 0.48981 6.87651C0.627121 6.8158 0.75616 6.77903 0.918209 6.83602C1.09384 6.89779 1.29136 6.89419 1.47663 6.93239C1.70648 6.97978 1.92472 6.98088 2.15913 6.92131C2.38427 6.8641 2.62562 6.90667 2.85145 6.98608C2.87857 6.9956 2.91337 7.01958 2.93446 6.98809C2.95355 6.9596 2.93025 6.92868 2.90472 6.91149C2.86659 6.88588 2.83172 6.86436 2.82204 6.81125C2.81108 6.75107 2.77549 6.73764 2.72908 6.78753C2.67407 6.84668 2.60786 6.84562 2.54033 6.81622C2.4712 6.78613 2.41834 6.74196 2.46619 6.65857C2.49297 6.61186 2.5223 6.56922 2.51908 6.51158C2.51453 6.43073 2.58521 6.41294 2.6255 6.43881C2.75515 6.52198 2.91769 6.47588 3.04939 6.57764C3.15767 6.66134 3.3072 6.68589 3.45005 6.59881C3.5325 6.54858 3.6195 6.53746 3.60148 6.6857C3.59449 6.74325 3.61381 6.80609 3.65645 6.82866C3.77354 6.89062 3.87177 6.93839 3.70509 7.05961C3.67015 7.08503 3.69614 7.13291 3.73962 7.14525C3.79145 7.15993 3.86578 7.17014 3.87173 7.10404C3.87871 7.0266 3.90558 6.98456 3.96602 6.93991C4.06463 6.86706 4.04805 6.82259 3.9214 6.82126C3.8185 6.82016 3.78325 6.71355 3.70581 6.67109C3.796 6.65485 3.83144 6.54668 3.92868 6.54C3.98161 6.53636 4.03405 6.5249 4.0866 6.51625C4.16157 6.50392 4.2129 6.46658 4.22395 6.38607C4.22956 6.34525 4.2266 6.30761 4.17838 6.29801C4.10959 6.28435 4.04911 6.24345 3.98704 6.34305C3.89939 6.48362 3.72573 6.36596 3.60436 6.43035L3.57291 6.34707C3.59191 6.32688 3.59404 6.30674 3.57283 6.28659C3.58842 6.20562 3.52965 6.13262 3.56892 6.04183C3.63479 5.88953 3.65133 5.87398 3.78413 5.95813C3.82374 5.98325 3.87443 6.01155 3.85895 6.06031C3.83819 6.12549 3.78299 6.07025 3.74353 6.0729C3.69455 6.0762 3.64738 6.0806 3.64685 6.14207C3.64632 6.20255 3.69098 6.21329 3.74152 6.21298C3.79475 6.21268 3.84813 6.21792 3.90118 6.21507C3.99903 6.20983 4.05621 6.17664 3.97755 6.07529C3.94333 6.03117 3.89939 5.98245 3.95581 5.93791C4.01455 5.8915 4.05529 5.95893 4.08375 5.99482C4.11217 6.03067 4.21184 6.03064 4.15284 6.12917C4.13497 6.15903 4.22956 6.1794 4.27786 6.19132C4.30097 6.19701 4.32369 6.1829 4.32946 6.15713C4.34115 6.10481 4.31622 6.06994 4.27152 6.04623C4.26444 6.04264 4.25766 6.03851 4.25123 6.03386C3.96894 5.8264 3.97232 5.76133 4.27543 5.58293C4.32787 5.55199 4.3847 5.52917 4.44397 5.51524C4.75425 5.44125 5.07224 5.41989 5.38716 5.38305C5.51878 5.36765 5.65821 5.41272 5.79321 5.43567C5.84451 5.4444 5.93416 5.46557 5.93541 5.48557C5.93909 5.54369 5.85835 5.54157 5.82227 5.57868C5.80178 5.59977 5.76358 5.6148 5.78395 5.65023C5.80721 5.69064 5.8587 5.69258 5.88093 5.66275C6.01338 5.4853 6.19812 5.53019 6.37982 5.51888C6.52768 5.5097 6.67702 5.49023 6.82898 5.43795C6.9963 5.38036 7.19587 5.36366 7.38387 5.3486C7.42155 5.3456 7.47 5.367 7.49633 5.35023C7.72375 5.2056 7.91392 5.42084 8.12624 5.41059C8.15154 5.40938 8.17105 5.43078 8.16293 5.45616C8.15686 5.47513 8.1372 5.50238 8.12176 5.50363C8.01568 5.51232 7.90906 5.51459 7.80267 5.52032C7.78074 5.5215 7.75911 5.52871 7.73734 5.53315C7.75024 5.57037 7.78332 5.55766 7.80734 5.55762C8.03457 5.55709 8.26139 5.58919 8.48934 5.56187C8.54469 5.55523 8.62494 5.54734 8.63583 5.63062C8.64441 5.69614 8.57474 5.70855 8.52944 5.7334C8.3666 5.82279 8.18501 5.90141 8.30976 6.14537C8.32535 6.17584 8.28487 6.20399 8.28555 6.22767C8.2917 6.43805 8.1078 6.60249 8.14707 6.82183C8.15811 6.88352 8.11937 6.94787 8.05665 6.96722C7.91964 7.00949 7.81307 7.13026 7.6566 7.12051C7.6418 7.1196 7.62347 7.12062 7.61201 7.12848C7.38801 7.28168 7.08971 7.35438 7.0147 7.6704C6.98621 7.7904 6.91594 7.80539 6.80875 7.77473C6.63896 7.72617 6.555 7.59698 6.46971 7.4575C6.38134 7.31299 6.34302 7.18216 6.47836 7.04645C6.49949 7.02527 6.49801 6.99872 6.46846 6.97106C6.40096 6.90792 6.28167 6.70106 6.26376 6.63228C6.20886 6.42124 5.99874 6.24895 5.79055 6.30457C5.56051 6.36604 5.47773 6.21291 5.36219 6.09172C5.31522 6.04247 5.35639 6.00802 5.39884 5.98681C5.45959 5.95642 5.53115 5.95661 5.58999 5.91461C5.63769 5.88058 5.64091 5.85151 5.61659 5.80143C5.59094 5.74858 5.55953 5.76717 5.52477 5.78109C5.31803 5.86388 5.13454 5.9653 5.06667 6.20581C5.04394 6.28644 4.98027 6.35223 4.9594 6.44458C4.94146 6.52403 4.83264 6.50593 4.75926 6.51784C4.73251 6.52221 4.68619 6.4969 4.68384 6.53393C4.68209 6.5614 4.73767 6.54827 4.7615 6.56197C4.9264 6.6566 5.1309 6.599 5.29549 6.71818C5.42654 6.81307 5.58096 6.86281 5.64474 7.04121C5.67586 7.12829 5.79647 7.15978 5.8873 7.19795C5.92976 7.21578 5.99134 7.22955 5.94498 7.28445C5.90867 7.32744 5.89144 7.43053 5.79431 7.37931C5.7616 7.36204 5.73725 7.32922 5.70837 7.30433C5.6916 7.28988 5.66887 7.27057 5.65025 7.28688C5.62968 7.30487 5.64971 7.32725 5.66402 7.34353C5.68413 7.36645 5.70871 7.38583 5.72655 7.41023C5.7591 7.45477 5.84439 7.49643 5.77765 7.55778C5.7273 7.60411 5.6639 7.67867 5.57865 7.63868C5.41068 7.55995 5.26021 7.43315 5.05445 7.46972C5.03495 7.47318 5.01579 7.44734 5.01544 7.42249C5.01503 7.39467 5.03483 7.38329 5.05961 7.38132C5.09751 7.37828 5.13762 7.38382 5.17305 7.37327C5.27034 7.34429 5.33009 7.22405 5.29545 7.13739C5.2552 7.03673 5.01131 6.91968 4.89585 6.93293C4.81401 6.94233 4.86743 6.97455 4.8619 7.00934C4.8463 7.10738 4.92442 7.26275 4.71574 7.27114C4.64164 7.27413 4.7003 7.33518 4.73016 7.36284C4.78442 7.41311 4.91133 7.42104 4.89646 7.49427C4.88231 7.56408 4.75858 7.46259 4.69586 7.53369C4.66976 7.56329 4.62108 7.56636 4.58989 7.5409C4.46749 7.44104 4.39358 7.54469 4.31542 7.60662C4.08292 7.79086 4.09252 7.8927 4.36243 8.02276C4.42348 8.05216 4.47975 8.0964 4.54508 8.1123C4.71529 8.15377 4.8603 8.21721 4.90306 8.41193C4.91061 8.44622 4.95295 8.50837 5.00414 8.46034C5.03229 8.43389 5.03248 8.38981 5.01074 8.3579C4.94408 8.26001 4.95667 8.19505 5.07103 8.14501C5.12206 8.1227 5.10654 8.06393 5.08518 8.02314C5.0472 7.95067 5.06177 7.87422 5.05828 7.79898C5.0494 7.60605 5.15776 7.53544 5.3315 7.6271C5.39755 7.66197 5.47355 7.70287 5.51054 7.7624C5.57262 7.8623 5.62141 7.91409 5.74153 7.83961C5.81962 7.7912 5.87516 7.86553 5.90039 7.92601C5.9556 8.05831 6.05656 8.14353 6.15931 8.23485C6.23754 8.3044 6.36135 8.36685 6.28766 8.5157C6.26384 8.56377 6.31764 8.57439 6.34712 8.59427C6.39834 8.62884 6.44626 8.66712 6.45764 8.73306C6.46288 8.76338 6.44326 8.81684 6.43954 8.81395C6.35569 8.74904 6.25557 8.81084 6.17308 8.77776C6.11746 8.75545 6.11435 8.69649 6.13518 8.63897C6.16716 8.5506 6.12083 8.55288 6.05497 8.56919C6.01118 8.58004 5.96292 8.58699 5.91895 8.58035C5.76043 8.55648 5.76934 8.61036 5.81753 8.73678C5.86029 8.84897 5.90407 8.84021 5.98383 8.79517C6.02112 8.77412 6.06039 8.77886 6.07785 8.82261C6.09443 8.86415 6.06855 8.91275 6.03687 8.91788C5.918 8.93715 5.82094 9.08038 5.67973 8.97968C5.63723 8.94941 5.56582 8.9724 5.55854 9.0062C5.5297 9.14037 5.41664 9.17569 5.32338 9.23727C5.30577 9.24888 5.29291 9.27267 5.28521 9.29354C5.21657 9.47862 5.11849 9.63702 4.95588 9.76143C4.87324 9.82464 4.86789 9.93456 4.95269 10.0254C4.99431 10.07 5.00607 10.1316 4.95 10.1636C4.89445 10.1954 4.88663 10.1157 4.85328 10.091C4.81773 10.0647 4.78768 10.0266 4.76514 9.98783C4.69871 9.8737 4.59668 9.86141 4.48802 9.89624C4.42151 9.91756 4.35727 9.93369 4.28795 9.93372C4.15151 9.9338 4.02972 9.92705 4.06137 10.1406C4.07317 10.2202 3.95926 10.3097 4.06345 10.4114C4.13934 10.4854 4.2079 10.5205 4.30362 10.4608C4.33591 10.4406 4.36611 10.417 4.39878 10.3974C4.44636 10.369 4.50555 10.3471 4.55093 10.3752C4.62055 10.4184 4.55237 10.4727 4.53397 10.5101C4.47478 10.6308 4.48643 10.6934 4.63793 10.6921C4.71874 10.6915 4.76385 10.7455 4.76571 10.8249C4.76746 10.8994 4.73589 10.993 4.83109 11.0217C4.93038 11.0517 5.05642 11.0619 5.1339 11C5.30069 10.8667 5.46501 10.8949 5.64433 10.9511C5.69255 10.9662 5.74263 10.9733 5.79306 10.9766C6.08392 10.9958 6.24399 11.2705 6.51103 11.3354C6.60209 11.6505 6.92751 11.6018 7.13702 11.7327C7.19132 11.7666 7.26105 11.784 7.31979 11.8203C7.43304 11.8902 7.46427 11.98 7.37833 12.0855C7.2924 12.1909 7.27016 12.3144 7.23359 12.4393C7.17345 12.6445 7.13642 12.8816 6.84138 12.9002C6.76186 12.9053 6.72054 12.9801 6.69702 13.06C6.60262 13.3805 6.56851 13.4143 6.22221 13.5481C6.19535 13.5585 6.18757 13.5691 6.19638 13.5938C6.25078 13.7461 6.14648 13.7875 6.03611 13.7978C5.93295 13.8075 5.92767 13.8933 5.88674 13.9492C5.81313 14.0496 5.79598 14.1864 5.68625 14.2661C5.67942 14.2711 5.68709 14.3152 5.70018 14.3253C5.77113 14.3797 5.73967 14.4148 5.69456 14.4715C5.54492 14.6597 5.54761 14.67 5.682 14.8658C5.70348 14.8971 5.74499 14.9203 5.67756 14.943C5.49529 15.0044 5.32418 14.9196 5.25512 14.7381C5.20124 14.5966 5.19806 14.4419 5.2357 14.3096C5.31427 14.0334 5.30281 13.7462 5.36959 13.4661C5.4207 13.2516 5.46194 13.013 5.46536 12.7795C5.46752 12.6334 5.40924 12.5209 5.29352 12.4525C5.16543 12.3767 5.09364 12.2704 5.04538 12.1378C5.03256 12.1026 5.00953 12.0712 4.99332 12.037C4.95056 11.9469 4.78066 11.9171 4.87817 11.7576C4.93091 11.6713 4.90773 11.5457 5.0049 11.4744C5.06746 11.4285 5.07065 11.3617 5.07425 11.2907C5.07812 11.2149 5.05984 11.1836 4.9764 11.1755C4.82551 11.1609 4.66733 11.1446 4.63015 10.9474C4.62207 10.9046 4.57077 10.8999 4.53681 10.893C4.36152 10.8574 4.22326 10.741 4.02065 10.7336C3.84965 10.7274 3.61919 10.6407 3.53242 10.4129C3.4941 10.3123 3.45123 10.2392 3.29267 10.2713C3.16298 10.2975 3.07883 10.1344 3.03482 10.0162C2.96618 9.83204 2.86833 9.69059 2.70985 9.56376C2.53854 9.42667 2.49149 9.20145 2.49582 8.98257C2.49878 8.833 2.51012 8.69144 2.34925 8.61006C2.31499 8.59272 2.30095 8.56483 2.29621 8.52006C2.27735 8.34249 2.26278 8.33255 2.07421 8.31756C2.01354 8.31275 2.01593 8.26122 1.99362 8.22366C1.85647 7.9929 1.68228 7.82205 1.39123 7.79059C1.28575 7.77917 1.22098 7.83358 1.13679 7.84986C1.04744 7.86712 0.941088 7.82546 0.999821 7.99153C1.01716 8.04063 0.940253 8.11496 0.877346 8.09462C0.762345 8.0574 0.707557 8.11902 0.648596 8.19209C0.634558 8.20951 0.616649 8.23633 0.599689 8.23698C0.391314 8.24491 0.219059 8.38309 0.013302 8.39815L-5.34058e-05 8.35858ZM4.3317 6.65515C4.29433 6.66145 4.25699 6.66881 4.23108 6.69989C4.20152 6.73532 4.21264 6.77251 4.23734 6.80218C4.31732 6.89821 4.37677 7.01719 4.51826 7.0458C4.54573 7.05134 4.51112 7.13493 4.57035 7.12032C4.59926 7.11322 4.62905 7.07035 4.63952 7.03761C4.65303 6.99538 4.61459 6.96593 4.57877 6.95709C4.45603 6.92682 4.4127 6.83989 4.39954 6.72622C4.39502 6.6874 4.38319 6.65128 4.3317 6.65515Z" fill="white"/>
<path d="M17.0821 12.3022C17.0801 12.1903 17.0843 12.0944 16.9641 12.0654C16.9494 12.0619 16.9227 12.0539 16.9231 12.0505C16.9497 11.819 16.7457 11.8563 16.6273 11.7936C16.6011 11.7797 16.5791 11.7561 16.5585 11.7339C16.5217 11.6942 16.4788 11.6454 16.5214 11.5944C16.5712 11.5345 16.6508 11.5544 16.6775 11.6083C16.7333 11.721 16.8025 11.6875 16.8983 11.679C17.1103 11.6603 17.2804 11.7738 17.396 11.9411C17.4409 12.0061 17.567 12.0789 17.5279 12.122C17.4656 12.1907 17.3855 12.0858 17.3148 12.0501C17.2579 12.0214 17.2083 12.0357 17.1708 12.0792C17.1288 12.1279 17.1567 12.1761 17.1805 12.2266C17.2963 12.473 17.4666 12.6823 17.6293 12.8968C17.7807 13.0966 17.7892 13.2069 17.6677 13.4245C17.6453 13.4647 17.6223 13.5046 17.6032 13.5465C17.4567 13.8681 17.2137 13.9078 16.9646 13.6718C16.8467 13.5601 16.7047 13.4726 16.5682 13.3825C16.483 13.3263 16.3958 13.3532 16.3098 13.4011C16.1701 13.4788 16.0237 13.5341 15.8601 13.5503C15.6812 13.568 15.6792 13.5781 15.654 13.3971C15.6324 13.2415 15.5393 13.1058 15.5609 12.9343C15.5781 12.7973 15.6296 12.7293 15.7563 12.6934C15.8609 12.6637 15.959 12.6446 16.0097 12.5025C16.0378 12.4237 16.1861 12.3446 16.3095 12.3504C16.3813 12.3538 16.4216 12.3427 16.4576 12.2815C16.514 12.1856 16.611 12.1963 16.7029 12.2032C16.7627 12.2076 16.8128 12.235 16.7981 12.3028C16.7649 12.4556 16.8633 12.5067 16.9756 12.5005C17.1047 12.4934 17.0699 12.3685 17.0821 12.3022ZM10.1409 5.81054C10.0674 5.82867 9.96739 5.75021 9.92072 5.86293C9.8728 5.97869 10.0061 6.0089 10.0385 6.08808C10.0566 6.13217 10.0954 6.15702 10.1313 6.18551C10.1959 6.23689 10.2644 6.24478 10.3062 6.17117C10.3706 6.05773 10.4404 6.05575 10.5344 6.12887C10.5587 6.1478 10.5928 6.1437 10.6185 6.12242C10.6378 6.10652 10.6483 6.07734 10.6291 6.063C10.4268 5.91199 10.6078 5.9376 10.6947 5.91397C10.7299 5.90437 10.762 5.88058 10.7933 5.85986C10.8109 5.84821 10.8354 5.83015 10.8362 5.81403C10.8374 5.78982 10.8072 5.78641 10.7861 5.785C10.6802 5.77802 10.5808 5.72631 10.4607 5.74353C10.3523 5.72077 10.2506 5.78345 10.1409 5.81054ZM3.41526 6.21219C3.37978 6.1725 3.32507 6.16309 3.30325 6.21655C3.21819 6.42492 3.11461 6.26701 3.05003 6.21757C2.87782 6.0858 2.80368 6.07871 2.65749 6.22023C2.59413 6.28158 2.59014 6.32005 2.685 6.33903C2.81142 6.36429 2.93025 6.40064 3.04461 6.46863C3.18313 6.55101 3.46196 6.47497 3.57291 6.34707C3.59191 6.32688 3.59404 6.30674 3.57283 6.28659C3.50594 6.29213 3.45844 6.26049 3.41526 6.21219ZM15.3017 11.4939C15.2935 11.4998 15.2921 11.5234 15.2958 11.5365C15.3251 11.6397 15.3562 11.7433 15.4795 11.7731C15.5861 11.7989 15.6641 11.77 15.7319 11.6738C15.8167 11.5533 15.7781 11.4103 15.8267 11.2839C15.8447 11.2372 15.7848 11.2125 15.7061 11.2119C15.5838 11.2967 15.442 11.3943 15.3017 11.4939ZM12.0356 12.2584C11.9406 12.3252 11.809 12.3774 11.7602 12.4789C11.704 12.5959 11.6837 12.7374 11.6918 12.8743C11.6947 12.9224 11.72 12.9608 11.7721 12.9701C11.8352 12.9813 11.9101 12.9772 11.9281 12.9125C11.9781 12.7334 12.0749 12.5691 12.0996 12.3938C12.0783 12.3342 12.0982 12.2144 12.0356 12.2584ZM12.5086 6.88573C12.3515 6.71135 12.3518 6.67496 12.53 6.5271C12.6351 6.43987 12.7497 6.36729 12.8864 6.33504C12.9447 6.32127 13.0017 6.29903 13.0564 6.27422C13.071 6.26762 13.0828 6.23692 13.0819 6.21803C13.08 6.18225 13.0503 6.1637 13.018 6.17163C12.7237 6.2436 12.4292 6.31596 12.2385 6.58455C12.1623 6.69192 12.1885 6.80867 12.3051 6.86675C12.3691 6.89859 12.4383 6.88808 12.506 6.88887L12.5086 6.88573ZM18.7063 14.2413C18.7612 14.1088 18.8612 14.0258 18.9724 13.9432C19.1073 13.843 19.0976 13.7706 18.9584 13.6603C18.929 13.6371 18.8995 13.5988 18.8615 13.6162C18.8155 13.6372 18.8448 13.6812 18.8508 13.7161C18.8683 13.8171 18.8548 13.8862 18.7439 13.9448C18.6497 13.9946 18.5827 14.1007 18.5119 14.1885C18.4563 14.2577 18.4863 14.3309 18.573 14.3359C18.6325 14.3367 18.6836 14.2961 18.7063 14.2413ZM17.0805 9.2112C17.0499 9.1936 17.0178 9.19978 17.0018 9.22858C16.9048 9.40334 16.7429 9.48871 16.5667 9.56064C16.4946 9.59005 16.4444 9.65068 16.4482 9.73802C16.4496 9.77179 16.4684 9.80157 16.5037 9.78587C16.6648 9.71431 16.831 9.65 16.9811 9.55943C17.0715 9.50495 17.102 9.39021 17.1229 9.3012C17.1254 9.25081 17.1082 9.2271 17.0805 9.2112ZM14.6246 5.68753C14.5154 5.61624 14.4481 5.68412 14.4072 5.76854C14.3647 5.85633 14.3957 5.93381 14.4987 5.96333C14.5791 5.98636 14.6606 6.00434 14.7417 6.02483C14.7889 5.98742 14.8161 5.93571 14.8414 5.8827C14.7913 5.79297 14.7071 5.74137 14.6246 5.68753ZM16.8633 6.33333C16.8184 6.41221 16.9144 6.42424 16.9484 6.46598C16.9626 6.48351 16.9787 6.49982 16.9909 6.51868C17.0251 6.57161 17.0662 6.62708 17.1344 6.60477C17.2187 6.57718 17.1144 6.51458 17.1473 6.47171C17.1654 6.44811 17.1807 6.42216 17.2 6.39958C17.2455 6.34612 17.2154 6.31687 17.1653 6.30309C17.1223 6.29126 17.076 6.29111 17.0461 6.28758C16.9717 6.29395 16.8963 6.27547 16.8633 6.33333ZM16.0066 10.9562C16.0804 11.02 16.1475 10.9693 16.1848 10.9242C16.2252 10.8754 16.1806 10.8188 16.1216 10.8071C16.0146 10.7859 16.0082 10.7336 16.0453 10.6441C16.061 10.6061 16.016 10.5735 15.98 10.5638C15.9319 10.5507 15.9147 10.5942 15.9027 10.6292C15.8931 10.6573 15.8942 10.6892 15.8905 10.7194C15.883 10.8214 15.9337 10.8932 16.0066 10.9562ZM15.827 11.6918C15.8326 11.7595 15.8422 11.8564 15.9157 11.8732C15.9554 11.8823 16.0569 11.8465 16.0502 11.7573C16.0454 11.6919 16.03 11.6197 15.9385 11.6101C15.884 11.6127 15.822 11.6313 15.827 11.6918Z" fill="white"/>
</svg>
