<svg width="20" height="21" viewBox="0 0 20 21" fill="none" xmlns="http://www.w3.org/2000/svg">
<path d="M6.25 13.05C6.58152 13.05 6.89946 12.9184 7.13388 12.6839C7.3683 12.4495 7.5 12.1316 7.5 11.8C7.5 11.4685 7.3683 11.1506 7.13388 10.9162C6.89946 10.6817 6.58152 10.55 6.25 10.55C5.91848 10.55 5.60054 10.6817 5.36612 10.9162C5.1317 11.1506 5 11.4685 5 11.8C5 12.1316 5.1317 12.4495 5.36612 12.6839C5.60054 12.9184 5.91848 13.05 6.25 13.05ZM6.25 16.55C6.58152 16.55 6.89946 16.4184 7.13388 16.1839C7.3683 15.9495 7.5 15.6316 7.5 15.3C7.5 14.9685 7.3683 14.6506 7.13388 14.4162C6.89946 14.1817 6.58152 14.05 6.25 14.05C5.91848 14.05 5.60054 14.1817 5.36612 14.4162C5.1317 14.6506 5 14.9685 5 15.3C5 15.6316 5.1317 15.9495 5.36612 16.1839C5.60054 16.4184 5.91848 16.55 6.25 16.55ZM11 11.8C11 12.1316 10.8683 12.4495 10.6339 12.6839C10.3995 12.9184 10.0815 13.05 9.75 13.05C9.41848 13.05 9.10054 12.9184 8.86612 12.6839C8.6317 12.4495 8.5 12.1316 8.5 11.8C8.5 11.4685 8.6317 11.1506 8.86612 10.9162C9.10054 10.6817 9.41848 10.55 9.75 10.55C10.0815 10.55 10.3995 10.6817 10.6339 10.9162C10.8683 11.1506 11 11.4685 11 11.8ZM9.75 16.55C10.0815 16.55 10.3995 16.4184 10.6339 16.1839C10.8683 15.9495 11 15.6316 11 15.3C11 14.9685 10.8683 14.6506 10.6339 14.4162C10.3995 14.1817 10.0815 14.05 9.75 14.05C9.41848 14.05 9.10054 14.1817 8.86612 14.4162C8.6317 14.6506 8.5 14.9685 8.5 15.3C8.5 15.6316 8.6317 15.9495 8.86612 16.1839C9.10054 16.4184 9.41848 16.55 9.75 16.55ZM14.5 11.8C14.5 12.1316 14.3683 12.4495 14.1339 12.6839C13.8995 12.9184 13.5815 13.05 13.25 13.05C12.9185 13.05 12.6005 12.9184 12.3661 12.6839C12.1317 12.4495 12 12.1316 12 11.8C12 11.4685 12.1317 11.1506 12.3661 10.9162C12.6005 10.6817 12.9185 10.55 13.25 10.55C13.5815 10.55 13.8995 10.6817 14.1339 10.9162C14.3683 11.1506 14.5 11.4685 14.5 11.8Z" fill="white"/>
<path fill-rule="evenodd" clip-rule="evenodd" d="M5.75 2.30005C5.94891 2.30005 6.13968 2.37907 6.28033 2.51972C6.42098 2.66037 6.5 2.85114 6.5 3.05005V3.80005H13V3.05005C13 2.85114 13.079 2.66037 13.2197 2.51972C13.3603 2.37907 13.5511 2.30005 13.75 2.30005C13.9489 2.30005 14.1397 2.37907 14.2803 2.51972C14.421 2.66037 14.5 2.85114 14.5 3.05005V3.80805C14.652 3.81205 14.7937 3.81938 14.925 3.83005C15.305 3.86005 15.661 3.92805 15.998 4.10005C16.5156 4.36372 16.9363 4.78449 17.2 5.30205C17.372 5.63905 17.44 5.99505 17.47 6.37505C17.5 6.74005 17.5 7.18505 17.5 7.72005V15.38C17.5 15.915 17.5 16.36 17.47 16.725C17.44 17.105 17.372 17.461 17.2 17.798C16.9366 18.3154 16.5162 18.7362 15.999 19C15.661 19.172 15.305 19.24 14.925 19.27C14.56 19.3 14.115 19.3 13.581 19.3H5.92C5.385 19.3 4.94 19.3 4.575 19.27C4.195 19.24 3.839 19.172 3.502 19C2.98475 18.7369 2.56401 18.3169 2.3 17.8C2.128 17.462 2.06 17.106 2.03 16.726C2 16.361 2 15.916 2 15.382V7.72005C2 7.18505 2 6.74005 2.03 6.37505C2.06 5.99505 2.128 5.63905 2.3 5.30205C2.56367 4.78449 2.98445 4.36372 3.502 4.10005C3.839 3.92805 4.195 3.86005 4.575 3.83005C4.70633 3.81938 4.848 3.81205 5 3.80805V3.05005C5 2.95156 5.0194 2.85403 5.05709 2.76304C5.09478 2.67204 5.15003 2.58936 5.21967 2.51972C5.28931 2.45007 5.37199 2.39483 5.46299 2.35714C5.55398 2.31945 5.65151 2.30005 5.75 2.30005ZM5 5.55005V5.30805C4.89887 5.31116 4.79784 5.31683 4.697 5.32505C4.41 5.34805 4.273 5.39005 4.183 5.43605C3.94741 5.55596 3.75591 5.74746 3.636 5.98305C3.59 6.07305 3.548 6.21005 3.525 6.49705C3.501 6.79305 3.5 7.17705 3.5 7.75005V8.30005H16V7.75005C16 7.17805 16 6.79305 15.975 6.49705C15.952 6.21005 15.91 6.07305 15.864 5.98305C15.7441 5.74746 15.5526 5.55596 15.317 5.43605C15.227 5.39005 15.09 5.34805 14.802 5.32505C14.7015 5.31685 14.6008 5.31118 14.5 5.30805V5.55005C14.5 5.74896 14.421 5.93973 14.2803 6.08038C14.1397 6.22103 13.9489 6.30005 13.75 6.30005C13.5511 6.30005 13.3603 6.22103 13.2197 6.08038C13.079 5.93973 13 5.74896 13 5.55005V5.30005H6.5V5.55005C6.5 5.74896 6.42098 5.93973 6.28033 6.08038C6.13968 6.22103 5.94891 6.30005 5.75 6.30005C5.55109 6.30005 5.36032 6.22103 5.21967 6.08038C5.07902 5.93973 5 5.74896 5 5.55005ZM16 9.30005H3.5V15.35C3.5 15.922 3.5 16.307 3.525 16.602C3.548 16.89 3.59 17.027 3.636 17.117C3.756 17.353 3.947 17.544 4.183 17.664C4.273 17.71 4.41 17.752 4.697 17.775C4.993 17.799 5.377 17.8 5.95 17.8H13.55C14.122 17.8 14.507 17.8 14.802 17.775C15.09 17.752 15.227 17.71 15.317 17.664C15.5526 17.5441 15.7441 17.3526 15.864 17.117C15.91 17.027 15.952 16.89 15.975 16.602C15.999 16.307 16 15.922 16 15.35V9.30005Z" fill="white"/>
<path fill-rule="evenodd" clip-rule="evenodd" d="M7.5 6.80005C7.5 6.60114 7.57902 6.41037 7.71967 6.26972C7.86032 6.12907 8.05109 6.05005 8.25 6.05005H11.25C11.4489 6.05005 11.6397 6.12907 11.7803 6.26972C11.921 6.41037 12 6.60114 12 6.80005C12 6.99896 11.921 7.18973 11.7803 7.33038C11.6397 7.47103 11.4489 7.55005 11.25 7.55005H8.25C8.05109 7.55005 7.86032 7.47103 7.71967 7.33038C7.57902 7.18973 7.5 6.99896 7.5 6.80005Z" fill="white"/>
</svg>
