<svg width="20" height="21" viewBox="0 0 20 21" fill="none" xmlns="http://www.w3.org/2000/svg">
<g clip-path="url(#clip0_1_127)">
<path d="M5.25537 18.9446C4.70537 18.9446 4.23471 18.749 3.84337 18.3576C3.45204 17.9663 3.25604 17.4953 3.25537 16.9446V3.94464C2.97204 3.94464 2.73471 3.84864 2.54337 3.65664C2.35204 3.46464 2.25604 3.22731 2.25537 2.94464C2.25471 2.66197 2.35071 2.42464 2.54337 2.23264C2.73604 2.04064 2.97337 1.94464 3.25537 1.94464H7.25537C7.25537 1.66131 7.35137 1.42397 7.54337 1.23264C7.73537 1.04131 7.97271 0.945308 8.25537 0.944641H12.2554C12.5387 0.944641 12.7764 1.04064 12.9684 1.23264C13.1604 1.42464 13.256 1.66197 13.2554 1.94464H17.2554C17.5387 1.94464 17.7764 2.04064 17.9684 2.23264C18.1604 2.42464 18.256 2.66197 18.2554 2.94464C18.2547 3.22731 18.1587 3.46497 17.9674 3.65764C17.776 3.85031 17.5387 3.94597 17.2554 3.94464V16.9446C17.2554 17.4946 17.0597 17.9656 16.6684 18.3576C16.277 18.7496 15.806 18.9453 15.2554 18.9446H5.25537ZM15.2554 3.94464H5.25537V16.9446H15.2554V3.94464ZM8.25537 14.9446C8.53871 14.9446 8.77637 14.8486 8.96837 14.6566C9.16037 14.4646 9.25604 14.2273 9.25537 13.9446V6.94464C9.25537 6.66131 9.15937 6.42397 8.96737 6.23264C8.77537 6.04131 8.53804 5.94531 8.25537 5.94464C7.97271 5.94397 7.73537 6.03997 7.54337 6.23264C7.35137 6.42531 7.25537 6.66264 7.25537 6.94464V13.9446C7.25537 14.228 7.35137 14.4656 7.54337 14.6576C7.73537 14.8496 7.97271 14.9453 8.25537 14.9446ZM12.2554 14.9446C12.5387 14.9446 12.7764 14.8486 12.9684 14.6566C13.1604 14.4646 13.256 14.2273 13.2554 13.9446V6.94464C13.2554 6.66131 13.1594 6.42397 12.9674 6.23264C12.7754 6.04131 12.538 5.94531 12.2554 5.94464C11.9727 5.94397 11.7354 6.03997 11.5434 6.23264C11.3514 6.42531 11.2554 6.66264 11.2554 6.94464V13.9446C11.2554 14.228 11.3514 14.4656 11.5434 14.6576C11.7354 14.8496 11.9727 14.9453 12.2554 14.9446Z" fill="white"/>
</g>
<defs>
<clipPath id="clip0_1_127">
<rect width="20" height="20" fill="white" transform="translate(0 0.300049)"/>
</clipPath>
</defs>
</svg>
