<svg width="20" height="21" viewBox="0 0 20 21" fill="none" xmlns="http://www.w3.org/2000/svg">
<path fill-rule="evenodd" clip-rule="evenodd" d="M13.256 4.82801C13.2564 5.42436 13.0642 6.00614 12.706 6.49315C12.3479 6.98016 11.8414 7.34844 11.2563 7.54722V9.63227H14.2559C15.0515 9.63227 15.8145 9.93597 16.377 10.4766C16.9396 11.0171 17.2556 11.7503 17.2556 12.5148V13.639C17.923 13.8657 18.4856 14.3118 18.8438 14.8985C19.202 15.4852 19.3329 16.1747 19.2132 16.8452C19.0935 17.5156 18.7311 18.1238 18.1899 18.5623C17.6487 19.0008 16.9636 19.2413 16.2557 19.2413C15.5478 19.2413 14.8627 19.0008 14.3216 18.5623C13.7804 18.1238 13.4179 17.5156 13.2982 16.8452C13.1786 16.1747 13.3094 15.4852 13.6676 14.8985C14.0259 14.3118 14.5884 13.8657 15.2558 13.639V12.5148C15.2558 12.26 15.1505 12.0156 14.963 11.8354C14.7754 11.6552 14.5211 11.554 14.2559 11.554H6.25682C5.99164 11.554 5.73731 11.6552 5.5498 11.8354C5.36228 12.0156 5.25694 12.26 5.25694 12.5148V13.639C5.92435 13.8657 6.48689 14.3118 6.84512 14.8985C7.20334 15.4852 7.33419 16.1747 7.21453 16.8452C7.09487 17.5156 6.7324 18.1238 6.1912 18.5623C5.65001 19.0008 4.96492 19.2413 4.25705 19.2413C3.54917 19.2413 2.86409 19.0008 2.32289 18.5623C1.78169 18.1238 1.41923 17.5156 1.29957 16.8452C1.17991 16.1747 1.31075 15.4852 1.66898 14.8985C2.0272 14.3118 2.58974 13.8657 3.25716 13.639V12.5148C3.25716 11.7503 3.5732 11.0171 4.13574 10.4766C4.69829 9.93597 5.46126 9.63227 6.25682 9.63227H9.25649V7.54722C8.7377 7.37123 8.27924 7.06155 7.93124 6.65206C7.58325 6.24257 7.3591 5.74902 7.28332 5.22536C7.20753 4.70171 7.28302 4.16811 7.50153 3.68291C7.72005 3.1977 8.07317 2.77957 8.5223 2.47421C8.97143 2.16886 9.49928 1.98804 10.0481 1.95153C10.597 1.91501 11.1457 2.02421 11.6344 2.26717C12.123 2.51014 12.5327 2.87753 12.8187 3.32917C13.1047 3.78081 13.256 4.29932 13.256 4.82801ZM10.2564 3.86716C9.99119 3.86716 9.73687 3.96839 9.54935 4.14858C9.36183 4.32878 9.25649 4.57317 9.25649 4.82801C9.25649 5.08284 9.36183 5.32724 9.54935 5.50743C9.73687 5.68763 9.99119 5.78886 10.2564 5.78886C10.5216 5.78886 10.7759 5.68763 10.9634 5.50743C11.1509 5.32724 11.2563 5.08284 11.2563 4.82801C11.2563 4.57317 11.1509 4.32878 10.9634 4.14858C10.7759 3.96839 10.5216 3.86716 10.2564 3.86716ZM4.25705 15.3974C3.99186 15.3974 3.73754 15.4986 3.55002 15.6788C3.36251 15.859 3.25716 16.1034 3.25716 16.3582C3.25716 16.6131 3.36251 16.8575 3.55002 17.0377C3.73754 17.2179 3.99186 17.3191 4.25705 17.3191C4.52224 17.3191 4.77656 17.2179 4.96408 17.0377C5.15159 16.8575 5.25694 16.6131 5.25694 16.3582C5.25694 16.1034 5.15159 15.859 4.96408 15.6788C4.77656 15.4986 4.52224 15.3974 4.25705 15.3974ZM16.2557 15.3974C15.9905 15.3974 15.7362 15.4986 15.5487 15.6788C15.3612 15.859 15.2558 16.1034 15.2558 16.3582C15.2558 16.6131 15.3612 16.8575 15.5487 17.0377C15.7362 17.2179 15.9905 17.3191 16.2557 17.3191C16.5209 17.3191 16.7752 17.2179 16.9627 17.0377C17.1502 16.8575 17.2556 16.6131 17.2556 16.3582C17.2556 16.1034 17.1502 15.859 16.9627 15.6788C16.7752 15.4986 16.5209 15.3974 16.2557 15.3974Z" fill="white"/>
</svg>
