<svg width="20" height="21" viewBox="0 0 20 21" fill="none" xmlns="http://www.w3.org/2000/svg">
<path fill-rule="evenodd" clip-rule="evenodd" d="M5.65629 4.53466V3.36466C5.65643 2.94569 5.80688 2.54067 6.0803 2.2232C6.35372 1.90574 6.73196 1.69691 7.14629 1.63466L8.36629 1.45166C9.71878 1.24951 11.0938 1.24951 12.4463 1.45166L13.6663 1.63466C14.0806 1.69691 14.4589 1.90574 14.7323 2.2232C15.0057 2.54067 15.1562 2.94569 15.1563 3.36466V4.53466L16.8703 4.67266C17.508 4.72418 18.11 4.98803 18.5801 5.42203C19.0501 5.85602 19.3611 6.4351 19.4633 7.06666C19.929 9.93924 19.929 12.8681 19.4633 15.7407C19.3611 16.3722 19.0501 16.9513 18.5801 17.3853C18.11 17.8193 17.508 18.0831 16.8703 18.1347L14.9983 18.2847C11.9419 18.5317 8.87064 18.5317 5.81429 18.2847L3.94229 18.1347C3.30459 18.0831 2.70258 17.8193 2.23251 17.3853C1.76244 16.9513 1.45146 16.3722 1.34929 15.7407C0.88357 12.8681 0.88357 9.93924 1.34929 7.06666C1.45166 6.43528 1.76273 5.85643 2.23278 5.42263C2.70283 4.98884 3.30473 4.72513 3.94229 4.67366L5.65629 4.53466ZM8.58929 2.93466C9.79394 2.75473 11.0186 2.75473 12.2233 2.93466L13.4433 3.11766C13.5025 3.12652 13.5565 3.15632 13.5956 3.20165C13.6347 3.24697 13.6562 3.30481 13.6563 3.36466V4.42966C11.4914 4.30603 9.32119 4.30603 7.15629 4.42966V3.36366C7.15635 3.30381 7.17788 3.24597 7.21696 3.20065C7.25605 3.15532 7.3101 3.12552 7.36929 3.11666L8.58929 2.93466ZM5.93529 6.01666C8.91129 5.77666 11.9013 5.77666 14.8773 6.01666L16.7493 6.16866C17.0526 6.19294 17.3391 6.31825 17.5628 6.52456C17.7865 6.73088 17.9346 7.00626 17.9833 7.30666C18.0453 7.69133 18.0986 8.07733 18.1433 8.46466C15.7362 9.64945 13.0892 10.2656 10.4063 10.2656C7.72342 10.2656 5.07638 9.64945 2.66929 8.46466C2.71329 8.078 2.76662 7.692 2.82929 7.30666C2.878 7.00626 3.02605 6.73088 3.24977 6.52456C3.47349 6.31825 3.75994 6.19294 4.06329 6.16866L5.93529 6.01666ZM2.53529 10.0607C5.00717 11.1843 7.691 11.7657 10.4063 11.7657C13.1216 11.7657 15.8054 11.1843 18.2773 10.0607C18.3731 11.8793 18.2745 13.703 17.9833 15.5007C17.9348 15.8012 17.7868 16.0769 17.5631 16.2834C17.3394 16.4899 17.0528 16.6153 16.7493 16.6397L14.8773 16.7897C11.9013 17.0297 8.91129 17.0297 5.93529 16.7897L4.06329 16.6397C3.75979 16.6153 3.47323 16.4899 3.2495 16.2834C3.02576 16.0769 2.87779 15.8012 2.82929 15.5007C2.53829 13.7007 2.43929 11.8767 2.53529 10.0607Z" fill="white"/>
</svg>
