<svg width="20" height="21" viewBox="0 0 20 21" fill="none" xmlns="http://www.w3.org/2000/svg">
<path fill-rule="evenodd" clip-rule="evenodd" d="M18.0137 0.300049C17.6417 0.300049 17.3332 0.608565 17.3332 0.980598V1.20745H5.99069V0.980598C5.99069 0.608565 5.68218 0.300049 5.31014 0.300049C4.93811 0.300049 4.6296 0.608565 4.6296 0.980598V2.7954C4.6296 3.16743 4.93811 3.47594 5.31014 3.47594C5.68218 3.47594 5.99069 3.16743 5.99069 2.7954V2.56855H17.3332V2.7954C17.3332 3.16743 17.6417 3.47594 18.0137 3.47594C18.3858 3.47594 18.6943 3.16743 18.6943 2.7954V0.980598C18.6943 0.608565 18.3858 0.300049 18.0137 0.300049ZM3.49535 6.19814C3.86738 6.19814 4.1759 5.88963 4.1759 5.51759C4.1759 5.14556 3.86738 4.83704 3.49535 4.83704H1.68055C1.30852 4.83704 1 5.14556 1 5.51759C1 5.88963 1.30852 6.19814 1.68055 6.19814H1.9074V17.5406H1.68055C1.30852 17.5406 1 17.8491 1 18.2212C1 18.5932 1.30852 18.9017 1.68055 18.9017H3.49535C3.86738 18.9017 4.1759 18.5932 4.1759 18.2212C4.1759 17.8491 3.86738 17.5406 3.49535 17.5406H3.2685V6.19814H3.49535ZM16.8495 5.84426L16.8532 5.83518H16.8314L16.835 5.82611L12.5975 4.17464C11.8171 3.8752 11.4632 3.8752 10.6829 4.17464L6.4453 5.82611C5.30198 6.27073 4.60328 6.54295 4.60328 7.32332V16.3973C4.60328 17.1777 5.2929 17.4499 6.4453 17.8945L10.6829 19.546C11.073 19.7002 11.3271 19.8 11.6356 19.8C11.9441 19.8 12.2073 19.7002 12.5884 19.546L16.8259 17.8945C17.9693 17.4499 18.668 17.1777 18.668 16.3973V7.33239C18.668 6.55747 17.9874 6.28344 16.8495 5.84426ZM16.8314 5.837L16.8259 5.83518H16.8314V5.837ZM16.8314 5.837L16.8495 5.84426L16.5991 6.47036L16.3541 7.10554C16.4672 7.15151 16.5791 7.19537 16.6898 7.23711L16.9348 7.33239C16.7624 7.40498 16.5537 7.48665 16.3541 7.55924L12.1165 9.2107C11.9078 9.29237 11.7082 9.36496 11.6538 9.36496C11.5993 9.36496 11.3997 9.29237 11.191 9.2107L10.0386 8.75701L15.0747 6.5974L16.345 7.09647L16.8314 5.837ZM11.2001 5.45407L6.96252 7.10554L6.97159 7.11461C6.77196 7.18721 6.56326 7.26887 6.39086 7.34146C6.4695 7.37353 6.55116 7.40528 6.63585 7.43674L8.24195 8.06738L13.278 5.90777L12.1256 5.45407C11.9169 5.37241 11.7173 5.29982 11.6628 5.29982C11.6084 5.29982 11.4088 5.37241 11.2001 5.45407ZM6.96252 16.6332L10.9823 18.203V10.5718C10.9408 10.5551 10.8988 10.54 10.8562 10.5264C10.8126 10.5119 10.7639 10.4938 10.7101 10.472L9.1675 9.87311V10.9529C9.1675 11.3249 8.85898 11.6335 8.48695 11.6335C8.11491 11.6335 7.8064 11.3249 7.8064 10.9529V9.34682L6.47252 8.8296C6.30012 8.76608 6.14586 8.70256 5.9916 8.63904V16.2249C6.18215 16.3247 6.57234 16.479 6.96252 16.6332ZM16.3632 16.6332C16.7443 16.488 17.1435 16.3338 17.3341 16.2249V8.63904C17.1798 8.70256 17.0256 8.76608 16.8532 8.8296L12.6156 10.4811C12.5566 10.5083 12.5049 10.5246 12.4541 10.5419C12.4178 10.554 12.3809 10.567 12.3434 10.5809V18.203L16.3632 16.6332Z" fill="white"/>
</svg>
