<svg width="20" height="21" viewBox="0 0 20 21" fill="none" xmlns="http://www.w3.org/2000/svg">
<path d="M5.71939 6.50171C5.86153 6.36906 6.04963 6.2968 6.24402 6.30016C6.43841 6.30352 6.62391 6.38223 6.76139 6.51971C6.89886 6.65719 6.97757 6.84268 6.98093 7.03707C6.98429 7.23146 6.91203 7.41956 6.77939 7.56171L4.55939 9.78171H15.4394L13.2194 7.56171C13.0867 7.41956 13.0145 7.23146 13.0178 7.03707C13.0212 6.84268 13.0999 6.65719 13.2374 6.51971C13.3749 6.38223 13.5604 6.30352 13.7547 6.30016C13.9491 6.2968 14.1372 6.36906 14.2794 6.50171L17.7794 10.0017C17.9198 10.1423 17.9987 10.333 17.9987 10.5317C17.9987 10.7305 17.9198 10.9211 17.7794 11.0617L14.2794 14.5617C14.1877 14.6604 14.0711 14.7326 13.9419 14.7706C13.8126 14.8086 13.6755 14.8111 13.545 14.7777C13.4145 14.7443 13.2954 14.6764 13.2002 14.581C13.1051 14.4856 13.0374 14.3663 13.0044 14.2357C12.9711 14.1053 12.9735 13.9684 13.0113 13.8392C13.0491 13.7101 13.121 13.5935 13.2194 13.5017L15.4394 11.2817H4.55939L6.77939 13.5017C6.87811 13.5934 6.95028 13.71 6.9883 13.8392C7.02631 13.9685 7.02876 14.1056 6.99539 14.2361C6.96201 14.3666 6.89405 14.4857 6.79867 14.5809C6.70328 14.676 6.584 14.7437 6.45339 14.7767C6.323 14.81 6.18606 14.8076 6.05692 14.7698C5.92778 14.732 5.81119 14.6601 5.71939 14.5617L2.21939 11.0617C2.07894 10.9211 2.00005 10.7305 2.00005 10.5317C2.00005 10.333 2.07894 10.1423 2.21939 10.0017L5.71939 6.50171Z" fill="white"/>
</svg>
