<svg width="20" height="21" viewBox="0 0 20 21" fill="none" xmlns="http://www.w3.org/2000/svg">
<path d="M2.58704 15.2017C2.52754 15.5558 1.44375 15.3793 1.1511 15.4241C0.51897 15.5217 0.487266 16.5006 1.10964 16.6791L9.93017 16.6869L10.0775 16.7347L10.0921 17.2917L9.977 17.3717L1.34181 17.3732C0.589206 17.3142 0.0438978 16.8606 0 16.0811L0.0073163 2.23333C0.109745 1.60607 0.612618 1.14466 1.24621 1.08174C1.47058 1.0593 2.58704 1.00858 2.58704 1.30074V3.03227H14.0005C13.9702 3.24883 14.0766 3.54636 13.9273 3.71512H2.58704V15.2017ZM1.95296 1.76411H1.0994C0.951607 1.76411 0.63603 2.17821 0.63603 2.32502V14.9334C0.780405 14.8603 1.09745 14.7383 1.24572 14.7383H1.95296V1.76411Z" fill="white"/>
<path d="M11.074 6.30021V6.93429H8.19621L10.2692 9.56816H14.5858L14.0502 8.86092L14.6053 8.4912L15.6101 9.78765V12.1533H14.976V10.2022H10.3911V13.397L10.4643 13.4702H13.3176V14.1043H4.75755C4.68487 14.1043 4.51269 13.7882 4.53806 13.6897L4.56098 9.81057C5.27895 8.8536 6.01839 7.8859 6.7827 6.95966C6.8744 6.84894 7.30752 6.30021 7.39141 6.30021H11.074ZM9.36682 9.56816L7.44068 7.17768L5.56234 9.56816H9.36682ZM9.75702 10.2022H5.22091V13.4702H6.12326L6.19642 13.397V11.0558C6.19642 10.91 6.49151 10.8441 6.60857 10.8339C6.99829 10.7988 8.09866 10.7817 8.46155 10.8392C8.54398 10.8524 8.78151 10.9978 8.78151 11.0558V13.397L8.85467 13.4702H9.75702V10.2022ZM8.14743 11.5192H6.8305V13.4702H8.07427L8.14743 13.397V11.5192Z" fill="white"/>
<path d="M19.4004 9.29063C19.4258 9.31111 19.4916 9.42525 19.4989 9.45842L19.515 19.5949C19.5355 19.7544 19.4233 19.8417 19.316 19.9324L9.01319 19.9446C8.72444 19.8495 8.70981 19.5417 8.92686 19.3471L18.9258 9.34818C19.0414 9.22039 19.2585 9.17601 19.4004 9.29063ZM18.878 19.3232V10.3486L9.90334 19.3232H18.878Z" fill="white"/>
<path d="M17.7932 0.457415C17.9396 0.420834 18.0093 0.466682 18.122 0.544723C18.2995 0.668612 19.2897 1.65924 19.4145 1.83727C19.575 2.06651 19.5316 2.13675 19.3858 2.34502L13.5864 8.15416C13.4527 8.24732 12.504 8.57753 12.3572 8.579C12.2358 8.58046 12.1192 8.47023 12.0246 8.40633L11.2934 9.12869L10.8311 8.6663L11.5534 7.93516C11.489 7.84054 11.3793 7.72397 11.3807 7.60251C11.3822 7.47375 11.7051 6.52312 11.7836 6.40069L17.5357 0.641298C17.6006 0.587645 17.7196 0.47595 17.7932 0.457415ZM17.8781 1.22855L14.4404 4.66624L15.293 5.51883L18.7307 2.08115L17.8781 1.22855ZM13.9761 5.13058L12.687 6.42898C12.6718 6.5158 13.3849 7.15232 13.4947 7.27231L14.8282 5.98317L13.9756 5.13058H13.9761ZM12.2699 7.03233C12.169 7.17768 12.048 7.43278 12.1441 7.59569C12.1768 7.6508 12.3977 7.85566 12.4655 7.86249C12.5284 7.86883 12.8723 7.75957 12.905 7.71714C12.9601 7.64544 12.9138 7.64105 12.8801 7.59276C12.8265 7.51569 12.3207 7.02111 12.2704 7.03282L12.2699 7.03233Z" fill="white"/>
<path d="M11.987 10.8471C12.1753 10.8051 13.1357 10.8071 13.3396 10.8392C13.5074 10.8661 13.64 10.9846 13.662 11.1509C13.6971 11.4192 13.6922 12.1976 13.6605 12.4713C13.6356 12.6873 13.5576 12.7634 13.3435 12.7883C13.1293 12.8132 12.0641 12.8185 11.9007 12.7659C11.7612 12.7205 11.7236 12.6064 11.7075 12.4713C11.6768 12.2093 11.6719 11.4085 11.7114 11.1563C11.7344 11.0109 11.8407 10.8792 11.987 10.8466V10.8471ZM13.025 11.5192H12.3421V12.1533H13.025V11.5192Z" fill="white"/>
<path d="M17.5611 5.32471H16.927V9.86081H17.5611V5.32471Z" fill="white"/>
<path d="M3.2699 14.1043H3.90447L3.90398 14.7388H4.53855V15.4212H3.53865C3.4928 15.4212 3.27039 15.2768 3.27039 15.2017V14.1043H3.2699Z" fill="white"/>
<path d="M4.53806 4.3492V4.98377L3.92544 5.02913L3.90447 5.66662H3.2699V4.51991C3.2699 4.49992 3.46402 4.3492 3.48939 4.3492H4.53806Z" fill="white"/>
<path d="M17.1582 14.113C17.3791 14.0672 17.5547 14.1886 17.562 14.4208C17.4884 15.4588 17.6567 16.6206 17.5635 17.6429C17.5377 17.9239 17.4743 17.9834 17.1977 18.0087C16.408 18.0809 14.8136 18.0799 14.0229 18.0087C13.6678 17.977 13.5478 17.7444 13.7571 17.4454L16.9753 14.2252C17.027 14.1774 17.088 14.1272 17.1582 14.1126V14.113ZM16.927 17.3722V15.2261L14.7809 17.3722H16.927Z" fill="white"/>
</svg>
