<svg width="20" height="21" viewBox="0 0 20 21" fill="none" xmlns="http://www.w3.org/2000/svg">
<g clip-path="url(#clip0_1_133)">
<path fill-rule="evenodd" clip-rule="evenodd" d="M10.8513 19.9538L10.8407 19.9556L10.7781 19.9865L10.7604 19.99L10.748 19.9865L10.6854 19.9547C10.676 19.9524 10.6689 19.9541 10.6642 19.96L10.6607 19.9688L10.6457 20.3466L10.6501 20.3643L10.6589 20.3758L10.7507 20.4411L10.7639 20.4446L10.7745 20.4411L10.8663 20.3758L10.8769 20.3617L10.8805 20.3466L10.8654 19.9697C10.8631 19.9603 10.8584 19.955 10.8513 19.9538ZM11.0844 19.8541L11.072 19.8559L10.9096 19.938L10.9008 19.9468L10.8981 19.9565L10.914 20.3361L10.9184 20.3466L10.9255 20.3537L11.1029 20.4349C11.1141 20.4379 11.1226 20.4355 11.1285 20.4279L11.132 20.4155L11.102 19.8735C11.0991 19.8623 11.0932 19.8559 11.0844 19.8541ZM10.4532 19.8559C10.4493 19.8535 10.4447 19.8527 10.4402 19.8537C10.4358 19.8547 10.4319 19.8574 10.4294 19.8612L10.4241 19.8735L10.3941 20.4155C10.3947 20.4261 10.3997 20.4332 10.4091 20.4367L10.4223 20.4349L10.5998 20.3528L10.6086 20.3458L10.6112 20.3361L10.6271 19.9565L10.6245 19.9459L10.6156 19.9371L10.4532 19.8559Z" fill="white"/>
<path fill-rule="evenodd" clip-rule="evenodd" d="M9.85299 1.97583C9.89149 2.14542 9.89622 2.32094 9.86688 2.49235C9.83755 2.66377 9.77474 2.82772 9.68203 2.97486C9.58932 3.12199 9.46854 3.24942 9.32657 3.34987C9.18461 3.45032 9.02425 3.52182 8.85465 3.56028C8.69164 3.59736 8.53099 3.64032 8.37269 3.68916C8.20652 3.74051 8.03187 3.75863 7.8587 3.74248C7.68553 3.72634 7.51723 3.67624 7.36342 3.59505C7.20961 3.51386 7.0733 3.40317 6.96226 3.26931C6.85123 3.13544 6.76765 2.98101 6.7163 2.81484C6.66495 2.64867 6.64683 2.47402 6.66298 2.30084C6.67912 2.12767 6.72922 1.95938 6.81041 1.80557C6.8916 1.65176 7.00229 1.51544 7.13615 1.40441C7.27002 1.29338 7.42445 1.2098 7.59062 1.15845C7.81306 1.0896 8.03874 1.02928 8.26765 0.977495C8.43724 0.938986 8.61276 0.934263 8.78417 0.963596C8.95559 0.99293 9.11954 1.05574 9.26668 1.14845C9.41381 1.24116 9.54124 1.36194 9.64169 1.50391C9.74214 1.64587 9.81364 1.80623 9.8521 1.97583M10.8001 1.97583C10.878 1.63347 11.0887 1.33606 11.3858 1.14901C11.6829 0.961957 12.0422 0.90058 12.3846 0.978377C16.513 1.91316 19.5954 5.60286 19.5954 10.0164C19.5954 15.1352 15.4458 19.2848 10.327 19.2848C5.91436 19.2848 2.22467 16.2024 1.28812 12.0748C1.2104 11.7323 1.27191 11.373 1.45914 11.0758C1.64636 10.7787 1.94396 10.5681 2.28646 10.4904C2.62895 10.4127 2.9883 10.4742 3.28544 10.6614C3.58259 10.8486 3.79318 11.1462 3.87091 11.4887C4.13438 12.642 4.70206 13.7036 5.5149 14.5631C6.32773 15.4226 7.35603 16.0486 8.49281 16.376C9.6296 16.7034 10.8333 16.7202 11.9788 16.4246C13.1243 16.1291 14.1696 15.532 15.0061 14.6955C15.8426 13.859 16.4397 12.8137 16.7352 11.6682C17.0308 10.5227 17.014 9.31897 16.6866 8.18219C16.3592 7.04541 15.7332 6.01711 14.8737 5.20427C14.0142 4.39144 12.9526 3.82375 11.7993 3.56028C11.457 3.4824 11.1596 3.27173 10.9725 2.9746C10.7855 2.67747 10.7241 2.31821 10.8019 1.97583M5.89583 3.29106C6.13437 3.54852 6.26093 3.89016 6.24769 4.2409C6.23445 4.59164 6.08249 4.92276 5.82521 5.16151C5.70339 5.275 5.58563 5.39277 5.47213 5.51459C5.35389 5.6421 5.2117 5.74507 5.05367 5.81763C4.89564 5.89018 4.72486 5.9309 4.55109 5.93746C4.37732 5.94402 4.20396 5.91629 4.04091 5.85584C3.87786 5.7954 3.72831 5.70344 3.6008 5.5852C3.47329 5.46697 3.37032 5.32477 3.29776 5.16674C3.2252 5.00871 3.18448 4.83793 3.17793 4.66416C3.17137 4.4904 3.1991 4.31704 3.25954 4.15398C3.31998 3.99093 3.41195 3.84138 3.53018 3.71387C3.68907 3.54322 3.85384 3.37845 4.0245 3.21956C4.152 3.10131 4.30155 3.00933 4.4646 2.94888C4.62765 2.88843 4.80102 2.8607 4.97479 2.86725C5.14856 2.87381 5.31934 2.91454 5.47738 2.9871C5.63541 3.05967 5.7776 3.16354 5.89583 3.29106ZM10.327 4.2788C10.6782 4.2788 11.0149 4.4183 11.2632 4.66661C11.5116 4.91492 11.6511 5.2517 11.6511 5.60286V9.46821L13.9108 11.7279C14.0373 11.85 14.1382 11.9961 14.2077 12.1576C14.2772 12.3191 14.3138 12.4928 14.3154 12.6686C14.317 12.8444 14.2836 13.0188 14.2171 13.1815C14.1506 13.3443 14.0523 13.4922 13.9281 13.6165C13.8038 13.7409 13.656 13.8393 13.4933 13.906C13.3306 13.9726 13.1563 14.0062 12.9805 14.0047C12.8047 14.0033 12.6309 13.9669 12.4694 13.8975C12.3078 13.8282 12.1616 13.7274 12.0394 13.601L9.39133 10.9529C9.26824 10.83 9.17058 10.684 9.10394 10.5233C9.0373 10.3626 9.00298 10.1903 9.00294 10.0164V5.60286C9.00294 5.2517 9.14244 4.91492 9.39075 4.66661C9.63906 4.4183 9.97584 4.2788 10.327 4.2788ZM3.12414 6.40612C3.29041 6.4573 3.44495 6.54074 3.57896 6.65167C3.71296 6.76261 3.82379 6.89886 3.90511 7.05264C3.98643 7.20643 4.03664 7.37473 4.05289 7.54794C4.06913 7.72114 4.05109 7.89584 3.99978 8.06207C3.95116 8.22115 3.90818 8.38191 3.87091 8.54402C3.79318 8.88652 3.58259 9.18412 3.28544 9.37134C2.9883 9.55857 2.62895 9.62009 2.28646 9.54236C1.94396 9.46464 1.64636 9.25404 1.45914 8.9569C1.27191 8.65976 1.2104 8.30041 1.28812 7.95791C1.3399 7.72841 1.40022 7.50273 1.46907 7.28088C1.52034 7.11469 1.60385 6.96024 1.71482 6.82633C1.8258 6.69242 1.96206 6.58169 2.11584 6.50046C2.26961 6.41923 2.43789 6.36909 2.61105 6.3529C2.7842 6.33671 2.95886 6.35479 3.12502 6.40612" fill="white"/>
</g>
<defs>
<clipPath id="clip0_1_133">
<rect width="20" height="20" fill="white" transform="translate(0 0.300049)"/>
</clipPath>
</defs>
</svg>
