<svg width="20" height="21" viewBox="0 0 20 21" fill="none" xmlns="http://www.w3.org/2000/svg">
<g clip-path="url(#clip0_1_111)">
<path d="M13.4235 3.49018L16.8102 6.87685M4.74999 6.05037H1.1875C0.872554 6.05037 0.570509 6.17548 0.34781 6.39817C0.125111 6.62087 0 6.92291 0 7.23784V19.1126C0 19.4275 0.125111 19.7296 0.34781 19.9522C0.570509 20.1749 0.872554 20.3 1.1875 20.3H14.25C14.5649 20.3 14.867 20.1749 15.0897 19.9522C15.3124 19.7296 15.4375 19.4275 15.4375 19.1126V13.7689M18.2982 2.00109C18.5207 2.22351 18.6972 2.48758 18.8176 2.77823C18.938 3.06888 19 3.38041 19 3.69502C19 4.00963 18.938 4.32115 18.8176 4.6118C18.6972 4.90245 18.5207 5.16653 18.2982 5.38895L10.1709 13.516L5.93749 14.3627L6.78417 10.1293L14.9114 2.00227C15.1337 1.77967 15.3976 1.60306 15.6882 1.48257C15.9787 1.36207 16.2902 1.30005 16.6048 1.30005C16.9193 1.30005 17.2308 1.36207 17.5214 1.48257C17.812 1.60306 18.0759 1.77967 18.2982 2.00227V2.00109Z" stroke="white" stroke-width="2" stroke-linecap="round" stroke-linejoin="round"/>
</g>
<defs>
<clipPath id="clip0_1_111">
<rect width="20" height="20" fill="white" transform="translate(0 0.300049)"/>
</clipPath>
</defs>
</svg>
