<svg width="20" height="21" viewBox="0 0 20 21" fill="none" xmlns="http://www.w3.org/2000/svg">
<path d="M8.40707 8.70877C10.7358 8.70877 12.6236 6.82641 12.6236 4.50441C12.6236 2.1824 10.7358 0.300049 8.40707 0.300049C6.07835 0.300049 4.19054 2.1824 4.19054 4.50441C4.19054 6.82641 6.07835 8.70877 8.40707 8.70877Z" fill="white"/>
<path d="M11.1093 16.3951H15.6783V17.3062H11.1093V16.3951Z" fill="white"/>
<path d="M7.19302 17.6967V19.6492C7.19302 19.8218 7.26179 19.9874 7.3842 20.1094C7.50661 20.2315 7.67263 20.3 7.84574 20.3H18.9419C19.115 20.3 19.281 20.2315 19.4034 20.1094C19.5258 19.9874 19.5946 19.8218 19.5946 19.6492V13.1409C19.5946 12.9683 19.5258 12.8028 19.4034 12.6807C19.281 12.5587 19.115 12.4901 18.9419 12.4901H14.3729V11.5334C14.3729 11.3608 14.3041 11.1952 14.1817 11.0732C14.0593 10.9511 13.8933 10.8825 13.7202 10.8825C13.5471 10.8825 13.381 10.9511 13.2586 11.0732C13.1362 11.1952 13.0675 11.3608 13.0675 11.5334V12.4901H11.762V10.1601C10.6529 9.97915 9.53095 9.88774 8.40707 9.88677C5.92859 9.87626 3.47787 10.4072 1.22722 11.4423C0.85679 11.6166 0.544285 11.8932 0.326781 12.2392C0.109277 12.5853 -0.00409637 12.9863 0.000113102 13.3947V17.6967H7.19302ZM18.2892 18.9984H8.49845V13.7918H13.0675V14.0651C13.0675 14.2377 13.1362 14.4033 13.2586 14.5253C13.381 14.6474 13.5471 14.7159 13.7202 14.7159C13.8933 14.7159 14.0593 14.6474 14.1817 14.5253C14.3041 14.4033 14.3729 14.2377 14.3729 14.0651V13.7918H18.2892V18.9984Z" fill="white"/>
</svg>
