<svg width="20" height="21" viewBox="0 0 20 21" fill="none" xmlns="http://www.w3.org/2000/svg">
<path d="M7.4072 17.9141C7.38356 18.0445 7.54766 18.1241 7.66135 18.1196C8.20998 18.0994 8.24301 17.3408 8.7965 17.2862C8.68803 17.1305 8.50585 17.0599 8.3786 16.9226C8.02467 16.5408 7.92732 15.9494 7.72497 15.4902C7.56539 15.1279 7.20972 14.8049 7.48126 14.3894C7.62867 14.1634 7.87308 14.1092 8.12654 14.185C8.3713 14.258 9.26655 14.8285 9.53739 14.9992C10.0366 15.3139 10.1854 15.3306 10.1872 15.9828C10.1872 16.0395 10.1524 16.0986 10.1524 16.1573C10.1524 16.4303 10.4236 16.4869 10.5502 16.6636C10.6461 16.7978 10.6399 16.9473 10.7257 17.0766L11.0216 17.0084C10.8815 16.674 10.4775 16.2251 10.9055 15.9366C11.2027 15.7363 11.484 15.8948 11.7538 15.8114C11.912 15.7624 12.3445 15.2934 12.3956 15.1321C12.5211 14.734 12.495 13.498 13.06 13.4639C13.133 13.4594 13.2773 13.5196 13.3124 13.4935C13.3253 13.4837 13.3312 13.4114 13.3555 13.3812C13.6114 13.0617 13.8829 13.1169 14.2209 13.2724C14.4778 13.0269 14.7354 12.7015 15.0657 12.552C16.0621 12.1014 16.1884 13.2828 15.6123 13.8634C15.4996 13.9771 15.2215 14.1089 15.1471 14.1906C15.1123 14.2288 15.1224 14.2493 15.1241 14.2963C15.5698 14.1252 16.244 14.0425 16.4276 14.6095C16.9136 16.1125 14.4024 15.5621 13.7432 16.027C13.5648 16.1528 13.4529 16.4588 13.2648 16.6264C13.0398 16.8266 12.8083 16.7651 12.8667 17.1277C12.8924 17.2866 13.2019 17.726 13.3698 17.7368C13.4831 17.7441 13.7606 17.6628 13.8871 17.6311C14.2111 17.5494 14.5595 17.3961 14.9034 17.393C15.1203 17.3909 15.4391 17.5536 15.5907 17.5293C15.7969 17.4962 16.1091 17.1193 16.3573 17.1086C16.6473 17.0961 16.7589 17.4218 16.5472 17.6141C16.4164 17.7326 15.8191 18.09 15.6536 18.1113C15.3626 18.1485 15.2875 18.0282 15.0636 17.9896C14.2456 17.8491 13.4174 18.809 12.6723 17.9124C12.3546 17.53 12.1008 17.0067 12.4179 16.5443C12.5708 16.3211 12.7454 16.3343 12.9004 16.1925C13.0172 16.0861 13.1035 15.866 13.2126 15.7398C13.7964 15.0643 15.1113 15.3507 15.8841 15.0215C15.8914 14.9478 15.9189 14.7816 15.832 14.7531C15.6008 14.6916 15.3873 14.8723 15.1756 14.8883C14.7566 14.9196 14.4931 14.5275 14.5317 14.1395C14.5759 13.6972 15.3404 13.5818 15.4019 13.0961C15.4078 13.0488 15.403 13.0293 15.3508 13.0453C14.8891 13.1875 14.4928 14.2417 13.9281 13.8398C13.8652 13.7949 13.8951 13.7139 13.8037 13.7403C13.7223 14.0557 13.4379 14.1224 13.1427 14.088C13.0235 14.7055 13.0722 15.268 12.6546 15.7728C12.3365 16.1577 11.9023 16.5182 11.3693 16.4174C11.5108 16.7487 11.8564 17.1141 11.492 17.4263C11.3349 17.5609 10.6962 17.6947 10.498 17.653C10.3301 17.6176 10.2282 17.5133 10.1708 17.3547C10.1316 17.2463 10.1357 17.0794 10.1003 17.0081C10.0412 16.8885 9.75155 16.788 9.64934 16.4855C9.54991 16.1911 9.64447 15.987 9.59788 15.7109L7.99685 14.783C8.07751 14.9773 8.19746 15.1571 8.2809 15.3504C8.42692 15.6897 8.53714 16.2665 8.77773 16.5224C8.92062 16.6743 9.15008 16.7612 9.27768 16.9612C9.42857 17.1979 9.44734 17.5654 9.21475 17.7559C9.05552 17.8863 8.94287 17.8032 8.81771 17.8804C8.74852 17.9232 8.64248 18.1415 8.57121 18.2249C8.30002 18.5424 7.88525 18.7346 7.46109 18.6734C7.12594 18.6251 6.36697 17.8835 6.72716 17.5633C6.82311 17.4781 7.02268 17.4924 7.17357 17.4187C7.21112 17.4003 7.44649 17.2351 7.45831 17.216C7.58069 17.0182 7.14367 16.4723 7.04006 16.2783C6.92255 16.0579 6.47822 14.8609 6.33811 14.8219C6.27935 14.8056 5.616 15.0107 5.44077 15.0253C5.14212 15.05 4.84938 14.9857 4.55316 15.0072C4.46346 15.2298 4.46207 15.4192 4.24026 15.5632C3.98507 15.7287 3.64539 15.6056 3.35439 15.8594C2.82697 16.3194 3.14613 17.1666 2.10799 17.0731C1.33268 17.0032 0.11061 16.6615 0.0042226 15.7349C-0.0413224 15.3403 0.298701 14.0936 0.451329 13.6861C0.902259 12.4814 2.34997 14.0341 2.96534 13.7313C3.36517 13.5345 2.96674 12.7328 2.90242 12.4195C2.80368 11.9397 2.85757 11.252 3.46286 11.1696C3.72257 11.1342 4.52083 11.1039 4.31987 11.5747C4.17316 11.9182 3.5463 11.5563 3.458 11.8253C3.26539 12.4126 4.00245 13.1138 3.58768 13.902C3.06965 14.8866 1.8368 13.9604 1.17518 13.7973C0.993002 13.7525 1.00934 13.8307 0.956149 13.9827C0.865406 14.2424 0.543114 15.4119 0.563975 15.624C0.61091 16.1073 1.2016 16.3013 1.59934 16.3997C1.7172 16.4289 2.2634 16.5419 2.34127 16.5161C2.40316 16.4956 2.561 16.012 2.62463 15.8945C2.91146 15.3646 3.31858 15.1289 3.91518 15.0643C4.00245 14.8553 4.01358 14.6363 4.23956 14.5195C4.58828 14.3397 4.99505 14.4955 5.36706 14.4649C5.88718 14.4221 6.295 14.0098 6.76297 14.4336C7.07413 14.7155 7.23232 15.3511 7.41033 15.7332C7.65475 16.2585 8.06847 16.6524 8.06882 17.2678C8.06882 17.5772 7.65092 17.7883 7.40651 17.9127L7.4072 17.9141Z" fill="white"/>
<path d="M7.8929 7.79513C7.4816 7.94776 7.04354 8.01938 6.69378 7.69049C6.19174 7.21869 6.83563 6.31649 7.23198 5.96916C7.6019 5.64548 7.97843 5.61593 8.34418 5.16917C9.2217 4.09695 9.42231 2.50461 11.2438 2.68818C11.589 2.72295 12.7707 3.09044 13.0711 3.25975C13.4789 3.48991 13.4532 3.93041 13.2411 4.29443C13.1219 4.49886 12.8563 4.61289 13.2238 4.7763C13.399 4.85418 13.5422 4.86774 13.7115 4.76448C13.9521 4.61776 13.7905 4.46339 13.7689 4.26626C13.7418 4.0149 13.7873 3.86818 13.9438 3.67557C14.5783 3.13807 15.1509 2.46567 15.7851 1.93582C16.7377 1.14 18.0672 1.57876 19.2107 1.46611C19.3445 1.47202 19.4478 1.56242 19.4686 1.69488C19.5104 1.96189 19.5107 3.1631 19.4686 3.42907C19.4342 3.64741 19.2169 3.71381 19.0267 3.63385C19.0028 3.62377 18.9145 3.50903 18.9145 3.50034V2.07593L18.8623 2.02378H16.8806C16.6869 2.02378 16.3062 2.24664 16.1515 2.37249L14.3575 4.09138C14.2904 4.20646 14.433 4.42306 14.4323 4.57952C14.4316 4.75161 14.2946 5.02141 14.1739 5.14066C13.5335 5.77168 12.1154 5.16569 12.5232 4.30694C12.6004 4.14458 12.9435 3.88661 12.7596 3.7458C12.6581 3.66792 11.6137 3.34876 11.4266 3.30599C9.55025 2.87627 9.49775 5.21541 8.23814 6.03661C7.73992 6.36134 7.54175 6.34743 7.20486 6.91552C7.11307 7.07059 6.9594 7.2771 7.22294 7.33621C7.66518 7.43495 7.99825 6.82895 8.25065 6.86337C8.64909 6.91761 8.45891 7.42313 8.45022 7.67414C8.445 7.82017 8.4457 8.70499 8.5719 8.7342C8.83335 8.61946 9.33922 7.61435 9.27837 7.40366C9.23943 7.2698 8.96964 7.18497 8.9686 6.8745C8.9679 6.64086 9.42161 5.31762 9.55547 5.09442C9.85099 4.60142 10.481 4.30555 10.9712 4.73493C11.2566 4.9849 11.2744 5.27347 11.1537 5.61454C11.0032 6.03974 10.4917 6.4107 10.6889 6.8599C11.097 6.9489 11.4093 6.54352 11.84 6.50944C12.1008 6.48858 12.5062 6.61618 12.5503 6.911C12.5966 7.22078 12.3476 7.93212 12.1849 8.20991C11.8501 8.78113 11.3008 9.03876 10.6444 8.94697C10.5456 9.38121 10.7139 9.73793 10.4114 10.1221C9.98276 10.6666 8.86847 10.7034 8.22562 10.7177C7.96556 10.7236 7.50907 10.7702 7.31994 10.5772C7.08109 10.3331 7.25423 9.79633 7.23441 9.4876C6.7807 9.28734 6.98895 9.76817 6.95175 10.0348C6.88709 10.5011 6.35689 10.6273 6.10204 10.9583C5.9515 11.154 5.91812 11.357 5.70326 11.533C5.44911 11.7412 4.95438 11.8559 5.00548 11.3925C5.02843 11.1849 5.27145 11.187 5.3907 11.0466C5.519 10.8953 5.59514 10.6384 5.75402 10.4712C5.87988 10.3384 6.29709 10.1082 6.35967 9.99937C6.44311 9.85474 6.35967 9.71185 6.36106 9.55088C6.3701 8.64658 7.6909 8.681 7.78582 9.38052C7.80563 9.52689 7.73332 10.1054 7.7879 10.1444C8.32645 10.0675 9.53843 10.224 9.93234 9.79981C10.1371 9.57939 10.0134 9.21607 10.0572 8.93376C10.1003 8.65632 10.3315 8.33994 10.6315 8.32499C10.7257 8.32012 10.8015 8.37714 10.9003 8.38687C11.59 8.45536 11.8741 7.64876 11.9607 7.10049C11.4246 7.09944 11.105 7.64424 10.5359 7.43008C9.99214 7.22565 9.97337 6.60192 10.1813 6.13778C10.2626 5.95595 11.0685 4.98525 10.3457 5.12015C9.91878 5.19976 9.74217 6.426 9.56207 6.77402C9.5579 6.87276 9.77346 7.04625 9.81622 7.2107C9.95286 7.73707 9.36877 8.89691 8.93383 9.20147C8.62545 9.41737 8.25274 9.37044 8.06569 9.03111C8.01945 8.94732 7.8929 8.55236 7.8929 8.47379V7.79513Z" fill="white"/>
<path d="M18.9141 4.5444C18.9663 4.30034 19.4294 4.2527 19.4711 4.61324L19.4631 15.002C19.4127 15.146 19.2739 15.2659 19.114 15.2287C18.6061 14.9582 18.112 14.6418 17.5585 14.4704C17.5133 15.1456 18.2351 15.0125 18.5108 15.5517C18.6839 15.8903 18.7545 16.7894 18.3825 17.0154C18.2414 17.1013 17.5909 17.2456 17.4379 17.2164C17.2967 17.1892 17.1747 16.9879 17.2369 16.8436C17.3597 16.5586 17.8273 16.6444 18.0647 16.5234C18.0957 16.4793 18.0856 16.1664 18.0762 16.0906C18.0042 15.5093 17.5384 15.6557 17.2314 15.2666C17.0082 14.9836 16.8649 14.2271 17.1434 13.9677C17.5192 13.6176 18.5223 14.3161 18.9145 14.435V4.5444H18.9141Z" fill="white"/>
</svg>
