<svg width="21" height="23" viewBox="0 0 21 23" fill="none" xmlns="http://www.w3.org/2000/svg">
<path d="M3 6.80005V2.30005C3 2.03483 3.10536 1.78048 3.29289 1.59294C3.48043 1.40541 3.73478 1.30005 4 1.30005H18C18.2652 1.30005 18.5196 1.40541 18.7071 1.59294C18.8946 1.78048 19 2.03483 19 2.30005V20.3C19 20.5653 18.8946 20.8196 18.7071 21.0072C18.5196 21.1947 18.2652 21.3 18 21.3H4C3.73478 21.3 3.48043 21.1947 3.29289 21.0072C3.10536 20.8196 3 20.5653 3 20.3V15.8M14.5 6.80005H16M13 10.8H16M13 14.8H16M4 9.80005L7 12.8M7 9.80005L4 12.8M1 6.80005H10V15.8H1V6.80005Z" stroke="white" stroke-width="1.5" stroke-linecap="round" stroke-linejoin="round"/>
</svg>
