<svg width="20" height="21" viewBox="0 0 20 21" fill="none" xmlns="http://www.w3.org/2000/svg">
<path d="M10.2692 1.88736C11.5916 1.87363 12.9888 2.31233 13.9997 3.17057C14.2742 3.40357 14.5619 3.80636 14.8332 4.00104C15.1456 4.22514 15.3611 4.21397 15.6354 4.58567C16.1985 5.34883 16.5037 7.74773 16.3699 8.67418C16.2998 9.15966 16.1944 9.45605 16.2903 9.98123C16.3101 10.0899 16.4602 10.1312 16.5427 10.2372C16.8963 10.6902 16.8652 11.7105 16.5609 12.1898C16.4268 12.4011 16.0971 12.5372 16.0384 12.638C15.9389 12.809 15.7785 13.5693 15.6777 13.848C14.9125 15.9632 13.9505 17.2786 11.9434 18.3401C10.3314 19.1926 9.6622 19.0692 8.11796 18.1854C6.33426 17.1646 5.56419 16.0933 4.79577 14.2054C4.63477 13.8099 4.44414 12.9128 4.2845 12.6377C4.22706 12.5389 3.88404 12.3496 3.75554 12.196C3.33589 11.6936 3.27345 10.8914 3.59001 10.3246C3.66938 10.1824 3.85214 10.0784 3.84655 9.93988C3.50188 8.80698 2.9705 7.54385 3.42221 6.37036C4.42721 3.76033 7.51992 1.91588 10.2692 1.88736ZM5.87046 7.29047C5.3666 7.37 5.24627 7.75482 5.10719 8.19096C4.81391 9.10986 4.79547 10.9018 4.93304 11.8522C5.1477 13.3356 6.08437 15.6797 7.22347 16.6775C7.86807 17.2422 9.44799 18.2443 10.3021 18.1794C10.942 18.1308 12.5008 17.1609 13.0071 16.7237C14.4048 15.517 15.6076 12.3235 15.1466 10.523C15.0376 10.0973 14.6335 9.53196 14.5979 9.21957C14.5555 8.84818 14.9732 8.11052 14.3608 7.9824C13.4106 7.7835 12.1541 8.45566 11.0411 8.38714C9.4492 8.2892 7.29195 7.06621 5.87046 7.29047Z" fill="white"/>
<path d="M18.465 18.778V16.3998C18.465 16.2925 18.6697 16.0283 18.7654 15.9608C19.2673 15.6068 19.8942 15.9406 19.9471 16.5364C20.0122 17.2695 20.0229 18.8641 19.9453 19.5863C19.9038 19.9743 19.6072 20.2134 19.2283 20.2559C18.7251 20.3124 16.4974 20.3273 16.0679 20.2241C15.4665 20.0797 15.3087 19.2875 15.805 18.9166C15.8395 18.8908 16.0227 18.7779 16.0361 18.7779L18.465 18.778Z" fill="white"/>
<path d="M16.0827 1.83017C15.9862 1.83017 15.7566 1.66054 15.6898 1.57588C15.2937 1.0753 15.5927 0.406008 16.2197 0.350472C16.9798 0.283166 18.47 0.283316 19.2303 0.350472C19.6168 0.384578 19.9035 0.628302 19.9456 1.02188C20.023 1.74445 20.0125 3.33838 19.9475 4.07181C19.8918 4.6981 19.2211 4.99585 18.7199 4.60076C18.6353 4.53391 18.4652 4.30467 18.4652 4.20854V1.83017H16.0827Z" fill="white"/>
<path d="M1.53405 18.7319H3.91639C3.93695 18.7319 4.22857 18.9127 4.26424 18.9517C4.70975 19.4413 4.43341 20.1536 3.77958 20.2114C3.01948 20.2787 1.52921 20.2786 0.768958 20.2114C0.382407 20.1773 0.0957819 19.9336 0.0536044 19.54C-0.00248102 19.0171 -0.0213777 16.7837 0.085502 16.3389C0.214 15.8037 0.848778 15.6216 1.27947 15.9611C1.36413 16.028 1.5342 16.2572 1.5342 16.3533L1.53405 18.7319Z" fill="white"/>
<path d="M1.53405 1.83017V4.16221C1.53405 4.26951 1.32936 4.53376 1.23367 4.60121C0.731467 4.9554 0.104701 4.62113 0.0519415 4.02563C-0.0123073 3.30307 -0.0227383 1.73358 0.0536044 1.02188C0.0957819 0.628 0.382558 0.384578 0.768807 0.350472C1.51576 0.284524 2.98668 0.28392 3.73317 0.350472C4.37657 0.40797 4.72774 1.04693 4.30929 1.57588C4.24232 1.66039 4.01269 1.83017 3.91639 1.83017H1.53405Z" fill="white"/>
</svg>
