<svg width="20" height="21" viewBox="0 0 20 21" fill="none" xmlns="http://www.w3.org/2000/svg">
<g clip-path="url(#clip0_1_117)">
<path d="M11.8795 6.53965H3.11917C2.95321 6.53965 2.79405 6.47341 2.6767 6.35552C2.55936 6.23763 2.49343 6.07773 2.49343 5.911V3.39641C2.49343 3.22968 2.55936 3.06978 2.6767 2.95189C2.79405 2.834 2.95321 2.76776 3.11917 2.76776H11.8795C12.0455 2.76776 12.2046 2.834 12.322 2.95189C12.4393 3.06978 12.5052 3.22968 12.5052 3.39641V5.911C12.5052 6.07773 12.4393 6.23763 12.322 6.35552C12.2046 6.47341 12.0455 6.53965 11.8795 6.53965ZM3.74491 5.28235H11.2538V3.98734H3.74491V5.28235Z" fill="white"/>
<path d="M11.8795 7.84723H3.11917C2.95321 7.84723 2.79405 7.91346 2.6767 8.03136C2.55936 8.14925 2.49343 8.30915 2.49343 8.47588V10.9402C2.49343 11.1069 2.55936 11.2668 2.6767 11.3847C2.79405 11.5026 2.95321 11.5688 3.11917 11.5688H10.2275L12.5052 9.24283V8.47588C12.5052 8.30915 12.4393 8.14925 12.322 8.03136C12.2046 7.91346 12.0455 7.84723 11.8795 7.84723ZM11.2538 10.3115H3.74491V9.05423H11.2538V10.3115Z" fill="white"/>
<path d="M5.65966 18.8046V18.7668L5.8599 17.893H1.24195V1.51047H13.7567V7.9541L15.0082 6.76596V0.881821C15.0082 0.715093 14.9423 0.555195 14.8249 0.4373C14.7076 0.319406 14.5484 0.253174 14.3824 0.253174H0.616216C0.45026 0.253174 0.291101 0.319406 0.173753 0.4373C0.0564042 0.555195 -0.00952148 0.715093 -0.00952148 0.881821V18.4839C-0.00952148 18.6507 0.0564042 18.8106 0.173753 18.9285C0.291101 19.0464 0.45026 19.1126 0.616216 19.1126H5.62212C5.62719 19.0091 5.63974 18.9062 5.65966 18.8046Z" fill="white"/>
<path d="M12.5052 11.047L12.0172 11.5437C12.1382 11.5186 12.2492 11.458 12.3361 11.3697C12.423 11.2813 12.4818 11.169 12.5052 11.047Z" fill="white"/>
<path d="M2.49343 15.9316C2.49343 16.0984 2.55936 16.2583 2.6767 16.3762C2.79405 16.494 2.95321 16.5603 3.11917 16.5603H6.14774L6.33546 15.743L6.41681 15.3973V15.3659H3.74491V14.0834H7.71208L8.96356 12.8261H3.11917C2.95321 12.8261 2.79405 12.8923 2.6767 13.0102C2.55936 13.1281 2.49343 13.288 2.49343 13.4548V15.9316Z" fill="white"/>
<path d="M19.695 9.47543L17.5862 7.35689C17.4926 7.26261 17.3815 7.18781 17.2591 7.13677C17.1366 7.08573 17.0054 7.05946 16.8729 7.05946C16.7404 7.05946 16.6091 7.08573 16.4867 7.13677C16.3643 7.18781 16.2531 7.26261 16.1595 7.35689L7.58068 16.0259L6.87359 19.0497C6.84712 19.1802 6.84653 19.3146 6.87184 19.4453C6.89716 19.576 6.94789 19.7003 7.02113 19.8113C7.09437 19.9222 7.18868 20.0176 7.29865 20.0919C7.40863 20.1661 7.53211 20.2179 7.66202 20.2442C7.72653 20.2505 7.7915 20.2505 7.856 20.2442C7.93271 20.2562 8.01081 20.2562 8.08753 20.2442L11.1224 19.5715L19.695 10.9402C19.7886 10.8467 19.8629 10.7355 19.9137 10.6131C19.9644 10.4906 19.9905 10.3593 19.9905 10.2267C19.9905 10.094 19.9644 9.96271 19.9137 9.84025C19.8629 9.7178 19.7886 9.60663 19.695 9.51315V9.47543ZM10.4841 18.4274L8.1939 18.9366L8.75081 16.6546L15.1834 10.1229L16.948 11.8957L10.4841 18.4274ZM17.6551 11.1853L15.8905 9.41256L16.8854 8.42559L18.6625 10.2109L17.6551 11.1853Z" fill="white"/>
</g>
<defs>
<clipPath id="clip0_1_117">
<rect width="20" height="20" fill="white" transform="translate(0 0.300049)"/>
</clipPath>
</defs>
</svg>
