<svg width="20" height="21" viewBox="0 0 20 21" fill="none" xmlns="http://www.w3.org/2000/svg">
<mask id="path-1-inside-1_1_161" fill="white">
<path d="M7.875 8.11261V12.9876H3L10.3125 20.3001L17.625 12.9876H12.75V8.11261L17.625 8.11261L10.3125 0.80011L3 8.11261"/>
</mask>
<path d="M3 8.11261V9.01261H8.88081V8.11261V7.21261H3V8.11261ZM7.875 12.9876L7.875 14.7876H9.675V12.9876H7.875ZM3 12.9876V11.1876H-1.34558L1.72721 14.2604L3 12.9876ZM10.3125 20.3001L9.03971 21.5729L10.3125 22.8457L11.5853 21.5729L10.3125 20.3001ZM17.625 12.9876L18.8978 14.2604L21.9706 11.1876H17.625V12.9876ZM12.75 12.9876H10.95V14.7876H12.75V12.9876ZM12.75 8.11261V6.31261H10.95V8.11261H12.75ZM17.625 8.11261V9.91261H21.9706L18.8978 6.83982L17.625 8.11261ZM10.3125 0.80011L11.5853 -0.472682L10.3125 -1.74547L9.03971 -0.472682L10.3125 0.80011ZM7.875 8.11261H6.075L6.075 12.9876H7.875H9.675V8.11261H7.875ZM7.875 12.9876V11.1876H3V12.9876V14.7876H7.875L7.875 12.9876ZM3 12.9876L1.72721 14.2604L9.03971 21.5729L10.3125 20.3001L11.5853 19.0273L4.27279 11.7148L3 12.9876ZM10.3125 20.3001L11.5853 21.5729L18.8978 14.2604L17.625 12.9876L16.3522 11.7148L9.03971 19.0273L10.3125 20.3001ZM17.625 12.9876V11.1876L12.75 11.1876V12.9876V14.7876H17.625V12.9876ZM12.75 12.9876H14.55V8.11261H12.75H10.95V12.9876H12.75ZM12.75 8.11261V9.91261L17.625 9.91261V8.11261V6.31261L12.75 6.31261V8.11261ZM17.625 8.11261L18.8978 6.83982L11.5853 -0.472682L10.3125 0.80011L9.03971 2.0729L16.3522 9.3854L17.625 8.11261ZM10.3125 0.80011L9.03971 -0.472682L1.72721 6.83982L3 8.11261L4.27279 9.3854L11.5853 2.0729L10.3125 0.80011Z" fill="white" mask="url(#path-1-inside-1_1_161)"/>
</svg>
