<svg width="20" height="21" viewBox="0 0 20 21" fill="none" xmlns="http://www.w3.org/2000/svg">
<path d="M2.17437 19.9446C1.62733 19.9446 1.17093 19.7618 0.805183 19.396C0.439433 19.0303 0.256163 18.5735 0.255371 18.0256V2.86364C0.255371 2.3166 0.438642 1.8602 0.805183 1.49445C1.17172 1.1287 1.62812 0.945433 2.17437 0.944641H17.3376C17.8838 0.944641 18.3402 1.12791 18.7067 1.49445C19.0733 1.86099 19.2562 2.31739 19.2554 2.86364V18.0268C19.2554 18.5731 19.0725 19.0295 18.7067 19.396C18.341 19.7626 17.8842 19.9454 17.3364 19.9446H2.17437ZM2.17437 18.7571H17.3376C17.5196 18.7571 17.6871 18.6811 17.8399 18.5291C17.9927 18.3771 18.0687 18.2093 18.0679 18.0256V2.86364C18.0679 2.68077 17.9919 2.51293 17.8399 2.36014C17.6879 2.20735 17.52 2.13135 17.3364 2.13214H2.17437C1.9915 2.13214 1.82366 2.20814 1.67087 2.36014C1.51808 2.51214 1.44208 2.67997 1.44287 2.86364V18.0268C1.44287 18.2089 1.51887 18.3763 1.67087 18.5291C1.82287 18.6819 1.99031 18.7579 2.17318 18.7571M4.41162 15.7884H15.282L11.9249 11.3115L8.81962 15.2398L6.7415 12.7282L4.41162 15.7884Z" fill="white"/>
</svg>
