<svg width="20" height="21" viewBox="0 0 20 21" fill="none" xmlns="http://www.w3.org/2000/svg">
<path d="M14.0833 0.444641C15.5199 0.444641 16.8977 1.01532 17.9135 2.03115C18.9293 3.04697 19.5 4.42472 19.5 5.86131V14.528C19.5 15.9646 18.9293 17.3423 17.9135 18.3581C16.8977 19.374 15.5199 19.9446 14.0833 19.9446H5.41667C3.98008 19.9446 2.60233 19.374 1.5865 18.3581C0.570683 17.3423 0 15.9646 0 14.528V5.86131C0 4.42472 0.570683 3.04697 1.5865 2.03115C2.60233 1.01532 3.98008 0.444641 5.41667 0.444641H14.0833ZM9.75 5.86131C8.60073 5.86131 7.49853 6.31785 6.68587 7.13051C5.87321 7.94317 5.41667 9.04537 5.41667 10.1946C5.41667 11.3439 5.87321 12.4461 6.68587 13.2588C7.49853 14.0714 8.60073 14.528 9.75 14.528C10.8993 14.528 12.0015 14.0714 12.8141 13.2588C13.6268 12.4461 14.0833 11.3439 14.0833 10.1946C14.0833 9.04537 13.6268 7.94317 12.8141 7.13051C12.0015 6.31785 10.8993 5.86131 9.75 5.86131ZM9.75 8.02797C10.3246 8.02797 10.8757 8.25625 11.2821 8.66258C11.6884 9.06891 11.9167 9.62001 11.9167 10.1946C11.9167 10.7693 11.6884 11.3204 11.2821 11.7267C10.8757 12.133 10.3246 12.3613 9.75 12.3613C9.17536 12.3613 8.62426 12.133 8.21794 11.7267C7.81161 11.3204 7.58333 10.7693 7.58333 10.1946C7.58333 9.62001 7.81161 9.06891 8.21794 8.66258C8.62426 8.25625 9.17536 8.02797 9.75 8.02797ZM14.625 4.23631C14.3377 4.23631 14.0621 4.35044 13.859 4.55361C13.6558 4.75677 13.5417 5.03232 13.5417 5.31964C13.5417 5.60696 13.6558 5.88251 13.859 6.08567C14.0621 6.28884 14.3377 6.40297 14.625 6.40297C14.9123 6.40297 15.1879 6.28884 15.391 6.08567C15.5942 5.88251 15.7083 5.60696 15.7083 5.31964C15.7083 5.03232 15.5942 4.75677 15.391 4.55361C15.1879 4.35044 14.9123 4.23631 14.625 4.23631Z" fill="white"/>
</svg>
