<svg width="20" height="21" viewBox="0 0 20 21" fill="none" xmlns="http://www.w3.org/2000/svg">
<path fill-rule="evenodd" clip-rule="evenodd" d="M0 3.29996C0 2.2499 0 1.72486 0.203763 1.32484C0.383774 0.972317 0.670042 0.684799 1.02381 0.504788C1.42509 0.301025 1.95012 0.301025 2.99894 0.301025H5.74911C6.79918 0.301025 7.32421 0.301025 7.72423 0.504788C8.07676 0.684799 8.36427 0.971067 8.54428 1.32484C8.74805 1.72611 8.74805 2.25115 8.74805 3.29996V6.05014C8.74805 7.1002 8.74805 7.62523 8.54428 8.02526C8.36446 8.3784 8.07737 8.66548 7.72423 8.84531C7.32296 9.04907 6.79793 9.04907 5.74911 9.04907H2.99894C1.94887 9.04907 1.42384 9.04907 1.02381 8.84531C0.670676 8.66548 0.383591 8.3784 0.203763 8.02526C0 7.62398 0 7.09895 0 6.05014V3.29996ZM3.00019 1.54985H5.75036C6.29664 1.54985 6.63042 1.54985 6.88043 1.5711C6.97147 1.57766 7.06179 1.59188 7.15045 1.61361L7.1592 1.61736C7.27988 1.67896 7.37728 1.77811 7.43672 1.89988L7.44797 1.93988C7.45797 1.98238 7.46922 2.05238 7.47922 2.16989C7.49922 2.41991 7.50047 2.75368 7.50047 3.29996V6.05014C7.50047 6.59642 7.50047 6.93019 7.47922 7.18021C7.47266 7.27125 7.45844 7.36157 7.43672 7.45022L7.43297 7.45772V7.45897C7.37277 7.57644 7.27694 7.67184 7.1592 7.73149C7.1592 7.73149 7.1542 7.73399 7.15045 7.73649L7.11045 7.74774C7.03491 7.76527 6.95791 7.77573 6.88043 7.77899C6.63042 7.79899 6.29664 7.80024 5.75036 7.80024H3.00019C2.4539 7.80024 2.12013 7.80024 1.87012 7.77899C1.77908 7.77243 1.68875 7.75822 1.6001 7.73649L1.59135 7.73149C1.47407 7.67162 1.3787 7.57625 1.31883 7.45897L1.31258 7.45022L1.30133 7.41022C1.2838 7.33468 1.27334 7.25768 1.27008 7.18021C1.25133 6.93019 1.25008 6.59642 1.25008 6.05014V3.29996C1.25008 2.75368 1.25008 2.41991 1.27133 2.16989C1.27789 2.07885 1.29211 1.98853 1.31383 1.89988L1.31883 1.88987C1.3787 1.7726 1.47407 1.67722 1.59135 1.61736L1.6001 1.61361L1.6401 1.60236C1.71564 1.58483 1.79264 1.57437 1.87012 1.5711C2.12013 1.5511 2.4539 1.54985 3.00019 1.54985ZM11.2507 3.29996C11.2507 2.2499 11.2507 1.72486 11.4545 1.32484C11.6345 0.972317 11.9207 0.684799 12.2745 0.504788C12.6758 0.301025 13.2008 0.301025 14.2496 0.301025H16.9998C18.0499 0.301025 18.5749 0.301025 18.9749 0.504788C19.3275 0.684799 19.615 0.971067 19.795 1.32484C20 1.72611 20 2.25115 20 3.29996V6.05014C20 7.1002 20 7.62523 19.795 8.02526C19.6152 8.3784 19.3281 8.66548 18.9749 8.84531C18.5737 9.04907 18.0486 9.04907 16.9998 9.04907H14.2496C13.1996 9.04907 12.6745 9.04907 12.2745 8.84531C11.9214 8.66548 11.6343 8.3784 11.4545 8.02526C11.2507 7.62398 11.2507 7.09895 11.2507 6.05014V3.29996ZM14.2509 1.54985H17.0011C17.5461 1.54985 17.8811 1.54985 18.1311 1.5711C18.2222 1.57766 18.3125 1.59188 18.4012 1.61361L18.4112 1.61736C18.5309 1.67939 18.6274 1.7785 18.6862 1.89988L18.6987 1.93988C18.7087 1.98238 18.7199 2.05238 18.7299 2.16989C18.7499 2.41991 18.7512 2.75368 18.7512 3.29996V6.05014C18.7512 6.59642 18.7512 6.93019 18.7299 7.18021C18.7234 7.27125 18.7091 7.36157 18.6874 7.45022L18.6849 7.45647L18.6837 7.45897C18.6238 7.57625 18.5284 7.67162 18.4112 7.73149H18.4087L18.4062 7.73399L18.4012 7.73649L18.3611 7.74774C18.2856 7.76527 18.2086 7.77573 18.1311 7.77899C17.8811 7.79899 17.5473 7.80024 17.0011 7.80024H14.2509C13.7059 7.80024 13.3708 7.80024 13.1208 7.77899C13.0298 7.77243 12.9395 7.75822 12.8508 7.73649L12.8421 7.73149C12.7248 7.67162 12.6294 7.57625 12.5695 7.45897H12.5683L12.5645 7.45022L12.5533 7.41022C12.5358 7.33468 12.5253 7.25768 12.522 7.18021C12.502 6.93019 12.5008 6.59642 12.5008 6.05014V3.29996C12.5008 2.75368 12.5008 2.41991 12.522 2.16989C12.5286 2.07885 12.5428 1.98853 12.5645 1.89988L12.5695 1.88987C12.6294 1.7726 12.7248 1.67722 12.8421 1.61736L12.8508 1.61361L12.8908 1.60236C12.9663 1.58483 13.0433 1.57437 13.1208 1.5711C13.3708 1.5511 13.7046 1.54985 14.2509 1.54985ZM11.4507 12.5755C11.247 12.9768 11.247 13.5019 11.247 14.5507V17.3008C11.247 18.3509 11.247 18.8759 11.4507 19.276C11.6307 19.6285 11.917 19.916 12.2708 20.096C12.672 20.301 13.1971 20.301 14.2459 20.301H16.9961C18.0461 20.301 18.5712 20.301 18.9712 20.096C19.3237 19.916 19.6112 19.6297 19.7912 19.276C19.9963 18.8747 19.9963 18.3497 19.9963 17.3008V14.5507C19.9963 13.5006 19.9963 12.9756 19.7912 12.5755C19.6114 12.2224 19.3243 11.9353 18.9712 11.7555C18.5699 11.5517 18.0449 11.5517 16.9961 11.5517H14.2459C13.1958 11.5517 12.6708 11.5517 12.2708 11.7555C11.9176 11.9353 11.6305 12.2224 11.4507 12.5755ZM17.0011 12.8018H14.2509C13.7059 12.8018 13.3708 12.8018 13.1208 12.8231C13.0298 12.8296 12.9395 12.8438 12.8508 12.8656L12.8433 12.8693H12.8421C12.7248 12.9292 12.6294 13.0246 12.5695 13.1418L12.5683 13.1443L12.5645 13.1518L12.5533 13.1918C12.5358 13.2674 12.5253 13.3444 12.522 13.4218C12.502 13.6719 12.5008 14.0056 12.5008 14.5519V17.3021C12.5008 17.8471 12.5008 18.1821 12.522 18.4322C12.5286 18.5232 12.5428 18.6135 12.5645 18.7022L12.5695 18.7109C12.6308 18.8314 12.7295 18.9288 12.8508 18.9884L12.8908 18.9997C12.9333 19.0097 13.0033 19.0209 13.1208 19.0309C13.3708 19.0509 13.7046 19.0522 14.2509 19.0522H17.0011C17.5461 19.0522 17.8811 19.0522 18.1311 19.0309C18.2222 19.0244 18.3125 19.0102 18.4012 18.9884L18.4062 18.9859L18.4112 18.9834C18.5284 18.9236 18.6238 18.8282 18.6837 18.7109L18.6874 18.7022L18.6987 18.6622C18.7162 18.5866 18.7267 18.5096 18.7299 18.4322C18.7499 18.1821 18.7512 17.8484 18.7512 17.3021V14.5519C18.7512 14.0069 18.7512 13.6719 18.7299 13.4218C18.7234 13.3308 18.7091 13.2405 18.6874 13.1518L18.6837 13.1418C18.6236 13.025 18.5282 12.9301 18.4112 12.8706L18.4012 12.8656L18.3611 12.8543C18.2856 12.8368 18.2086 12.8263 18.1311 12.8231C17.8811 12.8031 17.5473 12.8018 17.0011 12.8018ZM0 14.5507C0 13.5006 0 12.9756 0.203763 12.5755C0.383774 12.223 0.670042 11.9355 1.02381 11.7555C1.42509 11.5517 1.95012 11.5517 2.99894 11.5517H5.74911C6.79918 11.5517 7.32421 11.5517 7.72423 11.7555C8.07676 11.9355 8.36427 12.2218 8.54428 12.5755C8.74805 12.9768 8.74805 13.5019 8.74805 14.5507V17.3008C8.74805 18.3509 8.74805 18.8759 8.54428 19.276C8.36446 19.6291 8.07737 19.9162 7.72423 20.096C7.32296 20.301 6.79793 20.301 5.74911 20.301H2.99894C1.94887 20.301 1.42384 20.301 1.02381 20.096C0.670676 19.9162 0.383591 19.6291 0.203763 19.276C0 18.8747 0 18.3497 0 17.3008V14.5507ZM3.00019 12.8006H5.75036C6.29664 12.8006 6.63042 12.8006 6.88043 12.8218C6.97147 12.8284 7.06179 12.8426 7.15045 12.8643L7.15795 12.8681H7.1592C7.27988 12.9297 7.37728 13.0288 7.43672 13.1506L7.44797 13.1906C7.45797 13.2331 7.46922 13.3031 7.47922 13.4206C7.49922 13.6706 7.50047 14.0044 7.50047 14.5507V17.3008C7.50047 17.8459 7.50047 18.1809 7.47922 18.4309C7.47266 18.5219 7.45844 18.6123 7.43672 18.7009L7.43297 18.7097C7.37298 18.8276 7.27713 18.9235 7.1592 18.9834C7.1592 18.9834 7.1542 18.9859 7.15045 18.9872L7.11045 18.9984C7.03491 19.016 6.95791 19.0264 6.88043 19.0297C6.63042 19.0497 6.29664 19.0509 5.75036 19.0509H3.00019C2.4539 19.0509 2.12013 19.0509 1.87012 19.0297C1.77908 19.0231 1.68875 19.0089 1.6001 18.9872L1.59135 18.9834C1.47407 18.9236 1.3787 18.8282 1.31883 18.7109L1.31383 18.7009L1.30258 18.6609C1.28505 18.5854 1.27459 18.5084 1.27133 18.4309C1.25133 18.1809 1.25008 17.8471 1.25008 17.3008V14.5507C1.25008 14.0056 1.25008 13.6706 1.27133 13.4206C1.27789 13.3296 1.29211 13.2392 1.31383 13.1506L1.31883 13.1418C1.3787 13.0246 1.47407 12.9292 1.59135 12.8693L1.6001 12.8643L1.6401 12.8531C1.71564 12.8355 1.79264 12.8251 1.87012 12.8218C2.12013 12.8018 2.4539 12.8006 3.00019 12.8006Z" fill="white"/>
</svg>
