<svg width="20" height="21" viewBox="0 0 20 21" fill="none" xmlns="http://www.w3.org/2000/svg">
<path d="M1.13099 18.8341C1.07162 18.8339 1.01441 18.8118 0.970323 18.772C0.926238 18.7322 0.898378 18.6776 0.892081 18.6185L0.000730615 9.58157L0 9.55892C0 9.42595 0.1074 9.31855 0.240372 9.31855H6.25553V18.8348L1.13099 18.8341ZM3.58586 16.4486C3.58586 16.6366 3.64161 16.8211 3.74605 16.9774C3.8505 17.1338 3.99895 17.2556 4.17264 17.3275C4.34632 17.3995 4.53744 17.4183 4.72183 17.3816C4.90621 17.3449 5.07558 17.2544 5.20852 17.1215C5.34145 16.9885 5.43198 16.8192 5.46866 16.6348C5.50533 16.4504 5.48651 16.2593 5.41456 16.0856C5.34262 15.9119 5.22079 15.7635 5.06448 15.659C4.90816 15.5546 4.72439 15.4988 4.53639 15.4988H4.53493C4.00962 15.4988 3.5844 15.924 3.58367 16.4494L3.58586 16.4486ZM3.93655 10.6037C3.93655 10.7359 4.04395 10.8433 4.17693 10.8433H4.73512C4.79867 10.8433 4.85963 10.8181 4.90457 10.7732C4.94951 10.7282 4.97476 10.6673 4.97476 10.6037C4.97476 10.5401 4.94951 10.4792 4.90457 10.4342C4.85963 10.3893 4.79867 10.3641 4.73512 10.3641H4.17254C4.10885 10.3643 4.04782 10.3896 4.00279 10.4347C3.95775 10.4797 3.93236 10.5407 3.93217 10.6044V10.6066L3.93655 10.6037ZM1.29903 10.6037C1.29903 10.7359 1.40643 10.8433 1.53868 10.8433H3.36887C3.43242 10.8433 3.49338 10.8181 3.53832 10.7732C3.58326 10.7282 3.60851 10.6673 3.60851 10.6037C3.60851 10.5401 3.58326 10.4792 3.53832 10.4342C3.49338 10.3893 3.43242 10.3641 3.36887 10.3641H1.53429C1.47085 10.3644 1.41012 10.3898 1.36526 10.4347C1.3204 10.4795 1.29503 10.5403 1.29465 10.6037V10.6059L1.29903 10.6037ZM8.45906 17.4627C8.33035 17.4191 8.20875 17.3568 8.09814 17.2779L8.10252 17.2808L8.02946 17.2348C7.85927 17.128 7.6912 17.0179 7.52534 16.9045L7.45154 16.8527C7.3551 16.7832 7.3098 16.7526 7.26012 16.7555L6.73408 16.7628V10.074L6.72458 9.51143C7.05409 9.30174 7.35802 9.10229 7.44935 9.0263C7.57356 8.77643 7.6963 8.56748 7.83219 8.36729L7.81977 8.38701C7.88309 8.2896 7.94349 8.19316 8.00097 8.09769L9.26055 5.98329C9.31997 5.88393 9.38183 5.78456 9.44612 5.6852C9.55206 5.52739 9.66458 5.33889 9.76759 5.14455L9.78513 5.10875C9.84191 4.99046 9.86202 4.8579 9.84285 4.72809L9.84358 4.73175L9.83919 2.45223C9.88522 2.12053 10.0723 1.83997 10.336 1.66901L10.3404 1.66609C10.5755 1.4543 10.8739 1.32591 11.1894 1.30078H11.1945L11.2405 1.30005C11.4897 1.30005 11.7249 1.35923 11.9339 1.46371L11.9251 1.45932C12.0646 1.52654 12.1837 1.59814 12.2955 1.67851L12.2882 1.67339L12.3657 1.72454C12.5417 1.81732 12.6732 1.97368 12.7317 2.16291L12.7332 2.16802C12.8698 2.67653 12.9947 3.13901 13.1109 3.60295L13.1591 3.79218C13.2329 4.04059 13.2965 4.34087 13.3374 4.64846L13.341 4.67914C13.2161 5.82913 12.9757 6.87829 12.628 7.87778L12.6586 7.77695L18.2793 7.76891H18.2997C18.47 7.76893 18.6383 7.80517 18.7935 7.87523C18.9487 7.94529 19.0872 8.04757 19.1998 8.17526C19.3125 8.30296 19.3967 8.45316 19.4468 8.61589C19.4969 8.77862 19.5119 8.95015 19.4906 9.11909L19.4913 9.11325C19.5072 9.36852 19.4551 9.62344 19.3404 9.85202C19.2257 10.0806 19.0524 10.2747 18.8382 10.4145L18.8323 10.4181C19.0374 10.7179 19.1334 11.079 19.1041 11.441V11.4359C19.1295 11.7227 19.0626 12.0102 18.9131 12.2563C18.7637 12.5025 18.5396 12.6945 18.2734 12.8043L18.2646 12.8072C18.4271 13.099 18.5029 13.431 18.4831 13.7643V13.76C18.4994 14.0098 18.4478 14.2593 18.3339 14.4822C18.2199 14.7051 18.0478 14.893 17.8358 15.0261L17.8299 15.0298C17.9788 15.3641 18.0354 15.7322 17.9936 16.0957L17.9943 16.0862V16.2236C17.9838 16.4035 17.9372 16.5795 17.8571 16.741C17.777 16.9025 17.6652 17.0462 17.5283 17.1634C17.3914 17.2807 17.2322 17.3691 17.0603 17.4234C16.8885 17.4778 16.7074 17.4968 16.528 17.4795L16.5331 17.4803H13.2972L13.2862 17.481L13.2745 17.4803H13.2753H8.95734C8.92008 17.4803 8.88136 17.4803 8.84044 17.4861C8.79076 17.489 8.73816 17.4934 8.68409 17.4934H8.67313C8.59932 17.4937 8.52581 17.4839 8.45468 17.4642L8.46052 17.4656L8.45906 17.4627ZM4.06441 16.4494C4.06446 16.3879 4.07661 16.3271 4.10017 16.2703C4.12373 16.2135 4.15824 16.162 4.20173 16.1186C4.24522 16.0751 4.29683 16.0407 4.35363 16.0172C4.41042 15.9938 4.47128 15.9817 4.53274 15.9818C4.59419 15.9818 4.65503 15.994 4.71179 16.0175C4.76855 16.0411 4.82011 16.0756 4.86353 16.1191C4.90695 16.1626 4.94138 16.2142 4.96485 16.271C4.98832 16.3278 5.00038 16.3886 5.00033 16.4501C5.00023 16.5742 4.95084 16.6932 4.86301 16.7809C4.77518 16.8686 4.65612 16.9178 4.53201 16.9177C4.40789 16.9176 4.28891 16.8682 4.20122 16.7804C4.11352 16.6925 4.06431 16.5735 4.06441 16.4494Z" fill="white"/>
</svg>
