<svg width="20" height="21" viewBox="0 0 20 21" fill="none" xmlns="http://www.w3.org/2000/svg">
<path fill-rule="evenodd" clip-rule="evenodd" d="M16.8235 0.444641C17.6628 0.444641 18.4678 0.787051 19.0613 1.39654C19.6548 2.00604 19.9882 2.83269 19.9882 3.69464V16.6946C19.9882 17.5566 19.6548 18.3832 19.0613 18.9927C18.4678 19.6022 17.6628 19.9446 16.8235 19.9446H4.1647C3.32537 19.9446 2.52042 19.6022 1.92692 18.9927C1.33342 18.3832 1 17.5566 1 16.6946V3.69464C1 2.83269 1.33342 2.00604 1.92692 1.39654C2.52042 0.787051 3.32537 0.444641 4.1647 0.444641H16.8235ZM6.2745 8.02797C5.99473 8.02797 5.72641 8.14211 5.52858 8.34528C5.33074 8.54844 5.2196 8.82399 5.2196 9.11131V14.528C5.2196 14.8153 5.33074 15.0908 5.52858 15.294C5.72641 15.4972 5.99473 15.6113 6.2745 15.6113C6.55428 15.6113 6.8226 15.4972 7.02043 15.294C7.21826 15.0908 7.3294 14.8153 7.3294 14.528V9.11131C7.3294 8.82399 7.21826 8.54844 7.02043 8.34528C6.8226 8.14211 6.55428 8.02797 6.2745 8.02797ZM9.4392 6.94464C9.15943 6.94464 8.89111 7.05878 8.69328 7.26194C8.49544 7.46511 8.3843 7.74066 8.3843 8.02797V14.528C8.3843 14.8153 8.49544 15.0908 8.69328 15.294C8.89111 15.4972 9.15943 15.6113 9.4392 15.6113C9.71898 15.6113 9.9873 15.4972 10.1851 15.294C10.383 15.0908 10.4941 14.8153 10.4941 14.528V10.563C10.8158 10.1903 11.3591 9.75264 11.9636 9.48722C12.3149 9.33339 12.8434 9.27056 13.2105 9.38972C13.3323 9.42145 13.4407 9.49292 13.5196 9.59339C13.5744 9.66922 13.6588 9.83822 13.6588 10.1946V14.528C13.6588 14.8153 13.7699 15.0908 13.9678 15.294C14.1656 15.4972 14.4339 15.6113 14.7137 15.6113C14.9935 15.6113 15.2618 15.4972 15.4596 15.294C15.6575 15.0908 15.7686 14.8153 15.7686 14.528V10.1946C15.7686 9.46881 15.5893 8.82314 15.2158 8.30531C14.8722 7.83574 14.3913 7.49143 13.8434 7.32272C12.8919 7.01614 11.838 7.18622 11.1344 7.49606C10.9092 7.59556 10.6897 7.70841 10.4772 7.83406C10.433 7.58444 10.3049 7.35869 10.1152 7.19615C9.92548 7.03361 9.68626 6.9446 9.4392 6.94464ZM6.2745 4.77797C5.99473 4.77797 5.72641 4.89211 5.52858 5.09528C5.33074 5.29844 5.2196 5.57399 5.2196 5.86131C5.2196 6.14863 5.33074 6.42417 5.52858 6.62734C5.72641 6.8305 5.99473 6.94464 6.2745 6.94464C6.55428 6.94464 6.8226 6.8305 7.02043 6.62734C7.21826 6.42417 7.3294 6.14863 7.3294 5.86131C7.3294 5.57399 7.21826 5.29844 7.02043 5.09528C6.8226 4.89211 6.55428 4.77797 6.2745 4.77797Z" fill="white"/>
</svg>
