<svg width="20" height="21" viewBox="0 0 20 21" fill="none" xmlns="http://www.w3.org/2000/svg">
<path fill-rule="evenodd" clip-rule="evenodd" d="M1.35415 0.926853C1.75602 0.52549 2.30076 0.300049 2.86872 0.300049C3.43669 0.300049 3.98143 0.52549 4.3833 0.926853L10.0129 6.55363L15.6426 0.923996C16.047 0.53377 16.5885 0.317992 17.1504 0.323139C17.7124 0.328285 18.2498 0.553943 18.647 0.95151C19.0442 1.34908 19.2694 1.88674 19.274 2.4487C19.2786 3.01066 19.0623 3.55196 18.6717 3.956L11.5275 11.1002C11.1256 11.5016 10.5809 11.727 10.0129 11.727C9.44496 11.727 8.90022 11.5016 8.49836 11.1002L1.35415 3.956C1.15499 3.75696 0.996994 3.52062 0.889199 3.2605C0.781404 3.00038 0.725922 2.72157 0.725922 2.44C0.725922 2.15842 0.781404 1.87961 0.889199 1.61949C0.996994 1.35937 1.15499 1.12303 1.35415 0.923996V0.926853ZM1.35415 9.4999C1.75602 9.09853 2.30076 8.87309 2.86872 8.87309C3.43669 8.87309 3.98143 9.09853 4.3833 9.4999L10.0129 15.1267L15.6426 9.49704C16.047 9.10681 16.5885 8.89104 17.1504 8.89618C17.7124 8.90133 18.2498 9.12699 18.647 9.52456C19.0442 9.92212 19.2694 10.4598 19.274 11.0217C19.2786 11.5837 19.0623 12.125 18.6717 12.529L11.5275 19.6732C11.1256 20.0746 10.5809 20.3 10.0129 20.3C9.44496 20.3 8.90022 20.0746 8.49836 19.6732L1.35415 12.529C1.15499 12.33 0.996994 12.0937 0.889199 11.8335C0.781404 11.5734 0.725922 11.2946 0.725922 11.013C0.725922 10.7315 0.781404 10.4527 0.889199 10.1925C0.996994 9.93241 1.15499 9.69608 1.35415 9.49704V9.4999Z" fill="white"/>
</svg>
