<svg width="20" height="23" viewBox="0 0 20 23" fill="none" xmlns="http://www.w3.org/2000/svg">
<path d="M11.25 7.55005C11.25 7.88157 11.1183 8.19951 10.8839 8.43393C10.6495 8.66835 10.3315 8.80005 10 8.80005C9.66848 8.80005 9.35054 8.66835 9.11612 8.43393C8.8817 8.19951 8.75 7.88157 8.75 7.55005C8.75 7.21853 8.8817 6.90059 9.11612 6.66617C9.35054 6.43175 9.66848 6.30005 10 6.30005C10.3315 6.30005 10.6495 6.43175 10.8839 6.66617C11.1183 6.90059 11.25 7.21853 11.25 7.55005Z" stroke="white" stroke-width="2" stroke-linejoin="round"/>
<path d="M16.875 8.17505C16.875 11.9725 14.375 16.3 10 21.3C5.625 16.3 3.125 11.9725 3.125 8.17505C3.125 6.35169 3.84933 4.603 5.13864 3.31369C6.42795 2.02438 8.17664 1.30005 10 1.30005C11.8234 1.30005 13.572 2.02438 14.8614 3.31369C16.1507 4.603 16.875 6.35169 16.875 8.17505Z" stroke="white" stroke-width="2" stroke-linejoin="round"/>
</svg>
