<svg width="20" height="21" viewBox="0 0 20 21" fill="none" xmlns="http://www.w3.org/2000/svg">
<g clip-path="url(#clip0_1_107)">
<path d="M12 3.80005C12 5.18076 10.8807 6.30005 9.5 6.30005C8.11929 6.30005 7 5.18076 7 3.80005C7 2.41934 8.11929 1.30005 9.5 1.30005C10.8807 1.30005 12 2.41934 12 3.80005Z" fill="white"/>
<path d="M12 10.8C12 12.1808 10.8807 13.3 9.5 13.3C8.11929 13.3 7 12.1808 7 10.8C7 9.41934 8.11929 8.30005 9.5 8.30005C10.8807 8.30005 12 9.41934 12 10.8Z" fill="white"/>
<path d="M12 17.8C12 19.1808 10.8807 20.3 9.5 20.3C8.11929 20.3 7 19.1808 7 17.8C7 16.4193 8.11929 15.3 9.5 15.3C10.8807 15.3 12 16.4193 12 17.8Z" fill="white"/>
</g>
<defs>
<clipPath id="clip0_1_107">
<rect width="20" height="20" fill="white" transform="translate(0 0.300049)"/>
</clipPath>
</defs>
</svg>
