<svg width="20" height="21" viewBox="0 0 20 21" fill="none" xmlns="http://www.w3.org/2000/svg">
<path d="M9.00661 5.69155C9.50069 5.63288 9.99973 5.63288 10.4938 5.69155V1.08538C10.4938 0.834618 10.9429 0.430184 11.2167 0.445056L18.9138 0.473561C19.236 0.567337 19.4566 0.834205 19.5 1.168V6.95194C19.5202 7.21096 19.0947 7.67488 18.8597 7.67488H13.5512C14.5464 9.21743 14.5423 11.1723 13.5512 12.7148H18.8597C19.0947 12.7148 19.5202 13.1783 19.5 13.4378V19.2217C19.4566 19.5559 19.236 19.8224 18.9138 19.9161L11.2167 19.9446C10.9429 19.9595 10.4938 19.5551 10.4938 19.3043V14.6982C9.99973 14.7568 9.50069 14.7568 9.00661 14.6982V19.3043C9.00661 19.5551 8.55756 19.9595 8.28367 19.9446L0.586617 19.9161C0.264392 19.8224 0.0437913 19.5555 0.000414788 19.2217V13.4378C-0.0198276 13.1787 0.405675 12.7148 0.640734 12.7148H5.94919C4.95401 11.1809 4.95566 9.20834 5.94919 7.67488H0.641147C0.406088 7.67488 -0.0194145 7.21137 0.000827897 6.95194V1.168C0.0437913 0.833792 0.264392 0.567337 0.586617 0.473561L8.28367 0.444643C8.55756 0.429771 9.00661 0.834205 9.00661 1.08496V5.69155ZM8.54806 5.81176L8.55302 1.24979C8.53649 1.01969 8.33985 0.896998 8.12008 0.897824H0.887361C0.649823 0.896172 0.446986 1.04035 0.453183 1.28986C0.580007 3.05715 0.291244 5.04668 0.453183 6.78794C0.469707 6.96557 0.503582 7.10025 0.672131 7.18865L6.25819 7.21922C6.3751 7.19692 6.63578 6.86808 6.75599 6.76687C7.2794 6.32608 7.88171 5.98609 8.54806 5.81176ZM10.9524 5.81176C11.6191 5.98609 12.221 6.32608 12.744 6.76687C12.8642 6.86808 13.1249 7.19692 13.2418 7.21922L18.6131 7.2217C18.8857 7.22335 19.0485 7.05976 19.0468 6.78794C18.9216 5.03387 19.2075 3.06004 19.0468 1.33159C19.0179 1.02217 18.9212 0.926742 18.6131 0.897824H11.3803C11.1606 0.896585 10.9639 1.01928 10.9474 1.24979L10.9524 5.81176ZM9.49408 6.11705C6.40402 6.31988 4.64872 9.74497 6.30446 12.3806C7.96103 15.0175 11.8893 14.8659 13.3517 12.1228C14.8533 9.30584 12.6692 5.90884 9.49408 6.11705ZM8.54723 14.5784C7.88047 14.3986 7.28147 14.0649 6.7564 13.6224C6.63619 13.5212 6.37552 13.1924 6.25861 13.1701L0.845636 13.1672C0.594879 13.161 0.45153 13.3651 0.453596 13.6013C0.578768 15.3554 0.292896 17.3292 0.453596 19.0577C0.482513 19.3671 0.579181 19.4625 0.887361 19.4915H8.12008C8.33985 19.4927 8.53649 19.37 8.55302 19.1395L8.54723 14.5784ZM19.0452 17.9609V13.4787C19.0452 13.363 18.8341 13.1482 18.6949 13.168L13.2418 13.1701C13.1245 13.1924 12.8642 13.5212 12.744 13.6224C12.2223 14.0616 11.6146 14.4065 10.9482 14.5738V17.92C11.0408 17.8535 11.1027 17.7163 11.1618 17.6172C11.3258 17.3425 12.3218 15.5136 12.4362 15.462C12.528 15.4203 12.6552 15.4343 12.7267 15.5128L14.2738 18.167L16.5231 14.2735C16.5987 14.1909 16.7632 14.1768 16.8557 14.2223L19.0452 17.9609ZM15.0033 19.4828L18.6527 19.4894C19.0051 19.477 19.1162 19.1395 19.0129 18.84L16.7111 14.9043L14.5588 18.6223L15.0033 19.4828ZM11.2581 19.4894H14.4597L12.5796 16.1841C12.5218 16.1717 12.5102 16.218 12.4838 16.2535C11.9186 17.0008 11.5216 18.0885 10.9672 18.8677C10.8879 19.1135 10.978 19.4398 11.2581 19.4894Z" fill="white"/>
<path d="M9.99807 8.00496C10.5925 8.02809 11.1713 8.6585 11.0337 9.25833C10.5892 9.55825 10.6392 9.08152 10.5169 8.82911C10.2079 8.18962 8.92936 8.34123 8.89714 9.10631C8.86698 9.82966 9.84151 9.78918 10.3372 9.95896C11.7753 10.4522 11.3448 12.1831 10.0163 12.4232C9.96709 12.652 10.0914 13.1122 9.72955 13.0907C9.41063 13.0717 9.53663 12.6347 9.48417 12.4232C8.98678 12.3178 8.4799 11.9782 8.32622 11.4742C8.26095 11.2607 8.19568 10.8769 8.52864 10.898C8.80006 10.9149 8.729 11.1871 8.77816 11.3528C9.05412 12.2802 10.9309 12.1402 10.7392 10.9203C10.6124 10.1131 8.86822 10.4944 8.50882 9.5566C8.23327 8.83779 8.75462 8.05577 9.50234 8.00496C9.50854 7.75792 9.41352 7.23533 9.81052 7.30226C10.0766 7.34729 9.98403 7.81369 9.99807 8.00496Z" fill="white"/>
<path d="M3.06775 17.951C3.02107 17.8865 3.02148 17.8109 3.01487 17.7353C2.93804 16.8228 3.07767 15.8053 3.01446 14.8812C3.1008 14.537 3.30942 14.661 3.53994 14.7729C4.17488 15.0823 5.1238 15.6351 5.71454 16.0271C5.98637 16.2077 6.15574 16.3481 5.7984 16.5906C5.061 17.0909 4.13399 17.4792 3.37717 17.97C3.27926 18.0224 3.15988 18.0105 3.06775 17.951ZM3.47095 17.3825L5.2878 16.3291L3.47095 15.317V17.3825Z" fill="white"/>
<path d="M1.34343 1.56045H7.66401C7.79827 1.6881 7.82595 1.90209 7.63261 1.98348L1.50785 2.0157C1.22942 1.99504 1.14886 1.7575 1.34343 1.56045Z" fill="white"/>
<path d="M1.34343 3.13027C1.20917 3.00262 1.18149 2.78863 1.37483 2.70724L7.49959 2.67502C7.77802 2.69568 7.85858 2.93321 7.66401 3.13027H1.34343Z" fill="white"/>
<path d="M7.71606 3.88378C7.84619 4.01432 7.73837 4.29565 7.54214 4.28904H1.4653C1.13523 4.2469 1.16993 3.78794 1.50702 3.8309C3.4474 3.95566 5.58359 3.67103 7.50083 3.8309C7.56486 3.83627 7.6702 3.83792 7.71606 3.88378Z" fill="white"/>
<path d="M1.47728 4.95828L5.31011 4.94753C5.66249 4.97397 5.72776 5.40815 5.35101 5.44492C4.13688 5.3404 2.69389 5.58166 1.50744 5.44492C1.14225 5.40278 1.14721 5.01818 1.47728 4.95828Z" fill="white"/>
<path d="M1.43473 6.11374L5.35101 6.10424C5.75833 6.15175 5.64018 6.60617 5.26756 6.6008C4.09185 6.51363 2.74677 6.71812 1.59171 6.60039C1.34839 6.5756 1.18067 6.5157 1.25999 6.229L1.43473 6.11374Z" fill="white"/>
<path d="M14.9046 1.77527C15.1714 1.73809 15.3119 1.88061 15.4524 2.07601C15.9667 2.79193 16.3393 3.7458 16.8449 4.48403C17.0697 4.89838 16.6661 5.39741 16.2257 5.31148C16.1208 5.29083 16.0357 5.18466 15.9576 5.16483C15.8122 5.12765 14.8996 5.13096 14.7307 5.15739C14.6303 5.17309 14.3506 5.28959 14.3832 5.41394C14.4332 5.60438 14.7575 5.94272 14.812 6.14473C14.8542 6.30129 14.8546 6.48513 14.729 6.60162C14.7021 6.62641 14.4039 6.80157 14.3655 6.81644C13.7727 7.04407 13.669 6.25709 13.3864 5.91586C13.1142 6.0303 12.7758 6.01625 12.5598 5.79441C12.4945 5.72749 12.188 5.19995 12.1657 5.11443C12.0963 4.84467 12.1698 4.56087 12.3796 4.37579C12.7048 4.08992 13.4608 3.85899 13.7574 3.56403C13.8111 3.51074 14.3849 2.57174 14.4006 2.51226C14.4192 2.44079 14.3708 2.36725 14.3783 2.28835C14.4026 2.02189 14.6476 1.81121 14.9046 1.77527ZM15.0293 2.27183C14.8414 2.22019 14.8368 2.29455 14.905 2.45773C15.1202 2.97411 15.832 4.14032 16.1617 4.62985C16.2112 4.70339 16.2629 4.85293 16.3802 4.8236L16.4108 4.67034L15.0293 2.27183ZM14.7695 4.70008H15.6164C15.6296 4.61787 15.5879 4.56045 15.556 4.49188C15.3945 4.14362 15 3.48513 14.7802 3.16001C14.7447 3.10755 14.7183 2.9865 14.646 3.00592L14.2213 3.76356L14.7695 4.70008ZM13.8805 4.08042C13.8239 4.03746 12.6771 4.70958 12.6399 4.77031C12.5321 4.94547 12.8688 5.62793 13.1381 5.50895L14.2944 4.86491L13.8805 4.08042ZM14.3357 6.31121C14.3626 6.27692 14.054 5.73162 13.9999 5.67667C13.9557 5.63164 13.9445 5.59075 13.8611 5.60975C13.7974 5.65974 13.7983 5.66139 13.8164 5.73534C13.8561 5.89645 14.0957 6.13522 14.1502 6.31327L14.3357 6.31121Z" fill="white"/>
<path d="M16.1836 1.32333C16.3174 1.47246 16.0555 2.06899 15.8828 2.09791C15.2673 2.2016 15.8283 0.927568 16.1836 1.32333Z" fill="white"/>
<path d="M17.1705 4.00936C17.2453 4.00151 17.703 4.06265 17.7629 4.10273C17.9323 4.21633 17.8513 4.51955 17.6179 4.53319C17.5452 4.53732 17.1473 4.48113 17.0874 4.44726C16.8586 4.31796 16.9614 4.03167 17.1705 4.00936Z" fill="white"/>
<path d="M16.348 2.70476C16.1765 2.84357 15.9121 2.71179 15.9452 2.49243C15.9621 2.37882 16.3228 1.97893 16.4558 1.9843C16.6809 1.99339 16.7417 2.2049 16.6264 2.38502C16.6111 2.40856 16.3645 2.69154 16.348 2.70476Z" fill="white"/>
<path d="M17.3828 3.69912C17.2143 3.86891 16.3236 3.92261 16.6124 3.48595C16.6764 3.38887 17.1337 3.28023 17.2461 3.2951C17.4221 3.31823 17.4993 3.5818 17.3828 3.69912Z" fill="white"/>
<path d="M16.8036 2.64156C16.9515 2.61884 17.0763 2.74855 17.0622 2.89893C17.0403 3.1344 16.2918 3.52024 16.2468 3.10424C16.2273 2.92371 16.6533 2.66469 16.8036 2.64156Z" fill="white"/>
</svg>
