<svg width="20" height="21" viewBox="0 0 20 21" fill="none" xmlns="http://www.w3.org/2000/svg">
<path d="M15.153 13.1949C15.153 14.3048 14.7921 15.2606 14.0702 16.0622C13.3484 16.8638 12.4108 17.3589 11.2573 17.5475V19.4518C11.2573 19.5534 11.2247 19.6368 11.1594 19.7021C11.0941 19.7674 11.0107 19.8 10.9091 19.8H9.44007C9.34576 19.8 9.26415 19.7656 9.19523 19.6967C9.12632 19.6278 9.09186 19.5461 9.09186 19.4518V17.5475C8.61306 17.4822 8.15059 17.3698 7.70444 17.2102C7.25829 17.0506 6.89013 16.8892 6.59995 16.726C6.30977 16.5627 6.04136 16.3886 5.7947 16.2036C5.54805 16.0187 5.37939 15.8826 5.2887 15.7956C5.19802 15.7085 5.13455 15.6432 5.09828 15.5997C4.97495 15.4474 4.96769 15.2987 5.07651 15.1536L6.19733 13.6845C6.24811 13.612 6.33153 13.5685 6.44761 13.554C6.55642 13.5394 6.64348 13.5721 6.70877 13.6519L6.73053 13.6737C7.55028 14.3918 8.4317 14.8453 9.37478 15.0339C9.6432 15.0919 9.91161 15.1209 10.18 15.1209C10.7676 15.1209 11.2845 14.9649 11.7307 14.653C12.1768 14.3411 12.3999 13.8985 12.3999 13.3254C12.3999 13.1223 12.3455 12.9301 12.2367 12.7487C12.1279 12.5673 12.0063 12.415 11.8721 12.2917C11.7379 12.1684 11.5257 12.0323 11.2356 11.8836C10.9454 11.7349 10.706 11.6188 10.5174 11.5354C10.3287 11.452 10.0386 11.3341 9.64682 11.1817C9.3639 11.0657 9.14083 10.975 8.9776 10.9097C8.81437 10.8444 8.5913 10.7483 8.30838 10.6213C8.02545 10.4944 7.79875 10.3819 7.62827 10.284C7.45779 10.1861 7.25285 10.0573 7.01345 9.89771C6.77406 9.73811 6.58 9.58395 6.43128 9.43523C6.28257 9.28652 6.12478 9.10878 5.95793 8.90203C5.79108 8.69528 5.66231 8.4849 5.57163 8.27089C5.48095 8.05689 5.40478 7.81567 5.34311 7.54726C5.28145 7.27884 5.25062 6.99592 5.25062 6.69849C5.25062 5.69737 5.60609 4.81958 6.31703 4.06512C7.02796 3.31065 7.95291 2.8246 9.09186 2.60697V0.648263C9.09186 0.553955 9.12632 0.472342 9.19523 0.403425C9.26415 0.334508 9.34576 0.300049 9.44007 0.300049H10.9091C11.0107 0.300049 11.0941 0.332694 11.1594 0.397984C11.2247 0.463274 11.2573 0.546701 11.2573 0.648263V2.56344C11.6708 2.60697 12.0716 2.69039 12.4597 2.81372C12.8479 2.93705 13.1634 3.05856 13.4065 3.17826C13.6495 3.29796 13.8798 3.43398 14.0974 3.58632C14.3151 3.73867 14.4565 3.84385 14.5218 3.90189C14.5871 3.95993 14.6415 4.01071 14.685 4.05423C14.8084 4.18481 14.8265 4.32265 14.7395 4.46774L13.858 6.05647C13.8 6.16528 13.7166 6.22332 13.6078 6.23057C13.5062 6.25234 13.4083 6.22695 13.314 6.1544C13.2922 6.13264 13.2396 6.08911 13.1562 6.02382C13.0727 5.95853 12.9313 5.86241 12.7318 5.73546C12.5323 5.6085 12.3201 5.49243 12.0952 5.38724C11.8703 5.28205 11.6001 5.18774 11.2845 5.10432C10.969 5.02089 10.6588 4.97918 10.3541 4.97918C9.66496 4.97918 9.10274 5.13515 8.66747 5.44709C8.2322 5.75903 8.01457 6.16166 8.01457 6.65496C8.01457 6.84358 8.0454 7.01768 8.10706 7.17728C8.16873 7.33688 8.27573 7.48741 8.42807 7.62887C8.58042 7.77033 8.72369 7.89003 8.8579 7.98797C8.99211 8.0859 9.19523 8.19835 9.46728 8.3253C9.73932 8.45225 9.95877 8.55019 10.1256 8.61911C10.2925 8.68802 10.5464 8.78777 10.8873 8.91835C11.2718 9.06344 11.5656 9.1777 11.7688 9.26113C11.9719 9.34455 12.2475 9.47151 12.5958 9.64199C12.944 9.81247 13.2178 9.96662 13.4173 10.1045C13.6168 10.2423 13.8417 10.4237 14.092 10.6485C14.3423 10.8734 14.5345 11.1038 14.6687 11.3395C14.8029 11.5753 14.9172 11.8528 15.0115 12.172C15.1058 12.4912 15.153 12.8321 15.153 13.1949Z" fill="white"/>
</svg>
