<svg width="20" height="21" viewBox="0 0 20 21" fill="none" xmlns="http://www.w3.org/2000/svg">
<path d="M11.942 6.4536C12.0074 6.52347 12.3872 6.23061 12.4506 6.17049C12.732 5.90362 12.8677 5.34105 13.2642 5.2785C14.0448 5.15542 14.4982 6.0007 13.9725 6.57505C14.3239 6.4142 14.5721 6.39714 14.7776 6.76556L14.9669 7.14372C15.081 7.00886 15.064 6.82405 15.1306 6.6571C15.2537 6.3484 15.5193 6.24848 15.8365 6.24604C15.8853 5.99664 15.8975 5.73465 16.0847 5.54008C16.1993 5.42107 16.4353 5.36096 16.5096 5.27444C16.6124 5.15502 16.638 4.89668 16.8138 4.72568C16.8735 4.668 17.5608 4.18869 17.6083 4.17976C17.7708 4.14889 18.4431 4.15701 18.6238 4.17813C19.0548 4.22809 18.8517 4.82316 19.0532 5.08922C19.1133 5.16883 19.2156 5.16395 19.292 5.21595C19.8042 5.56649 19.2762 6.72981 18.7245 6.81958C18.74 6.9654 18.9455 6.96784 19.0499 7.08279C19.5008 7.58078 18.701 8.3501 18.2367 8.50445C18.1002 8.54994 17.8005 8.53166 17.7578 8.67546C17.7237 8.79 17.7615 8.96547 17.7399 9.10439C17.7196 9.23478 17.5823 9.42934 17.5868 9.51667C17.5913 9.61172 17.7391 9.81928 17.7806 9.93627C17.9617 10.4489 18.0109 10.9883 17.6071 11.4087C17.4991 11.5212 17.2671 11.6191 17.1798 11.7125C17.0417 11.8604 17.0056 12.1354 16.7968 12.3043C16.6075 12.4579 15.9251 12.6191 16.2862 12.9331C16.6899 13.2841 17.1892 13.3162 16.8638 14.064C17.4853 14.5055 17.3394 15.2468 17.0531 15.8512C16.5778 16.8528 15.3272 16.7131 14.9681 15.7139C14.9096 15.5506 14.9157 15.4088 14.832 15.2407C14.6996 14.9738 14.3349 14.8207 14.2167 14.5144C13.8125 14.6676 13.4108 14.5372 13.1386 14.2126C13.0399 14.1712 13.0834 14.4791 13.0688 14.5481C12.979 14.9811 12.2223 15.194 11.8425 15.1428C11.5102 15.0977 11.3384 14.7935 11.1804 14.7468C10.9647 14.6834 10.578 14.9852 10.3936 15.0945C10.4168 16.0734 9.69538 16.5697 8.77374 16.2622C8.38542 16.1327 8.0101 15.8134 7.9378 15.3922C7.92033 15.2902 7.91424 14.618 7.81797 14.6192C6.91339 15.5453 5.9162 14.3446 5.7257 13.4405C5.57581 13.5193 5.42187 13.6529 5.23664 13.6261C5.08067 13.6033 4.51485 13.4027 4.35846 13.3259C3.89622 13.0993 3.7305 12.6874 3.15371 12.6845C2.54077 12.6813 1.99485 12.9855 1.5257 12.3811C1.22878 11.9985 1.29621 11.6016 1.08905 11.2743C0.824217 10.8555 0.494798 10.9513 0.405436 10.2519C0.356287 9.8664 0.4359 9.4724 0.354256 9.08449C0.268144 8.67018 -0.0409652 8.34076 0.00452792 7.90045C0.0337735 7.61693 0.250272 7.36793 0.306732 7.06532C0.349788 6.83501 0.329073 6.63436 0.404218 6.39105C0.548008 5.92637 0.92089 5.66682 0.9741 5.13308C1.01959 4.67693 0.8494 4.20372 1.20197 3.81744C1.54642 3.44009 2.00054 3.50142 2.29503 3.89421C2.60089 3.44699 3.0221 3.28371 3.48963 3.63465C3.56721 3.69274 3.67891 3.8475 3.73781 3.8739C3.85845 3.92833 4.1773 3.91574 4.41452 4.00957C4.68098 4.11477 5.32438 4.62413 5.46452 4.62941C5.66111 4.63672 5.88452 4.2874 6.10589 4.17204C7.05962 3.67487 8.18923 5.01732 9.303 4.72893C9.63486 4.64281 9.6178 4.1168 10.1657 4.22931C10.4785 4.29349 10.5886 4.73218 10.7519 4.78011C11.2365 4.81382 11.808 4.66109 12.2625 4.89424C12.717 5.1274 12.7621 5.71718 12.3669 6.0466C12.2735 6.12459 11.81 6.31306 11.9416 6.4536H11.942ZM10.0727 4.91049C9.55118 5.51693 8.74652 5.41701 8.05234 5.20539C7.66931 5.08881 6.8874 4.63591 6.56001 4.66475C6.21475 4.69562 6.07664 5.10912 5.75657 5.20376C5.07173 5.40564 4.73216 4.7732 4.1834 4.56564C3.9405 4.47384 3.74756 4.54167 3.52456 4.45272C3.33081 4.37554 3.2122 4.15214 3.01885 4.06684C2.88319 4.04044 2.76011 4.34995 2.63826 4.44053C2.24994 4.73014 1.99038 4.47343 1.72677 4.18016C1.50783 4.17935 1.59963 5.00635 1.58623 5.17533C1.53423 5.83051 1.21375 5.98649 1.02528 6.48285C0.905861 6.79724 0.941199 7.13397 0.833559 7.46908C0.785223 7.61937 0.620716 7.87039 0.609749 7.98047C0.592689 8.15472 0.846151 8.56213 0.905454 8.77741C1.04681 9.29083 0.961915 9.68687 1.01594 10.1698C1.0594 10.5602 1.414 10.6085 1.61791 10.9489C1.82182 11.2893 1.80679 11.7682 2.01272 12.0164C2.22922 12.2771 2.90187 12.0663 3.22276 12.074C4.01361 12.0935 4.05992 12.4928 4.62939 12.7711C4.82314 12.8657 5.03477 12.9027 5.23624 12.9733C5.36459 12.9843 5.48483 12.7702 5.64486 12.7276C6.26877 12.5619 6.26674 13.2219 6.42759 13.6127C6.53523 13.8743 6.86709 14.4263 7.20138 14.3255C7.26556 14.306 7.35736 14.1744 7.4455 14.1216C7.76436 13.9307 8.11937 14.0042 8.34399 14.2959C8.71809 14.7821 8.22457 15.4121 8.95449 15.6757C9.21201 15.7687 9.51503 15.802 9.68604 15.5494C9.85988 15.2927 9.66979 15.0327 9.91188 14.7191C10.0695 14.5144 10.7368 14.1671 10.9915 14.1334C11.6171 14.0506 11.68 14.5908 12.115 14.527C12.2243 14.5112 12.3523 14.4303 12.4668 14.4104C12.4518 14.1476 12.321 14.0432 12.4627 13.7768C12.6549 13.4149 13.1082 13.4953 13.4063 13.6618C13.6427 13.7938 13.754 14.0843 14.044 13.8958C14.1626 13.8186 14.1647 13.7037 14.3479 13.6704C14.7573 13.596 14.6826 14.109 14.8333 14.3471C14.9259 14.4933 15.0961 14.566 15.2126 14.6988C15.51 15.0372 15.4409 15.4125 15.6387 15.6944C15.8069 15.934 16.0998 16.0023 16.3435 15.8301C16.5157 15.7086 16.7322 15.0116 16.6948 14.8024C16.6424 14.5067 16.2379 14.7252 16.1164 14.445C15.995 14.1647 16.3057 13.9823 16.3244 13.7114C16.1676 13.5217 15.9044 13.4591 15.7423 13.2747C15.3479 12.8251 15.5949 12.3543 16.0076 12.0415C16.1197 11.9566 16.3877 11.8559 16.4401 11.8039C16.5145 11.7292 16.5961 11.4306 16.6948 11.3072C16.9475 10.9899 17.3533 11.1045 17.3037 10.4952C17.2688 10.0662 17.0494 9.94114 16.9081 9.63203C16.7667 9.32292 17.0608 9.25306 17.1238 9.05524C17.2119 8.77782 17.0754 8.48048 17.3443 8.17909C17.5957 7.8976 17.904 8.01581 18.1717 7.86917C18.242 7.83058 18.5089 7.59134 18.519 7.52269C18.3513 7.31107 18.1124 7.28913 18.0755 6.96215C17.9934 6.23589 18.8756 6.38252 18.8858 5.68509C18.506 5.57664 18.4158 5.13796 18.3228 4.80529C18.2696 4.76711 17.8326 4.77726 17.7529 4.80976C17.7046 4.82925 17.2822 5.14364 17.2424 5.19279C17.101 5.36542 17.1193 5.53562 16.9199 5.72328C16.8171 5.81995 16.5811 5.91743 16.5307 5.98405C16.4511 6.08885 16.4706 6.2891 16.432 6.41339C16.315 6.79074 16.0331 6.80821 15.6993 6.89919C15.6542 7.34844 15.1907 8.15066 14.6501 7.82815C14.4279 7.69573 14.4319 7.51944 14.3434 7.32285C14.3219 7.27492 14.3625 7.24973 14.2585 7.26598C14.0769 7.78915 14.2991 8.72907 13.466 8.64702C12.8117 8.58284 12.4774 7.92807 12.5103 7.32528C12.5444 6.69894 13.1841 6.59008 13.5075 6.17008C13.6541 5.97917 13.6179 5.85935 13.3641 5.90403C13.1756 6.47107 12.141 7.42358 11.5569 6.94184C11.1804 6.63151 11.2974 6.02751 11.6703 5.75415C11.7572 5.69037 12.1077 5.56567 12.0245 5.43894C11.5773 5.27931 11.0772 5.46941 10.6414 5.37964C10.4192 5.33415 10.1568 5.11684 10.0744 4.91009L10.0727 4.91049ZM13.5257 8.03815C13.5404 7.67461 13.6025 7.26842 13.7382 6.93006C13.7739 6.8407 13.8462 6.78871 13.8507 6.69772C13.7581 6.82527 13.1545 7.2083 13.1277 7.29441C13.0436 7.56494 13.2166 7.99306 13.5257 8.03815Z" fill="white"/>
</svg>
