<svg width="20" height="21" viewBox="0 0 20 21" fill="none" xmlns="http://www.w3.org/2000/svg">
<g clip-path="url(#clip0_1_131)">
<path d="M10.5737 6.73298C10.5737 6.49063 10.6699 6.25821 10.8413 6.08684C11.0127 5.91547 11.2451 5.8192 11.4875 5.8192H16.361C16.5416 5.81936 16.7181 5.87304 16.8682 5.97345C17.0183 6.07387 17.1353 6.21653 17.2044 6.3834C17.2735 6.55027 17.2916 6.73388 17.2564 6.91103C17.2212 7.08818 17.1343 7.25093 17.0067 7.37872L14.704 9.6839C15.0841 9.77649 15.4399 9.90321 15.7603 10.0726C16.6643 10.5489 17.276 11.3677 17.276 12.5154C17.276 13.311 16.9945 13.9872 16.5096 14.4977C16.0393 14.9948 15.4204 15.2933 14.7941 15.4444C13.5636 15.7405 12.0832 15.5212 10.9879 14.8023C10.8006 14.6631 10.6736 14.4576 10.6328 14.2279C10.592 13.9981 10.6405 13.7614 10.7684 13.5663C10.8964 13.3711 11.094 13.2322 11.321 13.1779C11.548 13.1237 11.7871 13.1582 11.9894 13.2745C12.64 13.7009 13.5977 13.852 14.3665 13.6668C14.7393 13.5778 15.0122 13.4219 15.1828 13.2416C15.34 13.0759 15.4484 12.8517 15.4484 12.5154C15.4484 12.1402 15.2985 11.8953 14.9074 11.6894C14.453 11.4493 13.7134 11.3019 12.7071 11.3019C12.5264 11.3017 12.3499 11.2481 12.1998 11.1476C12.0497 11.0472 11.9327 10.9046 11.8636 10.7377C11.7945 10.5708 11.7764 10.3872 11.8116 10.2101C11.8468 10.0329 11.9337 9.87017 12.0613 9.74238L14.1569 7.64677H11.4875C11.2451 7.64677 11.0127 7.55049 10.8413 7.37913C10.6699 7.20776 10.5737 6.97533 10.5737 6.73298ZM6.20334 13.7545C5.77691 13.6936 5.26519 13.8922 5.00567 14.4514C4.95674 14.5627 4.88607 14.6632 4.79782 14.7468C4.70957 14.8305 4.60551 14.8957 4.49174 14.9386C4.37797 14.9815 4.25677 15.0013 4.13525 14.9968C4.01374 14.9923 3.89434 14.9636 3.78406 14.9123C3.67379 14.8611 3.57485 14.7884 3.49305 14.6984C3.41124 14.6084 3.34822 14.503 3.30767 14.3884C3.26712 14.2737 3.24986 14.1522 3.2569 14.0308C3.26395 13.9094 3.29515 13.7906 3.34868 13.6814C3.96761 12.3485 5.28468 11.7746 6.46529 11.9452C7.68367 12.1219 8.7461 13.0966 8.7461 14.6525C8.7461 16.3984 7.4205 17.3231 6.5652 17.9189C6.18994 18.1821 5.86951 18.4026 5.62461 18.6171H8.13691C8.37926 18.6171 8.61169 18.7133 8.78305 18.8847C8.95442 19.0561 9.05069 19.2885 9.05069 19.5308C9.05069 19.7732 8.95442 20.0056 8.78305 20.177C8.61169 20.3484 8.37926 20.4446 8.13691 20.4446H4.17718C3.93483 20.4446 3.7024 20.3484 3.53103 20.177C3.35966 20.0056 3.26339 19.7732 3.26339 19.5308C3.26339 18.6902 3.62891 18.0554 4.07971 17.5693C4.5037 17.116 5.05441 16.7456 5.48084 16.4483C6.45555 15.766 6.91853 15.3469 6.91853 14.6525C6.91853 14.0762 6.59322 13.8118 6.20334 13.7545ZM6.43605 1.05412C6.58181 1.13215 6.70366 1.24827 6.78862 1.39009C6.87359 1.53192 6.91849 1.69414 6.91853 1.85947V7.67113H7.7848C8.02715 7.67113 8.25957 7.76741 8.43094 7.93878C8.60231 8.11014 8.69858 8.34257 8.69858 8.58492C8.69858 8.82727 8.60231 9.0597 8.43094 9.23106C8.25957 9.40243 8.02715 9.4987 7.7848 9.4987H4.18814C3.94579 9.4987 3.71337 9.40243 3.542 9.23106C3.37063 9.0597 3.27436 8.82727 3.27436 8.58492C3.27436 8.34257 3.37063 8.11014 3.542 7.93878C3.71337 7.76741 3.94579 7.67113 4.18814 7.67113H5.09096V3.5652L4.68402 3.83689C4.48237 3.96815 4.23708 4.01458 4.0014 3.96609C3.76573 3.91761 3.55869 3.77813 3.42522 3.57793C3.29175 3.37773 3.24263 3.13297 3.28852 2.89677C3.33441 2.66058 3.47161 2.45202 3.67033 2.31636L5.4979 1.09798C5.63555 1.00626 5.79552 0.953618 5.96074 0.945679C6.12596 0.93774 6.29024 0.974797 6.43605 1.0529V1.05412Z" fill="white"/>
</g>
<defs>
<clipPath id="clip0_1_131">
<rect width="20" height="20" fill="white" transform="translate(0 0.300049)"/>
</clipPath>
</defs>
</svg>
