<svg width="20" height="21" viewBox="0 0 20 21" fill="none" xmlns="http://www.w3.org/2000/svg">
<g clip-path="url(#clip0_1_123)">
<path d="M10.7748 9.06431V7.11236H8.82282V9.06431H1.46396V12.9682H3.41592V11.0163H8.82282V12.9682H10.7748V11.0163H16.1426V12.9682H18.0946V9.06431H10.7748Z" fill="white"/>
<path d="M9.7988 5.17993C11.1463 5.17993 12.2387 4.08753 12.2387 2.73999C12.2387 1.39245 11.1463 0.300049 9.7988 0.300049C8.45126 0.300049 7.35886 1.39245 7.35886 2.73999C7.35886 4.08753 8.45126 5.17993 9.7988 5.17993Z" fill="white"/>
<path d="M2.43994 19.8C3.78748 19.8 4.87988 18.7077 4.87988 17.3601C4.87988 16.0126 3.78748 14.9202 2.43994 14.9202C1.0924 14.9202 0 16.0126 0 17.3601C0 18.7077 1.0924 19.8 2.43994 19.8Z" fill="white"/>
<path d="M9.7988 19.8C11.1463 19.8 12.2387 18.7077 12.2387 17.3601C12.2387 16.0126 11.1463 14.9202 9.7988 14.9202C8.45126 14.9202 7.35886 16.0126 7.35886 17.3601C7.35886 18.7077 8.45126 19.8 9.7988 19.8Z" fill="white"/>
<path d="M17.1186 19.8C18.4662 19.8 19.5586 18.7077 19.5586 17.3601C19.5586 16.0126 18.4662 14.9202 17.1186 14.9202C15.7711 14.9202 14.6787 16.0126 14.6787 17.3601C14.6787 18.7077 15.7711 19.8 17.1186 19.8Z" fill="white"/>
</g>
<defs>
<clipPath id="clip0_1_123">
<rect width="20" height="20" fill="white" transform="translate(0 0.300049)"/>
</clipPath>
</defs>
</svg>
