<svg width="20" height="21" viewBox="0 0 20 21" fill="none" xmlns="http://www.w3.org/2000/svg">
<path d="M3.51391 0.482698C4.63593 0.330717 5.27272 0.865622 6.2657 1.10548C7.75833 1.4659 9.04975 0.335812 10.6345 0.47251C11.5256 0.549349 12.4757 1.11737 13.3528 1.19293C14.8446 1.32157 16.4089 -0.321782 17.8511 0.897462C19.2932 2.11671 18.0035 4.10307 17.8001 5.5142C17.5543 7.21741 18.5914 8.83104 18.4696 10.6412C18.3864 11.8732 17.6995 13.1824 17.7445 14.4195C17.801 15.9716 19.3526 18.2602 17.8273 19.5083C16.6276 20.4903 15.4007 19.5465 14.2065 19.2727C12.7419 18.9373 11.4628 20.0364 9.91196 19.9163C8.99838 19.8454 8.04404 19.2706 7.15338 19.1938C5.73758 19.0719 4.42409 20.4737 2.98664 19.7096C0.99688 18.6521 2.68183 15.8043 2.75994 14.1618C2.82362 12.8118 1.98943 11.5026 2.00004 10.1343C2.01065 8.76141 2.81089 7.31717 2.76164 5.9676C2.70603 4.44057 1.30891 2.45463 2.46362 1.0885C2.69117 0.819773 3.1607 0.53067 3.51391 0.482698ZM3.72617 1.20482C1.95292 1.45614 3.1607 4.00543 3.36787 5.02217C3.70197 6.66297 3.22098 7.52944 2.9081 9.04712C2.45641 11.2394 3.6557 12.4518 3.47612 14.4972C3.38358 15.5492 2.45556 17.6595 2.86608 18.557C3.46508 19.8649 5.22475 18.7459 6.15574 18.5357C7.51423 18.2292 8.30852 18.8236 9.55154 19.0881C11.3278 19.4659 12.5436 18.1282 14.3491 18.5357C15.278 18.7455 17.0801 19.8823 17.6507 18.5264C18.037 17.6086 17.0979 15.7742 17.022 14.7167C16.9179 13.2746 17.5051 12.1916 17.6914 10.8403C17.9394 9.0416 16.8908 7.48783 17.022 5.67085C17.0979 4.61717 18.054 2.73694 17.6392 1.83057C17.0402 0.522604 15.2805 1.64166 14.3496 1.8518C12.9911 2.15831 12.1968 1.56397 10.9538 1.29949C9.32866 0.953924 8.28135 2.00293 6.81249 1.95963C5.81315 1.93034 4.60834 1.08001 3.72617 1.20482Z" fill="white"/>
<path d="M4.24579 17.665V2.74288L4.30947 2.6792H16.1963L16.2599 2.74288V17.6438L4.24579 17.665ZM5.00994 3.44336V16.349L5.35466 15.2291C5.63187 14.681 5.95579 14.3537 6.5098 14.0918C6.87786 13.9177 7.9689 13.6414 8.18116 13.407C8.32635 13.247 8.45074 12.5987 8.39598 12.3899C8.36711 12.2799 8.05593 11.8698 7.97399 11.7081C7.82499 11.413 7.72267 10.9558 7.57494 10.7062C7.48069 10.547 7.27395 10.4396 7.16739 10.2222C6.91437 9.70769 7.05574 9.40457 7.04937 8.89684C7.04003 8.14797 6.84051 7.52307 7.07824 6.76401C7.48239 5.47217 9.0005 4.81118 10.2766 5.07566C10.4622 5.1143 10.9096 5.34694 10.9724 5.35033C11.0535 5.35458 11.1779 5.28199 11.2764 5.27392C12.2082 5.19708 13.1239 5.90774 13.4275 6.76486C13.6801 7.47764 13.4657 8.17514 13.4568 8.89726C13.4504 9.405 13.5913 9.70811 13.3388 10.2226C13.2318 10.44 13.025 10.547 12.9312 10.7066C12.792 10.9418 12.6969 11.3744 12.561 11.6524C12.4714 11.8363 12.1412 12.2727 12.1106 12.3903C12.0486 12.6267 12.1688 13.2724 12.3662 13.4346C12.7181 13.7237 13.5663 13.8838 14.0256 14.1054C14.5648 14.366 14.8789 14.6942 15.1515 15.2295L15.4962 16.3494V3.44336H5.00994ZM14.7316 16.9433V16.3278C14.7316 15.7793 14.1929 15.0041 13.6988 14.771C12.3853 14.1512 11.4042 14.4153 11.3358 12.507C11.3176 11.9929 11.4882 12.0282 11.709 11.6499C11.9637 11.2135 12.0779 10.5949 12.274 10.2621C12.3806 10.0817 12.657 10.0813 12.7266 9.73825C12.775 9.50052 12.6896 9.30311 12.6935 9.11123C12.7079 8.44429 12.9452 7.56467 12.6871 6.95208C12.4574 6.40656 11.9051 5.93661 11.2738 6.03595C11.1439 6.05632 11.0314 6.1684 10.8918 6.15906C10.761 6.15057 10.4367 5.9001 10.2312 5.84194C9.59017 5.66109 8.78399 5.8309 8.27796 6.26604C7.39494 7.02425 7.79017 8.11189 7.8114 9.1108C7.81565 9.31967 7.7214 9.51453 7.78848 9.77009C7.87041 10.08 8.13149 10.0932 8.23083 10.2617C8.42654 10.5928 8.54201 11.2135 8.79588 11.6495C9.0298 12.0507 9.19706 11.9967 9.16904 12.5491C9.13678 13.1858 8.96739 13.8163 8.40192 14.1593C7.43102 14.7481 6.46268 14.4573 5.949 15.7394C5.90315 15.8536 5.77324 16.2301 5.77324 16.3278V16.9433H14.7316Z" fill="white"/>
</svg>
