<svg width="20" height="21" viewBox="0 0 20 21" fill="none" xmlns="http://www.w3.org/2000/svg">
<path d="M2.83333 8.96672V8.30005H2.16666V8.96672H2.83333ZM8.16666 8.96672V8.30005H7.5V8.96672H8.16666ZM8.16666 14.3H7.5V14.9667H8.16666V14.3ZM17.5 4.96672H18.1667V4.69072L17.972 4.49472L17.5 4.96672ZM13.5 0.966716L13.972 0.494715L13.776 0.300049H13.5V0.966716ZM2.83333 9.63338H4.16666V8.30005H2.83333V9.63338ZM3.49999 14.9667V11.6334H2.16666V14.9667H3.49999ZM3.49999 11.6334V8.96672H2.16666V11.6334H3.49999ZM4.16666 10.9667H2.83333V12.3H4.16666V10.9667ZM4.83333 10.3C4.83333 10.4769 4.76309 10.6464 4.63807 10.7715C4.51304 10.8965 4.34347 10.9667 4.16666 10.9667V12.3C4.69709 12.3 5.2058 12.0893 5.58088 11.7143C5.95595 11.3392 6.16666 10.8305 6.16666 10.3H4.83333ZM4.16666 9.63338C4.34347 9.63338 4.51304 9.70362 4.63807 9.82864C4.76309 9.95367 4.83333 10.1232 4.83333 10.3H6.16666C6.16666 9.76962 5.95595 9.26091 5.58088 8.88584C5.2058 8.51076 4.69709 8.30005 4.16666 8.30005V9.63338ZM7.5 8.96672V14.3H8.83333V8.96672H7.5ZM8.16666 14.9667H9.5V13.6334H8.16666V14.9667ZM11.5 12.9667V10.3H10.1667V12.9667H11.5ZM9.5 8.30005H8.16666V9.63338H9.5V8.30005ZM11.5 10.3C11.5 9.76962 11.2893 9.26091 10.9142 8.88584C10.5391 8.51076 10.0304 8.30005 9.5 8.30005V9.63338C9.67681 9.63338 9.84638 9.70362 9.9714 9.82864C10.0964 9.95367 10.1667 10.1232 10.1667 10.3H11.5ZM9.5 14.9667C10.0304 14.9667 10.5391 14.756 10.9142 14.3809C11.2893 14.0059 11.5 13.4971 11.5 12.9667H10.1667C10.1667 13.1435 10.0964 13.3131 9.9714 13.4381C9.84638 13.5631 9.67681 13.6334 9.5 13.6334V14.9667ZM12.8333 8.30005V14.9667H14.1667V8.30005H12.8333ZM13.5 9.63338H16.8333V8.30005H13.5V9.63338ZM13.5 12.3H15.5V10.9667H13.5V12.3ZM2.16666 6.96672V2.30005H0.833328V6.96672H2.16666ZM16.8333 4.96672V6.96672H18.1667V4.96672H16.8333ZM2.83333 1.63338H13.5V0.300049H2.83333V1.63338ZM13.028 1.43872L17.028 5.43872L17.972 4.49472L13.972 0.494715L13.028 1.43872ZM2.16666 2.30005C2.16666 2.12324 2.2369 1.95367 2.36192 1.82864C2.48695 1.70362 2.65652 1.63338 2.83333 1.63338V0.300049C2.3029 0.300049 1.79419 0.510762 1.41911 0.885835C1.04404 1.26091 0.833328 1.76962 0.833328 2.30005H2.16666ZM0.833328 16.3V18.3H2.16666V16.3H0.833328ZM2.83333 20.3H16.1667V18.9667H2.83333V20.3ZM18.1667 18.3V16.3H16.8333V18.3H18.1667ZM16.1667 20.3C16.6971 20.3 17.2058 20.0893 17.5809 19.7143C17.9559 19.3392 18.1667 18.8305 18.1667 18.3H16.8333C16.8333 18.4769 16.7631 18.6464 16.6381 18.7715C16.513 18.8965 16.3435 18.9667 16.1667 18.9667V20.3ZM0.833328 18.3C0.833328 18.8305 1.04404 19.3392 1.41911 19.7143C1.79419 20.0893 2.3029 20.3 2.83333 20.3V18.9667C2.65652 18.9667 2.48695 18.8965 2.36192 18.7715C2.2369 18.6464 2.16666 18.4769 2.16666 18.3H0.833328Z" fill="white"/>
</svg>
