<svg width="20" height="21" viewBox="0 0 20 21" fill="none" xmlns="http://www.w3.org/2000/svg">
<path d="M4.66666 2.85783C4.25479 3.14416 3.91838 3.52597 3.68618 3.97062C3.45399 4.41527 3.33292 4.90954 3.33333 5.41116C3.33322 5.94794 3.47199 6.47562 3.73616 6.9429C4.00032 7.41018 4.3809 7.80115 4.84089 8.07783M15.3333 2.85783C15.7452 3.14416 16.0816 3.52597 16.3138 3.97062C16.546 4.41527 16.6671 4.90954 16.6667 5.41116C16.6671 5.91286 16.5461 6.40721 16.3139 6.85194C16.0817 7.29668 15.7453 7.67856 15.3333 7.96494M18.8889 18.3V17.7667C18.8889 15.7756 18.8889 14.78 18.5013 14.0192C18.1605 13.3502 17.6165 12.8063 16.9476 12.4654M1.11111 18.3V17.7667C1.11111 15.7756 1.11111 14.78 1.49866 14.0192C1.83954 13.3502 2.38345 12.8063 3.05244 12.4654M10 8.52227C10.4086 8.52227 10.8131 8.4418 11.1906 8.28545C11.568 8.1291 11.911 7.89994 12.1999 7.61105C12.4888 7.32215 12.7179 6.97919 12.8743 6.60173C13.0306 6.22427 13.1111 5.81972 13.1111 5.41116C13.1111 5.0026 13.0306 4.59805 12.8743 4.22059C12.7179 3.84313 12.4888 3.50017 12.1999 3.21127C11.911 2.92238 11.568 2.69322 11.1906 2.53687C10.8131 2.38052 10.4086 2.30005 10 2.30005C9.17488 2.30005 8.38356 2.62783 7.80011 3.21127C7.21666 3.79472 6.88889 4.58604 6.88889 5.41116C6.88889 6.23628 7.21666 7.0276 7.80011 7.61105C8.38356 8.19449 9.17488 8.52227 10 8.52227ZM4.66666 17.4112V18.3H15.3333V17.4112C15.3333 15.7547 15.3333 14.9263 15.0627 14.2725C14.7017 13.4013 14.0095 12.7093 13.1382 12.3485C12.4853 12.0778 11.6569 12.0778 10 12.0778C8.34311 12.0778 7.51511 12.0778 6.86177 12.3485C6.43034 12.5272 6.03833 12.7891 5.70813 13.1193C5.37793 13.4495 5.11601 13.8415 4.93733 14.2729C4.66666 14.9263 4.66666 15.7547 4.66666 17.4112Z" stroke="white" stroke-width="2" stroke-linecap="round" stroke-linejoin="round"/>
</svg>
