<svg width="21" height="21" viewBox="0 0 21 21" fill="none" xmlns="http://www.w3.org/2000/svg">
<path d="M14.7117 14.2825L15.18 13.8172L14.0924 12.7245L13.6261 13.1897L14.7117 14.2825ZM16.7504 13.6221L18.7131 14.6892L19.4474 13.3355L17.4858 12.2695L16.7504 13.6221ZM19.09 16.809L17.6316 18.2603L18.7172 19.352L20.1756 17.9018L19.09 16.809ZM16.7422 18.7266C15.253 18.8662 11.4015 18.742 7.22961 14.5947L6.14299 15.6865C10.6949 20.2127 15.028 20.4345 16.886 20.261L16.7422 18.7266ZM7.22961 14.5947C3.25388 10.6406 2.59452 7.31599 2.51235 5.87298L0.973825 5.96028C1.07653 7.77611 1.89304 11.4612 6.14299 15.6865L7.22961 14.5947ZM8.64181 8.24753L8.93657 7.95379L7.852 6.86203L7.55724 7.15474L8.64181 8.24753ZM9.17074 4.22045L7.87665 2.49089L6.64316 3.41524L7.93725 5.14377L9.17074 4.22045ZM3.52092 2.11396L1.90844 3.71616L2.99507 4.80895L4.60651 3.20675L3.52092 2.11396ZM8.09952 7.70113C7.55519 7.15474 7.55519 7.15474 7.55519 7.15679H7.55313L7.55005 7.1609C7.50124 7.21011 7.45754 7.26414 7.41962 7.32215C7.36415 7.40431 7.30356 7.51215 7.25221 7.64875C7.12719 8.00137 7.09604 8.38044 7.16182 8.74873C7.29945 9.63713 7.91157 10.8111 9.47886 12.3701L10.5655 11.2773C9.09782 9.81892 8.74862 8.93154 8.68392 8.51251C8.65311 8.31326 8.68495 8.21466 8.69419 8.19206C8.70035 8.17837 8.70035 8.17632 8.69419 8.1859C8.68503 8.20007 8.67473 8.21347 8.66338 8.22596L8.65311 8.23623L8.64284 8.24547L8.09952 7.70113ZM9.47886 12.3701C11.0472 13.9292 12.2273 14.5372 13.1167 14.6728C13.5717 14.7426 13.9383 14.6872 14.2167 14.5834C14.3726 14.5264 14.5182 14.4445 14.648 14.341L14.6994 14.2948L14.7066 14.2887L14.7096 14.2856L14.7107 14.2835C14.7107 14.2835 14.7117 14.2825 14.1684 13.7361C13.624 13.1897 13.6271 13.1887 13.6271 13.1887L13.6292 13.1866L13.6312 13.1846L13.6374 13.1794L13.6477 13.1692L13.6867 13.1384C13.6963 13.1322 13.6939 13.1329 13.6795 13.1404C13.6538 13.1497 13.5532 13.1815 13.3509 13.1507C12.9257 13.0849 12.0321 12.7358 10.5655 11.2773L9.47886 12.3701ZM7.87665 2.48986C6.82906 1.09307 4.77084 0.871225 3.52092 2.11396L4.60651 3.20675C5.15291 2.66343 6.12245 2.71992 6.64316 3.41524L7.87665 2.48986ZM2.51338 5.874C2.49284 5.51864 2.65614 5.14685 2.99507 4.80998L1.90742 3.71719C1.35589 4.26564 0.921445 5.04209 0.973825 5.96028L2.51338 5.874ZM17.6316 18.2603C17.3502 18.5417 17.0462 18.6999 16.7432 18.7276L16.886 20.261C17.6409 20.1901 18.2581 19.8101 18.7182 19.3531L17.6316 18.2603ZM8.93657 7.95379C9.94822 6.9483 10.0232 5.35945 9.17177 4.22147L7.93828 5.1448C8.35218 5.69838 8.29056 6.4245 7.85098 6.86306L8.93657 7.95379ZM18.7141 14.6902C19.5532 15.1462 19.6837 16.2205 19.0911 16.8101L20.1777 17.9018C21.5539 16.5328 21.1298 14.2496 19.4485 13.3366L18.7141 14.6902ZM15.18 13.8183C15.5744 13.4259 16.2091 13.3294 16.7514 13.6231L17.4868 12.2705C16.3735 11.6645 14.9931 11.8319 14.0934 12.7255L15.18 13.8183Z" fill="white"/>
</svg>
