<?xml version="1.0" encoding="UTF-8"?>
<svg version="1.1" xmlns="http://www.w3.org/2000/svg" width="256" height="256">
<path d="M0 0 C11.24553151 5.62276576 11.24553151 5.62276576 15.0234375 7.953125 C15.88412842 8.48075439 16.74481934 9.00838379 17.6315918 9.55200195 C18.5369165 10.11234131 19.44224121 10.67268066 20.375 11.25 C22.40997373 12.49899535 24.44513851 13.74767944 26.48046875 14.99609375 C28.0744751 15.97618408 28.0744751 15.97618408 29.70068359 16.97607422 C34.76661563 20.08370901 39.84822992 23.16544179 44.93011475 26.24688721 C47.90045761 28.0479922 50.87018494 29.85011119 53.83984375 31.65234375 C54.43392029 32.01283813 55.02799683 32.37333252 55.64007568 32.74475098 C59.1519369 34.87636879 62.66174609 37.01131324 66.16957092 39.14956665 C68.45723222 40.54389583 70.74571423 41.93687528 73.03421021 43.32983398 C74.74226441 44.3702879 76.44913819 45.41267883 78.15600586 46.45507812 C84.68473477 50.43304488 91.2573354 54.32405578 97.875 58.15234375 C100.10461928 59.44934666 102.33367469 60.74731401 104.56262207 62.04547119 C106.01410899 62.88623845 107.46877174 63.72154808 108.92663574 64.5512085 C110.95366124 65.70483015 112.96965386 66.875842 114.984375 68.05078125 C115.59539062 68.39173325 116.20640625 68.73268524 116.8359375 69.08396912 C118.50683594 70.0715332 118.50683594 70.0715332 121 72 C121 73.32 121 74.64 121 76 C118.9375 77.71313477 118.9375 77.71313477 116 79.44140625 C114.90075195 80.09810303 113.80150391 80.7547998 112.66894531 81.43139648 C111.44608702 82.14197686 110.22310159 82.85233849 109 83.5625 C107.74234977 84.30730184 106.48552751 85.05350337 105.22949219 85.80102539 C102.5555631 87.38896177 99.87664484 88.96796544 97.19335938 90.54003906 C92.97944695 93.00927066 88.77744174 95.49823238 84.578125 97.9921875 C83.88705658 98.40257263 83.19598816 98.81295776 82.48397827 99.23577881 C81.09684903 100.05955358 79.70975372 100.88338548 78.32269287 101.70727539 C76.24611847 102.93980384 74.1683617 104.1703176 72.09033203 105.40039062 C65.06366751 109.56252935 58.0699144 113.76315844 51.17553711 118.1418457 C42.87799801 123.3860167 34.42001762 128.37307235 25.99365234 133.40649414 C24.7522756 134.14859516 23.51090186 134.89070122 22.26953125 135.6328125 C21.36294769 136.17375801 21.36294769 136.17375801 20.43804932 136.72563171 C17.35820335 138.56810695 14.29431766 140.4319241 11.25146484 142.33496094 C10.65363693 142.70797333 10.05580902 143.08098572 9.43986511 143.46530151 C7.79686152 144.49357764 6.15746783 145.52761528 4.51831055 146.56201172 C2 148 2 148 0 148 C0 99.16 0 50.32 0 0 Z " fill="#FF9933" transform="translate(134,54)"/>
<path d="M0 0 C4.84576984 2.42288492 9.34836245 4.71340033 13.921875 7.51171875 C15.01467773 8.17800293 16.10748047 8.84428711 17.23339844 9.53076172 C17.80505737 9.88136658 18.37671631 10.23197144 18.96569824 10.59320068 C20.80119047 11.71889475 22.63906848 12.84060328 24.47753906 13.96142578 C27.05105638 15.53087861 29.62362731 17.10186327 32.1953125 18.67431641 C38.04211676 22.24903207 43.89458207 25.814409 49.75 29.375 C50.31525391 29.71889771 50.88050781 30.06279541 51.46289062 30.41711426 C61.87069663 36.74592664 72.34308723 42.96326373 82.82635498 49.16604614 C91.58610995 54.35095883 100.2997431 59.59391126 108.8984375 65.04296875 C113.22104709 67.77045918 117.60069302 70.39848674 122 73 C120.65955077 77.02134768 118.14103882 77.99244014 114.640625 79.9921875 C113.98918518 80.37412262 113.33774536 80.75605774 112.66656494 81.14956665 C111.26409166 81.97067386 109.85927216 82.78778397 108.45239258 83.60131836 C104.7446159 85.74558961 101.05342186 87.91813025 97.359375 90.0859375 C96.6269458 90.51457092 95.8945166 90.94320435 95.13989258 91.38482666 C89.53676157 94.66819308 83.99990076 98.04630987 78.5 101.5 C69.64758042 107.04145038 60.67658349 112.37209076 51.6875 117.6875 C41.67875706 123.60671402 31.72449452 129.58461715 21.8984375 135.80371094 C17.98842207 138.26758383 14.05873513 140.69923539 10.125 143.125 C9.34398926 143.61162109 8.56297852 144.09824219 7.75830078 144.59960938 C7.03626465 145.04369141 6.31422852 145.48777344 5.5703125 145.9453125 C4.92852051 146.34250488 4.28672852 146.73969727 3.62548828 147.14892578 C2 148 2 148 0 148 C0 99.16 0 50.32 0 0 Z " fill="#FF9933" transform="translate(0,54)"/>
<path d="M0 0 C11.24553151 5.62276576 11.24553151 5.62276576 15.0234375 7.953125 C15.88412842 8.48075439 16.74481934 9.00838379 17.6315918 9.55200195 C18.5369165 10.11234131 19.44224121 10.67268066 20.375 11.25 C22.40997373 12.49899535 24.44513851 13.74767944 26.48046875 14.99609375 C28.0744751 15.97618408 28.0744751 15.97618408 29.70068359 16.97607422 C34.76678992 20.08381593 39.84859613 23.16562435 44.93066406 26.24716187 C47.89830741 28.04672867 50.86514475 29.84762328 53.83203125 31.6484375 C54.42569489 32.00872543 55.01935852 32.36901337 55.63101196 32.74021912 C59.16206917 34.88343072 62.69202636 37.02843925 66.22091675 39.17521667 C68.52972487 40.57969099 70.8389743 41.98343903 73.14819336 43.38723755 C74.86555891 44.43175783 76.58219582 45.47746859 78.29882812 46.52319336 C84.63881214 50.3806927 91.00324128 54.19291769 97.39453125 57.96484375 C99.48034846 59.20016362 101.56580837 60.43608465 103.65118408 61.67214966 C105.00093154 62.4694445 106.35260176 63.26349383 107.70623779 64.0541687 C109.58358219 65.15077946 111.45437614 66.25784865 113.32421875 67.3671875 C114.39760498 67.99737793 115.47099121 68.62756836 116.5769043 69.27685547 C119 71 119 71 120 74 C80.4 74 40.8 74 0 74 C0 49.58 0 25.16 0 0 Z " fill="#FFB36E" transform="translate(134,54)"/>
<path d="M0 0 C4.84576984 2.42288492 9.34836245 4.71340033 13.921875 7.51171875 C15.01467773 8.17800293 16.10748047 8.84428711 17.23339844 9.53076172 C17.80505737 9.88136658 18.37671631 10.23197144 18.96569824 10.59320068 C20.80119047 11.71889475 22.63906848 12.84060328 24.47753906 13.96142578 C27.05105638 15.53087861 29.62362731 17.10186327 32.1953125 18.67431641 C38.04211676 22.24903207 43.89458207 25.814409 49.75 29.375 C50.31525391 29.71889771 50.88050781 30.06279541 51.46289062 30.41711426 C61.87069663 36.74592664 72.34308723 42.96326373 82.82635498 49.16604614 C91.58668863 54.35130135 100.30303628 59.59124469 108.8984375 65.046875 C112.67728317 67.42650074 116.51326599 69.69931397 120.375 71.94140625 C120.91125 72.29074219 121.4475 72.64007813 122 73 C122 73.33 122 73.66 122 74 C81.74 74 41.48 74 0 74 C0 49.58 0 25.16 0 0 Z " fill="#FFB36E" transform="translate(0,54)"/>
</svg>
