<svg width="20" height="21" viewBox="0 0 20 21" fill="none" xmlns="http://www.w3.org/2000/svg">
<path d="M18.7571 2.30005H12.8146C12.4066 2.30005 11.8351 2.53676 11.5469 2.82497L4.17924 10.1926C4.11022 10.2616 4.05546 10.3435 4.0181 10.4337C3.98074 10.5238 3.96151 10.6204 3.96151 10.718C3.96151 10.8156 3.98074 10.9122 4.0181 11.0024C4.05546 11.0926 4.11022 11.1745 4.17924 11.2434L10.5565 17.6207C10.6255 17.6897 10.7074 17.7445 10.7975 17.7818C10.8877 17.8192 10.9843 17.8384 11.0819 17.8384C11.1795 17.8384 11.2761 17.8192 11.3663 17.7818C11.4564 17.7445 11.5383 17.6897 11.6073 17.6207L18.975 10.253C19.2642 9.96383 19.4999 9.39336 19.4999 8.98531V3.04286C19.4999 2.84585 19.4216 2.65692 19.2823 2.51761C19.143 2.37831 18.9541 2.30005 18.7571 2.30005ZM15.043 8.2425C14.8479 8.24244 14.6546 8.20393 14.4744 8.12919C14.2941 8.05445 14.1303 7.94492 13.9923 7.80688C13.8544 7.66884 13.745 7.50497 13.6704 7.32465C13.5957 7.14432 13.5574 6.95106 13.5574 6.7559C13.5575 6.56074 13.596 6.3675 13.6707 6.18723C13.7455 6.00695 13.855 5.84316 13.993 5.70521C14.1311 5.56725 14.295 5.45784 14.4753 5.38322C14.6556 5.30859 14.8489 5.27022 15.044 5.27029C15.4382 5.27042 15.8161 5.42711 16.0947 5.70591C16.3733 5.9847 16.5298 6.36275 16.5296 6.75689C16.5295 7.15103 16.3728 7.52897 16.094 7.80758C15.8152 8.08619 15.4372 8.24263 15.043 8.2425Z" fill="white"/>
<path d="M1.67252 10.7185L10.091 2.30005H8.85298C8.44494 2.30005 7.87347 2.53676 7.58526 2.82497L0.217609 10.1926C0.148583 10.2616 0.0938256 10.3435 0.0564663 10.4337C0.019107 10.5238 -0.00012207 10.6204 -0.00012207 10.718C-0.00012207 10.8156 0.019107 10.9122 0.0564663 11.0024C0.0938256 11.0926 0.148583 11.1745 0.217609 11.2434L6.59485 17.6207C6.66383 17.6897 6.74574 17.7445 6.83589 17.7818C6.92605 17.8192 7.02268 17.8384 7.12026 17.8384C7.21785 17.8384 7.31448 17.8192 7.40463 17.7818C7.49479 17.7445 7.57669 17.6897 7.64568 17.6207L8.11117 17.1552L1.67252 10.7185Z" fill="white"/>
</svg>
