<svg width="20" height="21" viewBox="0 0 20 21" fill="none" xmlns="http://www.w3.org/2000/svg">
<path fill-rule="evenodd" clip-rule="evenodd" d="M13.7832 2.96006L15.5674 4.74428C18.1891 7.367 19.4995 8.67738 19.4995 10.3056C19.4995 11.9348 18.1891 13.2452 15.5674 15.8669C12.9447 18.4897 11.6343 19.8 10.0051 19.8C8.37686 19.8 7.0655 18.4897 4.44376 15.8679L2.65953 14.0837C1.15317 12.5764 0.399508 11.8237 0.119686 10.8458C-0.16111 9.86784 0.0787368 8.82948 0.558431 6.75373L0.834353 5.55645C1.23702 3.80927 1.43885 2.93568 2.03651 2.33704C2.63418 1.7384 3.50874 1.53755 5.25592 1.13488L6.45321 0.857981C8.52993 0.379262 9.56732 0.139415 10.5452 0.419237C11.5231 0.700033 12.2768 1.4537 13.7832 2.96006ZM8.917 12.3199C8.26084 11.6647 8.26571 10.7229 8.65863 9.97704C8.56136 9.83654 8.51637 9.66641 8.53147 9.49619C8.54657 9.32597 8.62081 9.16641 8.7413 9.04523C8.86178 8.92405 9.02091 8.84889 9.19104 8.83281C9.36117 8.81673 9.53156 8.86074 9.67262 8.95721C10.0041 8.78171 10.3678 8.68811 10.7305 8.69201C10.9244 8.69382 11.1097 8.7726 11.2455 8.91101C11.3814 9.04942 11.4567 9.23614 11.4549 9.43008C11.4531 9.62401 11.3743 9.80929 11.2359 9.94514C11.0975 10.081 10.9108 10.1563 10.7168 10.1545C10.4911 10.1628 10.2777 10.2599 10.1231 10.4246C9.74574 10.8019 9.84422 11.1802 9.95049 11.2865C10.0577 11.3927 10.4351 11.4912 10.8124 11.1139C11.5768 10.3495 12.8969 10.096 13.7422 10.9413C14.3984 11.5975 14.3935 12.5393 14.0006 13.2852C14.0973 13.4257 14.1417 13.5956 14.1264 13.7655C14.111 13.9353 14.0367 14.0945 13.9164 14.2154C13.7961 14.3363 13.6373 14.4113 13.4675 14.4275C13.2977 14.4437 13.1276 14.4 12.9866 14.304C12.5491 14.5441 12.0416 14.6241 11.5514 14.5302C11.3614 14.4912 11.1946 14.3782 11.0878 14.2162C10.981 14.0542 10.943 13.8565 10.982 13.6664C11.0211 13.4763 11.134 13.3096 11.296 13.2028C11.458 13.096 11.6558 13.058 11.8459 13.097C12.0184 13.1331 12.2973 13.0765 12.5362 12.8377C12.9135 12.4594 12.815 12.082 12.7087 11.9758C12.6015 11.8695 12.2242 11.771 11.8468 12.1483C11.0825 12.9127 9.76232 13.1662 8.917 12.3199ZM7.81917 8.38586C8.00021 8.20475 8.14381 7.98976 8.24177 7.75316C8.33972 7.51655 8.39012 7.26297 8.39007 7.00689C8.39003 6.75081 8.33954 6.49724 8.2415 6.26067C8.14346 6.0241 7.99979 5.80915 7.81868 5.62811C7.63757 5.44707 7.42258 5.30347 7.18597 5.20551C6.94936 5.10755 6.69578 5.05716 6.4397 5.0572C6.18362 5.05725 5.93006 5.10773 5.69349 5.20577C5.45691 5.30381 5.24197 5.44749 5.06093 5.6286C4.69529 5.99436 4.48993 6.4904 4.49002 7.00758C4.49011 7.52475 4.69565 8.02071 5.06141 8.38635C5.42718 8.75199 5.92321 8.95735 6.44039 8.95726C6.95757 8.95716 7.45353 8.75163 7.81917 8.38586Z" fill="white"/>
</svg>
