<svg width="20" height="21" viewBox="0 0 20 21" fill="none" xmlns="http://www.w3.org/2000/svg">
<path d="M17 6.30005C18.66 6.30005 20 7.64005 20 9.30005V15.3H16V19.3H4V15.3H0V9.30005C0 7.64005 1.34 6.30005 3 6.30005H4V1.30005H16V6.30005H17ZM6 3.30005V6.30005H14V3.30005H6ZM14 17.3V13.3H6V17.3H14ZM16 13.3H18V9.30005C18 8.75005 17.55 8.30005 17 8.30005H3C2.45 8.30005 2 8.75005 2 9.30005V13.3H4V11.3H16V13.3ZM17 9.80005C17 10.35 16.55 10.8 16 10.8C15.45 10.8 15 10.35 15 9.80005C15 9.25005 15.45 8.80005 16 8.80005C16.55 8.80005 17 9.25005 17 9.80005Z" fill="white"/>
</svg>
