<svg width="20" height="21" viewBox="0 0 20 21" fill="none" xmlns="http://www.w3.org/2000/svg">
<path fill-rule="evenodd" clip-rule="evenodd" d="M10.7853 3.49409C10.7853 3.81727 10.6569 4.12722 10.4284 4.35574C10.1999 4.58427 9.88991 4.71265 9.56673 4.71265C9.24354 4.71265 8.9336 4.58427 8.70507 4.35574C8.47655 4.12722 8.34817 3.81727 8.34817 3.49409C8.34817 3.17091 8.47655 2.86097 8.70507 2.63244C8.9336 2.40392 9.24354 2.27553 9.56673 2.27553C9.88991 2.27553 10.1999 2.40392 10.4284 2.63244C10.6569 2.86097 10.7853 3.17091 10.7853 3.49409ZM12.5522 2.88481C12.4124 2.19615 12.0387 1.57701 11.4946 1.1323C10.9506 0.68758 10.2694 0.444641 9.56673 0.444641C8.86401 0.444641 8.1829 0.68758 7.63881 1.1323C7.09471 1.57701 6.7211 2.19615 6.58126 2.88481H3.47393C3.15075 2.88481 2.8408 3.0132 2.61228 3.24172C2.38375 3.47025 2.25537 3.78019 2.25537 4.10337V18.7261C2.25537 19.0493 2.38375 19.3592 2.61228 19.5877C2.8408 19.8163 3.15075 19.9446 3.47393 19.9446H15.6595C15.9827 19.9446 16.2926 19.8163 16.5212 19.5877C16.7497 19.3592 16.8781 19.0493 16.8781 18.7261V4.10337C16.8781 3.78019 16.7497 3.47025 16.5212 3.24172C16.2926 3.0132 15.9827 2.88481 15.6595 2.88481H12.5522ZM9.56673 6.54049H6.52033V4.71265H4.08321V18.1168H15.0502V4.71265H12.6131V6.54049H9.56673ZM5.91105 9.89153C5.91105 9.64914 6.00734 9.41668 6.17873 9.24529C6.35012 9.0739 6.58258 8.97761 6.82497 8.97761H12.3085C12.5509 8.97761 12.7833 9.0739 12.9547 9.24529C13.1261 9.41668 13.2224 9.64914 13.2224 9.89153C13.2224 10.1339 13.1261 10.3664 12.9547 10.5378C12.7833 10.7092 12.5509 10.8054 12.3085 10.8054H6.82497C6.58258 10.8054 6.35012 10.7092 6.17873 10.5378C6.00734 10.3664 5.91105 10.1339 5.91105 9.89153ZM6.82497 12.024C6.58258 12.024 6.35012 12.1203 6.17873 12.2917C6.00734 12.4631 5.91105 12.6955 5.91105 12.9379C5.91105 13.1803 6.00734 13.4128 6.17873 13.5842C6.35012 13.7556 6.58258 13.8518 6.82497 13.8518H12.3085C12.5509 13.8518 12.7833 13.7556 12.9547 13.5842C13.1261 13.4128 13.2224 13.1803 13.2224 12.9379C13.2224 12.6955 13.1261 12.4631 12.9547 12.2917C12.7833 12.1203 12.5509 12.024 12.3085 12.024H6.82497Z" fill="white"/>
</svg>
