<svg width="20" height="21" viewBox="0 0 20 21" fill="none" xmlns="http://www.w3.org/2000/svg">
<g clip-path="url(#clip0_1_119)">
<path d="M9.73196 14.4739C10.9624 14.4739 12.0066 14.0449 12.8645 13.187C13.7224 12.3292 14.151 11.285 14.1502 10.0545C14.1495 8.824 13.7209 7.78018 12.8645 6.92304C12.0081 6.0659 10.9639 5.63696 9.73196 5.63622C8.5 5.63548 7.45619 6.06442 6.60052 6.92304C5.74485 7.78166 5.31591 8.82547 5.3137 10.0545C5.31149 11.2835 5.74043 12.3277 6.60052 13.187C7.4606 14.0464 8.50442 14.475 9.73196 14.4727M10.1572 9.88549L11.856 11.5755C11.9378 11.6579 11.9823 11.7548 11.9897 11.866C11.9971 11.9772 11.9525 12.0814 11.856 12.1786C11.7596 12.2758 11.6591 12.324 11.5545 12.3233C11.4499 12.3225 11.3494 12.2747 11.2529 12.1797L9.57401 10.5007C9.47828 10.405 9.40979 10.3041 9.36856 10.1981C9.32732 10.092 9.30707 9.98269 9.30781 9.87002V7.29307C9.30781 7.17967 9.35015 7.08062 9.43483 6.99594C9.51951 6.91126 9.61856 6.86892 9.73196 6.86892C9.84536 6.86892 9.94477 6.91126 10.0302 6.99594C10.1141 7.08136 10.1561 7.18077 10.1561 7.29417L10.1572 9.88549ZM9.73196 19.8001C9.63181 19.8001 9.52614 19.7909 9.41495 19.7725C9.30376 19.754 9.20066 19.7264 9.10567 19.6896C6.93115 18.8612 5.20324 17.4562 3.92194 15.4746C2.64065 13.493 2 11.3479 2 9.03939V4.30853C2 3.93003 2.10788 3.58909 2.32364 3.2857C2.53866 2.98232 2.81738 2.76251 3.15979 2.62628L9.10788 0.417148C9.3229 0.339092 9.53093 0.300064 9.73196 0.300064C9.93299 0.300064 10.1414 0.339092 10.3571 0.417148L16.3041 2.62628C16.6458 2.76325 16.9245 2.98305 17.1403 3.2857C17.356 3.58909 17.4639 3.93003 17.4639 4.30853V9.03939C17.4639 11.3479 16.8233 13.493 15.542 15.4746C14.2607 17.4562 12.5331 18.8612 10.3594 19.6896C10.2629 19.7264 10.1594 19.754 10.049 19.7725C9.93851 19.7909 9.83284 19.8001 9.73196 19.8001ZM9.73196 18.7596C11.6465 18.1521 13.2297 16.937 14.4816 15.1145C15.7334 13.292 16.3594 11.2669 16.3594 9.03939V4.28755C16.3594 4.14616 16.3203 4.01877 16.2423 3.90537C16.1649 3.79196 16.0552 3.70728 15.9131 3.65132L9.96613 1.44219C9.89543 1.41273 9.81738 1.398 9.73196 1.398C9.64654 1.398 9.56848 1.41273 9.49779 1.44219L3.55081 3.65132C3.40869 3.70728 3.29897 3.79196 3.22165 3.90537C3.14359 4.01877 3.10457 4.14616 3.10457 4.28755V9.03939C3.10457 11.2669 3.73049 13.292 4.98233 15.1145C6.23417 16.937 7.81738 18.1521 9.73196 18.7596Z" fill="white"/>
</g>
<defs>
<clipPath id="clip0_1_119">
<rect width="20" height="20" fill="white" transform="translate(0 0.300049)"/>
</clipPath>
</defs>
</svg>
