<svg width="20" height="21" viewBox="0 0 20 21" fill="none" xmlns="http://www.w3.org/2000/svg">
<path d="M14.4444 18.3V12.0778C14.4444 11.8421 14.3508 11.616 14.1841 11.4493C14.0174 11.2826 13.7913 11.1889 13.5556 11.1889H6.44444C6.2087 11.1889 5.9826 11.2826 5.81591 11.4493C5.64921 11.616 5.55556 11.8421 5.55556 12.0778V18.3M5.55556 2.30005V5.8556C5.55556 6.09135 5.64921 6.31744 5.81591 6.48414C5.9826 6.65084 6.2087 6.74449 6.44444 6.74449H12.6667M12.8444 2.30005C13.3134 2.30673 13.7607 2.49842 14.0889 2.83338L17.4667 6.21116C17.8016 6.53939 17.9933 6.98668 18 7.4556V16.5223C18 16.9938 17.8127 17.446 17.4793 17.7793C17.1459 18.1127 16.6937 18.3 16.2222 18.3H3.77778C3.30628 18.3 2.8541 18.1127 2.5207 17.7793C2.1873 17.446 2 16.9938 2 16.5223V4.07783C2 3.60633 2.1873 3.15415 2.5207 2.82075C2.8541 2.48735 3.30628 2.30005 3.77778 2.30005H12.8444Z" stroke="white" stroke-width="1.5" stroke-linecap="round" stroke-linejoin="round"/>
</svg>
