<svg width="20" height="21" viewBox="0 0 20 21" fill="none" xmlns="http://www.w3.org/2000/svg">
<path d="M5.98492 16.4574C5.2941 15.4425 4.93348 14.2046 5.06954 12.9701C4.63315 12.5055 3.81235 11.9961 3.63315 11.37C3.43348 10.6714 3.68957 10.0896 4.25151 9.66315L6.91744 8.70629C6.96058 7.70131 6.46003 6.53428 6.60881 5.54866C6.6431 5.32189 6.86379 4.75275 6.84609 4.59291C6.8389 4.52875 6.59554 4.2251 6.53746 4.09678C6.28027 3.52875 6.26589 2.61171 6.31512 1.99224C6.43459 0.470673 7.62319 0.37554 8.89089 0.470673C9.99266 0.553084 10.4324 1.43915 10.2985 2.46459C11.9622 2.44965 13.3925 3.75109 13.5093 5.42089C13.5823 6.47012 13.5911 8.19799 13.5093 9.24169C13.3787 10.8954 11.7189 11.4397 10.6857 12.4469C10.5264 12.6023 10.444 12.6366 10.4617 12.8894L11.8184 16.4037L13.3295 16.4452C14.4357 15.12 14.7427 13.4292 14.0856 11.813C13.9755 11.5415 13.3123 10.6051 14.0292 10.7035C14.345 10.7467 14.7382 11.8838 14.8184 12.1864C15.2194 13.6997 14.9329 15.1753 14.0596 16.4574H15.0275C15.1934 16.4574 15.5529 16.9369 15.5529 17.0935V17.8954C16.5441 17.7821 16.9102 18.2312 17.0319 19.1537C17.0928 19.6178 16.9667 19.8971 16.4683 19.9447L3.47109 19.938C3.04963 19.844 2.9639 19.5475 3.01202 19.1537C3.12209 18.25 3.52972 17.7848 4.491 17.8954V17.0935C4.491 16.948 4.87983 16.4574 5.01645 16.4574H5.98492ZM8.52972 4.62111C9.04687 4.56304 9.46833 4.20353 9.64532 3.71901C9.78193 3.34567 9.80018 2.18859 9.73271 1.78594C9.65583 1.32576 9.28193 1.06359 8.83558 1.02377C8.2587 0.972332 7.0889 0.933615 6.93791 1.67477C6.87762 1.97012 6.88923 3.21569 6.93846 3.5293C6.96058 3.66923 7.1337 4.0918 7.25649 4.15153C7.69344 4.25662 8.47441 3.97012 8.52972 4.62111ZM9.74598 17.8954H11.0458C11.4185 17.8954 11.3743 17.0232 11.3367 16.7749C11.0054 15.5752 10.1851 14.2511 9.89421 13.0735C9.80793 12.7234 9.89863 12.4358 10.1309 12.1692C11.0397 11.1261 12.8273 10.703 12.955 9.07521C13.0297 8.12886 13.0253 6.53594 12.955 5.58682C12.8489 4.14379 11.8262 3.10839 10.3787 3.03151C10.2443 3.05474 10.3162 3.41702 10.2935 3.53815C10.2371 3.8418 10.0032 4.18804 9.96833 4.37443C9.82065 5.16923 10.2028 6.81414 9.79078 7.46016C9.69675 7.60839 8.78636 8.3866 8.65361 8.42532C8.47441 8.47786 8.3118 8.43361 8.23934 8.25441L7.75151 5.86171L7.97441 4.78649L7.36822 4.78815C7.34277 5.13605 7.16191 5.4574 7.14255 5.80695C7.10992 6.39711 7.40859 8.14545 7.53857 8.7887C7.67574 9.46956 8.01534 9.88936 8.77363 9.76049C8.93237 9.73339 10.7532 8.45131 10.9329 8.26934C11.5939 7.60065 11.163 5.81912 11.3041 4.93472C11.3666 4.72233 11.7692 4.69357 11.8339 4.99114C11.918 5.3783 11.8903 7.1272 11.8455 7.57797C11.7333 8.71071 10.1851 9.521 9.3201 10.141C9.19841 10.2279 9.04742 10.245 8.91246 10.3418C8.7399 10.4651 8.0972 11.0641 7.97496 11.2295C7.71833 11.5752 7.66412 11.9978 7.79687 12.4032L10.1193 16.4961C10.2382 17.0686 9.92021 17.3999 9.74487 17.8943L9.74598 17.8954ZM9.35881 4.95297C9.19731 4.97842 9.06567 5.0824 8.90638 5.1366C8.77861 5.1803 8.58724 5.15043 8.49543 5.22344C8.11766 5.52598 8.64034 7.20352 8.69565 7.6626C8.81899 7.54866 9.35881 7.22731 9.35881 7.08184V4.95242V4.95297ZM7.09056 9.26713L4.52806 10.1609C4.00704 10.6018 4.02917 11.1958 4.4899 11.6748C5.29797 12.5149 6.2587 13.2317 7.06014 14.0824C7.45395 14.6493 7.2847 15.6261 7.45063 16.2915C7.60937 16.4967 7.85549 16.4618 8.08724 16.4574C8.08558 15.8905 8.23492 15.2682 8.25262 14.7146C8.27087 14.1311 7.69344 13.391 7.39476 12.8634C7.29299 12.6831 7.2587 12.4635 7.17076 12.313C7.00151 12.0232 6.1691 11.4303 6.45837 11.0946C6.76534 10.7384 7.11766 11.5254 7.25704 11.4237C7.36656 10.9353 7.75925 10.677 8.08724 10.3446L7.42187 9.9054C7.27529 9.71956 7.10439 9.51381 7.09167 9.26713H7.09056ZM6.86932 16.4574C6.75538 15.9286 6.86102 15.0077 6.66191 14.5354C6.55184 14.2749 5.83669 13.7295 5.59775 13.526C5.64255 14.3706 5.86379 15.2118 6.32563 15.922C6.38813 16.0182 6.63426 16.3617 6.70063 16.4192C6.76313 16.4729 6.79133 16.4613 6.86877 16.4568L6.86932 16.4574ZM9.46943 16.4574C9.22164 16.0813 9.0618 15.6239 8.75096 15.2959L8.63979 16.4574H9.46943ZM9.46943 17.0105H5.18293L5.09996 17.0935V17.8954H8.00372C8.09388 17.8954 8.28912 18.1239 8.24321 18.2422C8.20339 18.4264 8.05737 18.474 7.88757 18.4983L3.86434 18.5127C3.71335 18.5641 3.57452 19.2151 3.55129 19.3888H16.4938L16.2498 18.5542L9.49487 18.5066C8.48049 18.5188 9.42518 17.5011 9.46943 17.0105ZM14.9451 17.8954V17.0935L14.8621 17.0105H11.9031L11.8477 17.8954H14.9451Z" fill="white"/>
<path d="M8.142 2.68527V3.48726C8.142 3.66757 7.5889 3.66757 7.5889 3.48726V2.27045C7.5889 2.09733 8.21445 2.11337 8.33835 2.12941C8.79244 2.1897 8.61434 2.80585 8.142 2.68527Z" fill="white"/>
</svg>
