<svg width="20" height="21" viewBox="0 0 20 21" fill="none" xmlns="http://www.w3.org/2000/svg">
<path d="M7.5 14.3C5.68333 14.3 4.146 13.6707 2.888 12.412C1.63 11.1534 1.00067 9.61605 1 7.80005C0.999334 5.98405 1.62867 4.44672 2.888 3.18805C4.14733 1.92938 5.68467 1.30005 7.5 1.30005C9.31533 1.30005 10.853 1.92938 12.113 3.18805C13.373 4.44672 14.002 5.98405 14 7.80005C14 8.53338 13.8833 9.22505 13.65 9.87505C13.4167 10.525 13.1 11.1 12.7 11.6L18.3 17.2C18.4833 17.3834 18.575 17.6167 18.575 17.9C18.575 18.1834 18.4833 18.4167 18.3 18.6C18.1167 18.7834 17.8833 18.875 17.6 18.875C17.3167 18.875 17.0833 18.7834 16.9 18.6L11.3 13C10.8 13.4 10.225 13.7167 9.575 13.95C8.925 14.1834 8.23333 14.3 7.5 14.3ZM7.5 12.3C8.75 12.3 9.81267 11.8627 10.688 10.988C11.5633 10.1134 12.0007 9.05072 12 7.80005C11.9993 6.54938 11.562 5.48705 10.688 4.61305C9.814 3.73905 8.75133 3.30138 7.5 3.30005C6.24867 3.29872 5.18633 3.73638 4.313 4.61305C3.43967 5.48972 3.002 6.55205 3 7.80005C2.998 9.04805 3.43567 10.1107 4.313 10.988C5.19033 11.8654 6.25267 12.3027 7.5 12.3Z" fill="white"/>
</svg>
