<svg width="21" height="21" viewBox="0 0 21 21" fill="none" xmlns="http://www.w3.org/2000/svg">
<path fill-rule="evenodd" clip-rule="evenodd" d="M14.2171 14.5167C13.9359 14.7976 13.5546 14.9554 13.1571 14.9554C12.7596 14.9554 12.3784 14.7976 12.0971 14.5167L6.43913 8.86068C6.15786 8.57928 5.99991 8.19768 6 7.79982C6.00009 7.40196 6.15823 7.02044 6.43963 6.73918C6.72102 6.45791 7.10262 6.29996 7.50048 6.30005C7.89834 6.30014 8.27986 6.45828 8.56113 6.73968L13.1571 11.3357L17.7531 6.73968C18.0359 6.4663 18.4147 6.31493 18.808 6.31816C19.2013 6.32139 19.5776 6.47897 19.8559 6.75695C20.1341 7.03493 20.292 7.41108 20.2956 7.80437C20.2993 8.19767 20.1482 8.57664 19.8751 8.85968L14.2181 14.5177L14.2171 14.5167Z" fill="white"/>
</svg>
