<svg width="20" height="21" viewBox="0 0 20 21" fill="none" xmlns="http://www.w3.org/2000/svg">
<path d="M11.6601 19.8934C11.5936 19.9599 10.7613 19.9453 10.6041 19.938C9.18946 19.8711 8.53214 19.2483 8.19198 17.889C7.81628 15.563 7.67268 13.1435 7.27188 10.8279C7.12934 10.0033 6.83065 9.38958 6.1587 8.87411C5.88755 8.66605 5.57876 8.52071 5.32887 8.275C4.76949 7.72399 3.95743 5.8451 4.00169 5.07242C4.06094 4.03905 4.7653 3.64801 5.16645 2.85651C5.37313 2.44909 5.12149 2.41947 5.08141 2.07478C5.05876 1.87891 5.07584 1.7029 5.16157 1.52725C5.31249 1.21706 6.19495 0.599827 6.53789 0.498755C7.20497 0.301839 8.94828 0.673017 9.48954 1.11738C9.9116 1.46382 10.1287 2.23475 10.6215 2.32049C11.1144 2.40622 11.3346 2.32049 11.6633 2.7774C12.0275 3.28345 11.941 3.63999 12.5865 3.9453C13.4083 4.3339 14.4556 4.59251 15.2346 5.02642C15.8368 5.36205 16.1341 6.07059 15.9128 6.73627C15.7668 7.17576 15.4507 7.37407 15.2297 7.72608C14.7306 8.52176 15.4329 9.64644 14.5957 10.6122C13.9757 11.3274 13.1595 11.035 12.8103 12.1725C12.6806 12.5949 12.5715 13.4534 12.3736 13.7921C12.124 14.2191 11.6682 14.0786 11.5131 14.2909C11.3716 14.485 11.566 14.8478 11.4385 15.1573C11.2555 15.6017 10.6198 15.6421 10.4382 16.2482C10.3288 16.6131 10.3438 17.805 10.448 18.1772C10.5184 18.4285 10.694 18.7467 10.8683 18.9419C11.0248 19.1169 11.6242 19.5232 11.6863 19.6581C11.7156 19.7222 11.7093 19.8442 11.6605 19.893L11.6601 19.8934ZM7.9048 3.45144L8.65378 3.27718L9.48187 1.76877C9.5568 1.60741 9.23023 1.37668 9.10023 1.29792C8.72069 1.06754 7.32242 0.762936 6.88084 0.807198C6.77384 0.818002 6.64803 0.855294 6.54521 0.889798V0.959851L7.7044 2.06641L7.9048 3.45179V3.45144ZM5.08176 3.69506L6.91186 4.70543C6.94288 4.70299 7.01885 4.52873 7.03942 4.48586C7.12968 4.29801 7.50086 3.50825 7.52003 3.36152C7.55697 3.07957 7.37505 2.59477 7.37365 2.29226L6.2068 1.15607C6.10816 1.12888 6.0165 1.2317 5.93634 1.29165C5.82272 1.37634 5.55471 1.60183 5.49302 1.71928C5.32608 2.03679 5.61675 2.25845 5.62999 2.57177C5.64986 3.03565 5.22814 3.30123 5.08141 3.69471L5.08176 3.69506ZM9.78613 2.09255C9.70423 2.03609 9.53728 2.44944 9.51567 2.52228L10.0287 3.46887L11.4249 3.17228C11.2722 2.55365 10.6198 2.79273 10.2071 2.56062C10.0433 2.46826 9.84921 2.27169 9.78613 2.09255ZM9.60734 3.58528C9.64428 3.5215 9.31876 2.9297 9.28112 2.92936L8.84372 3.64139L7.7044 3.87873C7.51271 4.28755 7.36494 4.72425 7.15582 5.12505C7.02164 5.38226 6.29671 6.64461 6.13849 6.75649C6.00361 6.85198 5.14275 7.22665 5.11906 7.30785C5.42227 8.15093 6.34516 8.40326 6.89269 9.04629C7.70614 10.0016 7.65979 11.1026 7.84102 12.2802L7.88947 12.3353L8.91517 12.2346L8.71303 10.1678L10.0646 9.09682C10.0764 9.02816 10.0189 8.99819 9.97642 8.95915C9.42053 8.44787 8.65029 8.02337 8.07662 7.51313L8.00936 7.40614L8.024 5.50564C8.49485 4.93894 8.92493 4.30498 9.4038 3.74873C9.46165 3.68147 9.51986 3.6156 9.60699 3.58528H9.60734ZM11.6643 3.52498L9.78613 3.92125L8.4011 5.63808L8.41051 7.2845L10.4832 8.87133L14.5748 9.82663C14.6344 9.80851 14.6595 9.59625 14.6655 9.53213C14.7153 8.9832 14.5679 8.3705 14.754 7.84318C14.9662 7.24163 15.6298 6.95445 15.6089 6.25566C15.5981 5.89006 15.3691 5.52097 15.0513 5.34845C14.2901 4.93545 13.2525 4.66988 12.4468 4.29348C12.0665 4.11608 11.7978 3.95436 11.6643 3.52463V3.52498ZM6.75433 5.02015C6.43787 4.94417 5.04133 3.98887 4.85627 4.00769C4.71303 4.02232 4.47115 4.5939 4.4356 4.73958C4.23938 5.5506 4.65831 6.19606 4.94131 6.92169L5.94227 6.43759L6.75433 5.0198V5.02015ZM14.4218 10.1783L10.5003 9.27108L10.3661 9.31151L9.09745 10.2902L9.31493 12.3405L10.6923 15.2869C11.435 15.1364 10.862 14.5369 11.2161 14.0647C11.4754 13.7186 11.9072 13.8705 12.0595 13.5837C12.2537 13.2178 12.331 12.3914 12.4806 11.9484C12.6158 11.548 12.9277 11.1615 13.2968 10.9524C13.6892 10.7297 14.2361 10.6586 14.4225 10.179L14.4218 10.1783ZM9.99594 16.5385C9.99594 16.4496 10.073 16.1562 10.1085 16.0586C10.1747 15.8752 10.403 15.6536 10.3727 15.5016L9.05144 12.6392L8.96814 12.5821L7.9048 12.6877L8.44362 16.8368L9.99594 17.0794V16.5385ZM9.99559 17.4624L8.49729 17.253C8.51053 17.3687 8.50426 17.6799 8.58686 17.7385L10.0127 18.1598L9.99559 17.4624ZM10.2922 19.5532C10.5107 19.5717 10.7505 19.5396 10.9718 19.5532C10.6592 19.281 10.3859 18.9963 10.2159 18.6098L8.70675 18.1591C8.66493 18.2156 8.82177 18.5721 8.86254 18.6477C9.14798 19.1744 9.6983 19.503 10.2922 19.5532Z" fill="white" stroke="white" stroke-width="0.3"/>
</svg>
