<svg width="20" height="21" viewBox="0 0 20 21" fill="none" xmlns="http://www.w3.org/2000/svg">
<path d="M6.16218 16.5343L9.74955 14.3705L13.3369 16.5628L12.3974 12.463L15.5577 9.72973L11.4009 9.3596L9.74955 5.48753L8.09822 9.33113L3.94143 9.70126L7.10173 12.463L6.16218 16.5343ZM9.74955 17.0468L5.02334 19.8939C4.81455 20.0268 4.59627 20.0837 4.3685 20.0647C4.14073 20.0458 3.94143 19.9698 3.77061 19.837C3.59978 19.7041 3.46691 19.5382 3.37201 19.3393C3.27711 19.1404 3.25813 18.9172 3.31507 18.6697L4.5678 13.2886L0.382541 9.67278C0.192734 9.50196 0.0742936 9.30721 0.0272214 9.08856C-0.0198509 8.8699 -0.00580523 8.65656 0.0693586 8.44853C0.144522 8.2405 0.258407 8.06967 0.411012 7.93604C0.563617 7.80242 0.772406 7.71701 1.03738 7.67981L6.56078 7.1958L8.69611 2.12793C8.79102 1.90016 8.93831 1.72934 9.13799 1.61545C9.33766 1.50157 9.54152 1.44463 9.74955 1.44463C9.95757 1.44463 10.1614 1.50157 10.3611 1.61545C10.5608 1.72934 10.7081 1.90016 10.803 2.12793L12.9383 7.1958L18.4617 7.67981C18.7274 7.71777 18.9362 7.80318 19.0881 7.93604C19.2399 8.06891 19.3538 8.23974 19.4297 8.44853C19.5057 8.65731 19.5201 8.87104 19.473 9.0897C19.4259 9.30835 19.3071 9.50272 19.1165 9.67278L14.9313 13.2886L16.184 18.6697C16.241 18.9164 16.222 19.1396 16.1271 19.3393C16.0322 19.539 15.8993 19.7049 15.7285 19.837C15.5577 19.9691 15.3584 20.045 15.1306 20.0647C14.9028 20.0845 14.6845 20.0275 14.4758 19.8939L9.74955 17.0468Z" fill="white"/>
</svg>
