<svg width="20" height="21" viewBox="0 0 20 21" fill="none" xmlns="http://www.w3.org/2000/svg">
<path d="M4.63672 2.44727H6.14721C6.53507 1.53122 6.91172 0.14839 8.21513 0.501164C9.09365 0.738945 9.32364 1.67496 8.9733 2.44727H10.4107C10.8146 1.8455 10.9447 0.83932 11.6756 0.545017C12.6316 0.160084 13.6076 0.967955 13.4444 1.97268C13.419 2.12763 13.3006 2.27965 13.3099 2.44727H14.7717L15.3135 1.21061C16.2115 -0.402697 18.4066 0.794979 17.5977 2.44727H18.4504C18.6556 2.44727 19.0464 2.725 19.1818 2.88531C19.6856 3.4822 19.5775 4.34074 18.9294 4.7783C18.8592 4.82556 18.5542 4.98149 18.4992 4.98149H17.4516C17.6616 5.55499 17.8969 6.11338 17.911 6.73902C18.2619 6.82721 18.4987 6.7322 18.85 6.92077C19.9156 7.49134 19.5979 9.16799 18.3476 9.31319C18.1196 9.33951 17.3989 9.26252 17.2805 9.36679C17.0091 9.60506 17.051 10.7072 17.261 10.9952C17.3692 11.1443 18.1108 11.0503 18.3481 11.0775C19.5984 11.2228 19.9166 12.8989 18.8505 13.47C18.4992 13.6581 18.2624 13.5635 17.9115 13.6517C17.9018 14.292 17.6703 14.826 17.452 15.4093H18.4996C18.5552 15.4093 18.8597 15.5647 18.9299 15.6124C19.5779 16.0495 19.6861 16.9085 19.1823 17.5054C19.0468 17.6657 18.6561 17.9435 18.4509 17.9435H17.5982C17.969 18.7109 17.7064 19.6547 16.8401 19.8896C15.5332 20.2438 15.1634 18.8571 14.7721 17.9435H13.3104C13.3493 18.2081 13.4658 18.419 13.46 18.6992C13.4414 19.5909 12.502 20.178 11.6761 19.8457C10.9389 19.5485 10.8156 18.5487 10.4112 17.9435H8.97379C9.32705 18.6948 9.07124 19.6596 8.21562 19.8896C6.90538 20.2419 6.53556 18.8595 6.1477 17.9435H4.6372C5.48893 19.5582 3.25583 20.8285 2.37 19.1631C2.28473 19.0028 1.86764 18.0029 1.81307 17.9659C1.59819 17.9089 1.37113 17.9644 1.15381 17.943C0.0165523 17.8304 -0.411746 16.354 0.520863 15.6548C0.907257 15.3654 1.24444 15.4058 1.70684 15.4034C1.84133 14.7651 2.31835 14.255 2.39583 13.6074H0.958419C0.702609 13.6074 0.20171 13.0972 0.103771 12.8541C-0.319167 11.8026 0.623674 10.9051 1.66494 11.0732C1.56067 10.4889 1.56067 9.90375 1.66494 9.31953C0.641215 9.47009 -0.264595 8.6593 0.0808702 7.61316C0.175398 7.32665 0.65632 6.78531 0.958419 6.78531H2.39583C2.44455 6.49003 1.84474 5.75476 2.38267 5.67242C2.9206 5.59007 3.01172 7.01286 2.98248 7.3476C2.9284 7.96398 2.56831 8.34696 2.37244 8.88148C2.12053 9.56803 2.09519 10.3623 2.25014 11.0737H3.71191C3.49654 10.4085 3.52285 9.85795 3.77232 9.20941C4.25373 7.95619 4.70591 7.30862 4.23473 5.8488C4.17382 5.66023 3.9146 5.01852 3.73529 4.98392C2.90257 4.92399 1.9724 5.05945 1.15186 4.9849C0.13057 4.89183 -0.34353 3.67954 0.324986 2.88726C0.742564 2.39269 1.22202 2.45945 1.81355 2.4268C2.22772 1.72564 2.36367 0.621516 3.31869 0.471441C4.46423 0.291643 5.19804 1.45667 4.63672 2.44727ZM2.44406 2.44727H3.97892C4.70445 1.59749 3.81423 0.475339 2.95812 1.32901L2.44406 2.44727ZM7.34099 6.78385H8.65658C8.70677 6.74779 8.70872 6.74048 8.70921 6.68445C8.7209 5.74697 7.97442 5.03167 7.89939 4.17897C7.8721 3.86762 7.895 3.52703 7.97394 3.22688C8.09185 2.77714 8.62053 2.05843 8.58106 1.64963C8.52161 1.03666 7.65381 0.798877 7.29909 1.29052C7.16753 1.47275 6.84058 2.19438 6.74313 2.4346C6.3694 3.35356 6.39133 4.45233 6.75677 5.37032C6.86543 5.64367 7.05936 5.91166 7.15924 6.18598C7.20407 6.30975 7.27277 6.76192 7.34099 6.78385ZM11.0685 2.44727H12.6034C13.2899 1.65304 12.5566 0.543068 11.6537 1.25397L11.0685 2.44727ZM15.9411 6.78385H17.281C17.3268 6.74876 17.3429 6.73366 17.3444 6.67421C17.3487 6.52365 17.2727 6.21278 17.2318 6.05345C16.9375 4.90986 16.2246 4.55855 16.6261 3.15671C16.7543 2.70892 17.242 2.07062 17.2055 1.64914C17.1485 0.990369 16.2373 0.791568 15.8719 1.37969C15.7471 1.58044 15.3607 2.41218 15.2838 2.64314C15.0718 3.27706 15.0494 4.12927 15.1931 4.7783C15.3495 5.48433 15.8519 6.05491 15.9411 6.78385ZM5.95231 3.03197H1.10411C1.08316 3.03197 0.858044 3.1494 0.824423 3.17718C0.528659 3.41837 0.501372 3.96263 0.785443 4.22819C0.859506 4.29738 1.16794 4.44502 1.25077 4.44502H5.90407L5.95231 3.03197ZM14.5767 3.03197H8.63222C8.46412 3.50754 8.35741 3.94996 8.53477 4.44502H14.528L14.5767 3.03197ZM17.2323 4.44502C17.3941 4.49033 18.0294 4.44502 18.2555 4.44502C18.3028 4.44502 18.5796 4.32856 18.6375 4.29104C19.1219 3.97725 18.9508 3.14258 18.3905 3.04318C18.0645 2.98568 17.664 3.06511 17.3278 3.02856L17.2513 3.06072C17.1173 3.26829 16.9702 4.37144 17.2323 4.44502ZM4.9778 6.78385H6.65883L6.7134 6.68347L5.97667 4.981H4.49054C4.74343 5.55596 4.95149 6.147 4.9778 6.78385ZM10.3376 4.981H8.82712C9.01667 5.54573 9.27735 6.08804 9.27296 6.70345L9.33874 6.78385H11.0198C10.9433 6.13726 10.4619 5.62174 10.3376 4.981ZM12.3354 11.0717C12.1965 10.5859 12.1502 10.1985 12.2525 9.69764C12.3705 9.12024 12.7549 8.65686 12.9064 8.11016C13.1798 7.12152 13.0409 5.80446 12.4089 4.98149H10.9715C11.03 5.48336 11.4037 5.90484 11.5324 6.39404C11.8968 7.78272 11.0349 8.31481 10.839 9.50176C10.7503 10.0392 10.7669 10.5401 10.8741 11.0717H12.3354ZM14.6742 4.981H13.115C13.3825 5.55206 13.5779 6.14408 13.6022 6.78385H15.3564C15.2472 6.14116 14.7614 5.62954 14.6742 4.981ZM2.39534 7.31983H1.15283C1.01202 7.31983 0.703584 7.59464 0.646088 7.73887C0.333756 8.51799 1.15235 8.89951 1.81112 8.709C1.89834 8.53407 2.49035 7.409 2.39534 7.31983ZM11.0198 7.31983H4.9778C4.94077 7.80319 4.85062 8.29385 4.63672 8.73287H9.38747C9.49954 8.73287 9.62086 8.97017 9.59991 9.08613C9.53413 9.45353 8.89534 9.27324 8.63758 9.32343C8.36179 9.93737 8.42172 10.4524 8.63222 11.0717H10.2889C10.1793 10.3345 10.1763 9.54805 10.4127 8.83227C10.5817 8.32017 10.9652 7.86409 11.0198 7.31983ZM13.3099 8.73287H18.4017C18.5016 8.73287 18.7842 8.48096 18.8363 8.3879C19.0619 7.98396 18.8461 7.49475 18.4178 7.35248L13.6027 7.32032C13.5857 7.80903 13.4424 8.26949 13.3099 8.73287ZM5.95231 9.31758H4.36873C4.05737 9.83407 4.0676 10.5464 4.36873 11.0717H5.95231C5.8875 10.487 5.8875 9.90131 5.95231 9.31758ZM8.04751 9.31758H6.53702C6.48196 9.88621 6.442 10.4675 6.55164 11.0327C6.73241 11.9648 7.40823 12.5008 7.31078 13.5752C7.24792 14.2686 6.79429 14.7563 6.63447 15.4083H8.1206C8.72967 14.4908 8.88462 13.2868 8.56985 12.2304C8.45437 11.843 8.1971 11.4693 8.06018 11.0834C7.85894 10.5153 7.80827 9.88328 8.04751 9.31758ZM14.5767 9.31758H12.9688C12.7042 9.89693 12.7042 10.4924 12.9688 11.0717H14.5767C14.5163 10.4855 14.5163 9.90326 14.5767 9.31758ZM16.6719 9.31758H15.1615C15.1025 9.87598 15.0733 10.4295 15.1756 10.9845C15.391 12.149 16.192 12.5676 15.8685 13.947C15.8002 14.2379 15.6716 14.7432 15.2955 14.6686C14.8389 14.578 15.3685 13.8744 15.3568 13.6054H13.6027C13.5764 14.2554 13.3966 14.8304 13.1155 15.4083H16.7455C17.3824 14.4596 17.5144 13.239 17.1733 12.1544C17.0023 11.6111 16.6125 11.1311 16.5384 10.5479C16.4863 10.1357 16.5233 9.70349 16.6719 9.31758ZM1.15283 13.0695H6.68319C6.66906 12.569 6.32214 12.1437 6.15208 11.6866L1.07633 11.6774C0.387842 11.8762 0.453621 12.9452 1.15283 13.0695ZM15.3564 13.0695C15.238 12.5651 14.9763 12.1154 14.7473 11.6564H8.9733C9.12776 12.0832 9.26224 12.5286 9.27296 12.9891L9.33874 13.0695H15.3564ZM17.5977 11.6564C17.7712 12.0793 17.8872 12.5281 17.8969 12.9895L17.97 13.0621C18.5854 13.1981 19.1652 12.5885 18.8363 12.0009C18.7842 11.9078 18.5016 11.6559 18.4017 11.6559L17.5977 11.6564ZM4.39309 13.6054H2.98005C2.91378 14.3758 2.37 14.9381 2.22187 15.6977C1.9992 16.8398 2.33443 18.0555 2.93814 19.031C3.2763 19.5768 4.148 19.4057 4.2435 18.7913C4.31903 18.304 3.76648 17.617 3.63687 17.1142C3.2646 15.6734 4.38773 14.9683 4.39309 13.6054ZM4.49054 15.4083H5.97667L6.7134 13.7058L6.65883 13.6054H4.9778C4.95197 14.2418 4.75317 14.8372 4.49054 15.4083ZM11.0198 13.6054H9.33874L9.27296 13.6858C9.28124 14.3027 9.0269 14.8538 8.82712 15.4083H10.3376C10.323 15.1159 11.1557 13.7438 11.0198 13.6054ZM13.0175 13.6054H11.6776C11.5504 13.871 11.5051 14.157 11.3847 14.4333C11.3131 14.5975 11.1859 14.7583 11.1089 14.9371C10.496 16.3618 10.8059 17.6994 11.5465 18.9994C11.8788 19.5826 12.7827 19.4169 12.867 18.7903C12.9357 18.2807 12.3899 17.6044 12.2608 17.0664C11.9256 15.6656 13.0307 14.9376 13.0175 13.6054ZM1.61621 15.9438C1.12457 15.9131 0.592002 16.0744 0.588591 16.6503C0.585181 17.2842 1.12701 17.4216 1.66445 17.3568C1.57431 16.8842 1.58065 16.4198 1.61621 15.9438ZM10.2889 17.3573C10.267 17.0952 10.1968 16.7594 10.1914 16.5046C10.188 16.338 10.3405 16.0919 10.1671 15.9443H4.27128C4.0179 16.3268 4.14508 16.9777 4.36873 17.3573H10.2889ZM18.2555 15.9443H12.8957C12.6482 16.3502 12.7763 16.9466 12.9766 17.3495L18.4295 17.3368C19.1691 17.0786 19.0488 16.0558 18.2555 15.9443ZM8.33987 17.942H6.78065C6.77139 17.9961 6.78747 18.0395 6.80306 18.0901C6.83765 18.2017 7.26011 19.0554 7.32394 19.1285C7.62262 19.4705 8.20636 19.4403 8.44706 19.0486C8.71505 18.6125 8.48702 18.3606 8.33987 17.942ZM16.9643 17.942H15.4051C15.6536 18.5223 16.0356 19.8443 16.9122 19.2298C17.4019 18.8868 17.1607 18.3767 16.9643 17.942Z" fill="white"/>
</svg>
