<svg width="20" height="21" viewBox="0 0 20 21" fill="none" xmlns="http://www.w3.org/2000/svg">
<path d="M19.1695 10.6402C19.1128 10.5036 19.0297 10.3795 18.925 10.275C18.8205 10.1703 18.6964 10.0872 18.5598 10.0305C18.4232 9.97382 18.2767 9.94464 18.1288 9.94464C17.9809 9.94464 17.8344 9.97382 17.6978 10.0305C17.5612 10.0872 17.4371 10.1703 17.3326 10.275L10.5852 17.0225C10.374 17.2336 10.2554 17.52 10.2554 17.8187C10.2554 18.1173 10.374 18.4037 10.5852 18.6148C10.7963 18.826 11.0827 18.9446 11.3814 18.9446C11.68 18.9446 11.9664 18.826 12.1776 18.6148L18.925 11.8674C19.0297 11.763 19.1128 11.6389 19.1695 11.5022C19.2262 11.3656 19.2554 11.2191 19.2554 11.0712C19.2554 10.9233 19.2262 10.7768 19.1695 10.6402Z" fill="white"/>
<path d="M19.1695 16.2631C19.1128 16.1264 19.0297 16.0023 18.925 15.8979C18.8205 15.7932 18.6964 15.7101 18.5598 15.6534C18.4232 15.5967 18.2767 15.5675 18.1288 15.5675C17.9809 15.5675 17.8344 15.5967 17.6978 15.6534C17.5612 15.7101 17.4371 15.7932 17.3326 15.8979L16.208 17.0225C15.9969 17.2336 15.8782 17.52 15.8782 17.8187C15.8782 18.1173 15.9969 18.4037 16.208 18.6148C16.4192 18.826 16.7056 18.9446 17.0042 18.9446C17.3029 18.9446 17.5893 18.826 17.8004 18.6148L18.925 17.4903C19.0297 17.3858 19.1128 17.2617 19.1695 17.1251C19.2262 16.9885 19.2554 16.842 19.2554 16.6941C19.2554 16.5462 19.2262 16.3997 19.1695 16.2631Z" fill="white"/>
</svg>
