<svg width="20" height="21" viewBox="0 0 20 21" fill="none" xmlns="http://www.w3.org/2000/svg">
<path fill-rule="evenodd" clip-rule="evenodd" d="M10 0.300049C4.477 0.300049 0 4.77705 0 10.3C0 15.823 4.477 20.3 10 20.3C15.523 20.3 20 15.823 20 10.3C20 4.77705 15.523 0.300049 10 0.300049ZM6.5 7.80005C6.5 7.34042 6.59053 6.8853 6.76642 6.46066C6.94231 6.03602 7.20012 5.65018 7.52513 5.32517C7.85013 5.00017 8.23597 4.74236 8.66061 4.56647C9.08525 4.39058 9.54037 4.30005 10 4.30005C10.4596 4.30005 10.9148 4.39058 11.3394 4.56647C11.764 4.74236 12.1499 5.00017 12.4749 5.32517C12.7999 5.65018 13.0577 6.03602 13.2336 6.46066C13.4095 6.8853 13.5 7.34042 13.5 7.80005C13.5 8.72831 13.1313 9.61855 12.4749 10.2749C11.8185 10.9313 10.9283 11.3 10 11.3C9.07174 11.3 8.1815 10.9313 7.52513 10.2749C6.86875 9.61855 6.5 8.72831 6.5 7.80005ZM16.258 15.284C15.5092 16.2254 14.5575 16.9855 13.4739 17.5078C12.3904 18.03 11.2029 18.3008 10 18.3C8.79715 18.3008 7.60965 18.03 6.52607 17.5078C5.44249 16.9855 4.49081 16.2254 3.742 15.284C5.363 14.121 7.575 13.3 10 13.3C12.425 13.3 14.637 14.121 16.258 15.284Z" fill="white"/>
</svg>
