<svg width="20" height="21" viewBox="0 0 20 21" fill="none" xmlns="http://www.w3.org/2000/svg">
<path d="M18.5896 9.48148C18.8632 9.84662 19 10.03 19 10.3C19 10.5709 18.8632 10.7535 18.5896 11.1186C17.3602 12.7609 14.2201 16.3 10 16.3C5.779 16.3 2.6398 12.76 1.4104 11.1186C1.1368 10.7535 1 10.57 1 10.3C1 10.0292 1.1368 9.84662 1.4104 9.48148C2.6398 7.83919 5.7799 4.30005 10 4.30005C14.221 4.30005 17.3602 7.84005 18.5896 9.48148Z" stroke="white" stroke-width="1.5" stroke-linecap="round" stroke-linejoin="round"/>
<path d="M12.7 10.3C12.7 9.61806 12.4155 8.96401 11.9092 8.48177C11.4028 7.99954 10.7161 7.72862 10 7.72862C9.28392 7.72862 8.59716 7.99954 8.09081 8.48177C7.58446 8.96401 7.3 9.61806 7.3 10.3C7.3 10.982 7.58446 11.6361 8.09081 12.1183C8.59716 12.6006 9.28392 12.8715 10 12.8715C10.7161 12.8715 11.4028 12.6006 11.9092 12.1183C12.4155 11.6361 12.7 10.982 12.7 10.3Z" stroke="white" stroke-width="1.5" stroke-linecap="round" stroke-linejoin="round"/>
</svg>
