<svg width="20" height="21" viewBox="0 0 20 21" fill="none" xmlns="http://www.w3.org/2000/svg">
<mask id="path-1-inside-1_1_159" fill="white">
<path d="M12.1875 8.17505H7.3125V3.30005L0 10.6125L7.3125 17.925V13.05H12.1875V17.925L19.5 10.6125L12.1875 3.30005"/>
</mask>
<path d="M12.1875 3.30005H11.2875V9.18085H12.1875H13.0875V3.30005H12.1875ZM7.3125 8.17505H5.5125V9.97505H7.3125V8.17505ZM7.3125 3.30005H9.1125V-1.04554L6.03971 2.02726L7.3125 3.30005ZM0 10.6125L-1.27279 9.33976L-2.54558 10.6125L-1.27279 11.8853L0 10.6125ZM7.3125 17.925L6.03971 19.1978L9.1125 22.2706V17.925H7.3125ZM7.3125 13.05V11.25H5.5125V13.05H7.3125ZM12.1875 13.05H13.9875V11.25H12.1875V13.05ZM12.1875 17.925H10.3875V22.2706L13.4603 19.1978L12.1875 17.925ZM19.5 10.6125L20.7728 11.8853L22.0456 10.6125L20.7728 9.33976L19.5 10.6125ZM12.1875 8.17505V6.37505H7.3125V8.17505V9.97505H12.1875V8.17505ZM7.3125 8.17505H9.1125V3.30005H7.3125H5.5125V8.17505H7.3125ZM7.3125 3.30005L6.03971 2.02726L-1.27279 9.33976L0 10.6125L1.27279 11.8853L8.58529 4.57284L7.3125 3.30005ZM0 10.6125L-1.27279 11.8853L6.03971 19.1978L7.3125 17.925L8.58529 16.6523L1.27279 9.33976L0 10.6125ZM7.3125 17.925H9.1125V13.05H7.3125H5.5125V17.925H7.3125ZM7.3125 13.05V14.85H12.1875V13.05V11.25H7.3125V13.05ZM12.1875 13.05H10.3875V17.925H12.1875H13.9875V13.05H12.1875ZM12.1875 17.925L13.4603 19.1978L20.7728 11.8853L19.5 10.6125L18.2272 9.33976L10.9147 16.6523L12.1875 17.925ZM19.5 10.6125L20.7728 9.33976L13.4603 2.02726L12.1875 3.30005L10.9147 4.57284L18.2272 11.8853L19.5 10.6125Z" fill="white" mask="url(#path-1-inside-1_1_159)"/>
</svg>
