<svg width="20" height="21" viewBox="0 0 20 21" fill="none" xmlns="http://www.w3.org/2000/svg">
<path d="M14.8695 3.30005C15.4119 3.30005 15.9496 3.40691 16.4506 3.6145C16.9514 3.82207 17.4062 4.12659 17.7895 4.51001H17.7904C18.174 4.89338 18.4784 5.34886 18.686 5.84985C18.8935 6.35075 19.0004 6.88775 19.0004 7.42993C19.0004 7.97205 18.8934 8.50915 18.686 9.01001C18.5043 9.44851 18.2482 9.85249 17.9301 10.2034L17.7904 10.3499L16.8012 11.3381L10.2543 17.885L2.71915 10.3499C1.9447 9.5754 1.50919 8.52517 1.50919 7.42993C1.50925 6.33477 1.94475 5.28441 2.71915 4.51001C3.49358 3.73572 4.54396 3.30103 5.63908 3.30103C6.73421 3.3011 7.78462 3.73563 8.559 4.51001L9.54728 5.49829C9.9378 5.88882 10.5708 5.88882 10.9613 5.49829L11.9496 4.51001C12.333 4.12647 12.7885 3.82209 13.2895 3.6145C13.7904 3.40696 14.3274 3.3001 14.8695 3.30005Z" stroke="white" stroke-width="2" stroke-linecap="round" stroke-linejoin="round"/>
</svg>
