<svg width="20" height="21" viewBox="0 0 20 21" fill="none" xmlns="http://www.w3.org/2000/svg">
<path fill-rule="evenodd" clip-rule="evenodd" d="M10 2.44464C10.855 2.44464 11.732 2.46664 12.582 2.50264L13.586 2.55064L14.547 2.60764L15.447 2.66864L16.269 2.73264C17.1612 2.80053 18.0008 3.18108 18.64 3.80724C19.2791 4.43341 19.6768 5.26504 19.763 6.15564L19.803 6.58064L19.878 7.49064C19.948 8.43364 20 9.46164 20 10.4446C20 11.4276 19.948 12.4556 19.878 13.3986L19.803 14.3086L19.763 14.7336C19.6768 15.6244 19.2789 16.4562 18.6396 17.0823C18.0002 17.7085 17.1604 18.089 16.268 18.1566L15.448 18.2196L14.548 18.2816L13.586 18.3386L12.582 18.3866C11.7218 18.4239 10.861 18.4432 10 18.4446C9.13902 18.4432 8.27817 18.4239 7.418 18.3866L6.414 18.3386L5.453 18.2816L4.553 18.2196L3.731 18.1566C2.83881 18.0887 1.9992 17.7082 1.36004 17.082C0.720888 16.4559 0.323191 15.6242 0.237 14.7336L0.197 14.3086L0.122 13.3986C0.0458327 12.4158 0.00513964 11.4305 0 10.4446C0 9.46164 0.052 8.43364 0.122 7.49064L0.197 6.58064L0.237 6.15564C0.323157 5.26519 0.720712 4.43369 1.35966 3.80755C1.99861 3.1814 2.83799 2.80076 3.73 2.73264L4.551 2.66864L5.451 2.60764L6.413 2.55064L7.417 2.50264C8.2775 2.46537 9.13869 2.44603 10 2.44464ZM8 8.01964V12.8696C8 13.3316 8.5 13.6196 8.9 13.3896L13.1 10.9646C13.1914 10.912 13.2673 10.8363 13.3201 10.745C13.3729 10.6537 13.4007 10.5501 13.4007 10.4446C13.4007 10.3392 13.3729 10.2356 13.3201 10.1443C13.2673 10.053 13.1914 9.97725 13.1 9.92464L8.9 7.50064C8.80876 7.44796 8.70526 7.42024 8.5999 7.42026C8.49455 7.42027 8.39106 7.44803 8.29983 7.50074C8.20861 7.55344 8.13287 7.62924 8.08024 7.72051C8.02761 7.81177 7.99993 7.91529 8 8.02064V8.01964Z" fill="white"/>
</svg>
