<svg width="17" height="17" viewBox="0 0 17 17" fill="none" xmlns="http://www.w3.org/2000/svg">
<path d="M1.375 3.75H2.95833H15.625" stroke="#FF3B30" stroke-linecap="round" stroke-linejoin="round"/>
<path d="M14.0418 3.74999V14.8333C14.0418 15.2533 13.875 15.656 13.5781 15.9529C13.2811 16.2498 12.8784 16.4167 12.4585 16.4167H4.54183C4.1219 16.4167 3.71918 16.2498 3.42224 15.9529C3.12531 15.656 2.9585 15.2533 2.9585 14.8333V3.74999M5.3335 3.74999V2.16666C5.3335 1.74674 5.50031 1.34401 5.79724 1.04708C6.09418 0.750143 6.4969 0.583328 6.91683 0.583328H10.0835C10.5034 0.583328 10.9061 0.750143 11.2031 1.04708C11.5 1.34401 11.6668 1.74674 11.6668 2.16666V3.74999" stroke="#FF3B30" stroke-linecap="round" stroke-linejoin="round"/>
<path d="M6.9165 7.70833V12.4583" stroke="#FF3B30" stroke-linecap="round" stroke-linejoin="round"/>
<path d="M10.0835 7.70833V12.4583" stroke="#FF3B30" stroke-linecap="round" stroke-linejoin="round"/>
</svg>
