<svg width="15" height="15" viewBox="0 0 15 15" fill="none" xmlns="http://www.w3.org/2000/svg">
<path d="M6.83301 2.1665H2.16634C1.81272 2.1665 1.47358 2.30698 1.22353 2.55703C0.973484 2.80708 0.833008 3.14622 0.833008 3.49984V12.8332C0.833008 13.1868 0.973484 13.5259 1.22353 13.776C1.47358 14.026 1.81272 14.1665 2.16634 14.1665H11.4997C11.8533 14.1665 12.1924 14.026 12.4425 13.776C12.6925 13.5259 12.833 13.1868 12.833 12.8332V8.1665" stroke="#446183" stroke-linecap="round" stroke-linejoin="round"/>
<path d="M11.833 1.16665C12.0982 0.901438 12.4579 0.752441 12.833 0.752441C13.2081 0.752441 13.5678 0.901438 13.833 1.16665C14.0982 1.43187 14.2472 1.79158 14.2472 2.16665C14.2472 2.54173 14.0982 2.90144 13.833 3.16665L7.49967 9.49999L4.83301 10.1667L5.49967 7.49999L11.833 1.16665Z" stroke="#446183" stroke-linecap="round" stroke-linejoin="round"/>
</svg>
