<svg width="169" height="63" viewBox="0 0 169 63" fill="none" xmlns="http://www.w3.org/2000/svg">
<path fill-rule="evenodd" clip-rule="evenodd" d="M117.657 31.6457C114.2 40.6285 119.628 36.2664 137.174 26.0558C153.168 16.7822 163.282 9.83513 168.258 0.400024C168.969 15.7805 160.858 24.4078 132.004 42.1471C114.62 52.8424 108.481 55.1043 110.29 48.4803C111.324 44.6998 112.196 42.1148 113.004 39.7884C113.069 39.6591 112.972 39.9176 113.004 39.7884C115.395 35.5232 116.268 34.2307 117.657 31.6457Z" fill="#58AB40"/>
<path fill-rule="evenodd" clip-rule="evenodd" d="M104.183 19.8842C107.091 18.9471 111.001 18.0424 114.846 17.17C125.574 14.7789 121.89 23.0508 117.593 31.8073C116.268 34.5215 115.395 35.5232 113.037 39.7884C114.717 34.5538 116.688 31.6134 112.81 32.2597C108.804 32.9059 104.442 34.1661 100.952 35.2647L104.183 19.8842Z" fill="#F58220"/>
<path fill-rule="evenodd" clip-rule="evenodd" d="M30.5764 59.0786L34.3892 40.8546H39.3329L46.9262 50.7098H47.0555L49.1234 40.8546H54.5842L50.739 59.0786H45.6014L38.1051 49.4819H38.0404L36.0048 59.0786H30.5764Z" fill="white"/>
<path fill-rule="evenodd" clip-rule="evenodd" d="M54.0995 59.0786L57.9123 40.8546H67.5413C73.519 40.8546 76.5886 44.5705 75.3608 50.4513C73.9714 57.1076 69.1246 59.0786 62.5006 59.0786H54.0995ZM63.3084 44.9259L61.1758 54.975H62.1775C66.378 54.9103 68.1875 53.7471 68.963 50.0312C69.7708 46.1538 68.0583 44.9259 64.2778 44.9259H63.3084Z" fill="white"/>
<path fill-rule="evenodd" clip-rule="evenodd" d="M72.582 59.0786L84.7959 40.8546H91.5168L94.8126 59.0786H87.8979L86.3146 47.9633L86.2499 47.9309L79.3352 59.0786H72.582Z" fill="white"/>
<path fill-rule="evenodd" clip-rule="evenodd" d="M95.8466 59.0786L99.6917 40.8546H105.96L102.955 54.975H110.29L109.45 59.0786H95.8466Z" fill="white"/>
<path fill-rule="evenodd" clip-rule="evenodd" d="M20.9797 59.0786L24.8248 40.8546H31.061L27.2159 59.0786H20.9797Z" fill="white"/>
<path fill-rule="evenodd" clip-rule="evenodd" d="M72.582 59.0786L84.7959 40.8546H91.5168L94.8126 59.0786H87.8979L86.3146 47.9633L86.2499 47.9309L79.3352 59.0786H72.582Z" fill="white"/>
<path fill-rule="evenodd" clip-rule="evenodd" d="M1.6894 57.5922C10.7368 59.5309 11.4153 54.5549 11.9969 52.1315C12.5785 49.7081 15.3897 36.3309 15.3897 36.3309H22.4337C22.4337 36.3309 20.5596 45.1844 18.8794 53.1978C17.6515 58.7878 13.3863 62.9883 5.82534 62.4713C3.59581 62.3098 1.75403 61.5666 0.881604 60.8881C0.881604 60.8881 0.364612 60.5326 0.299988 60.468L1.17241 57.463C1.23704 57.4953 1.56016 57.5599 1.6894 57.5922Z" fill="white"/>
</svg>
