<svg width="257" height="95" viewBox="0 0 257 95" fill="none" xmlns="http://www.w3.org/2000/svg">
<path fill-rule="evenodd" clip-rule="evenodd" d="M179.447 47.7714C174.163 61.5153 182.437 54.8131 209.298 39.2194C233.736 25.0334 249.223 14.399 256.833 0.00012207C257.904 23.5326 245.502 36.7004 201.414 63.8365C174.861 80.1796 165.46 83.645 168.203 73.5129C169.766 67.7488 171.106 63.8044 172.374 60.2356C172.307 60.4389 172.45 60.0208 172.384 60.2302C175.984 53.7181 177.338 51.7103 179.447 47.7714H179.447Z" fill="#58AB40"/>
<path fill-rule="evenodd" clip-rule="evenodd" d="M158.853 29.7997C163.321 28.3482 169.282 26.9727 175.133 25.6705C191.544 22.0169 185.904 34.6728 179.348 48.0677C177.316 52.2167 175.972 53.7346 172.371 60.2459C174.928 52.2585 177.977 47.7522 172.01 48.724C165.87 49.7258 159.225 51.6624 153.891 53.324L158.854 29.7997H158.853Z" fill="#F58220"/>
<path fill-rule="evenodd" clip-rule="evenodd" d="M46.3123 89.7177L52.1796 61.8417H59.7004L71.3133 76.914H71.5111L74.7083 61.8417H83.0228L77.1451 89.7177H69.313L57.8493 75.0711H57.7233L54.6227 89.7177H46.3123Z" fill="#636467"/>
<path fill-rule="evenodd" clip-rule="evenodd" d="M96.3876 68.0883L93.1398 83.4705H94.6542C101.057 83.3535 103.821 81.5913 105.015 75.9066C106.263 69.9647 103.61 68.0869 97.8733 68.0869L96.3876 68.0883ZM82.2803 89.7177L88.1258 61.8411H102.839C111.959 61.8411 116.694 67.5387 114.802 76.5082C112.655 86.6943 105.253 89.717 95.1264 89.717H82.2803V89.7177Z" fill="#636467"/>
<path fill-rule="evenodd" clip-rule="evenodd" d="M110.565 89.7177L129.226 61.8417H139.523L144.561 89.7012L133.973 89.7177L131.53 72.7286L131.435 72.6972L120.897 89.7177H110.565Z" fill="#4A565F"/>
<path fill-rule="evenodd" clip-rule="evenodd" d="M146.125 89.7177L152.011 61.8417H161.567L156.997 83.4705H168.224L166.903 89.7177H146.125Z" fill="#636467"/>
<path fill-rule="evenodd" clip-rule="evenodd" d="M31.6425 89.7177L37.527 61.8417H47.0781L41.1936 89.7177H31.6425Z" fill="#636467"/>
<path fill-rule="evenodd" clip-rule="evenodd" d="M110.565 89.7177L129.226 61.8417H139.523L144.561 89.7012L133.973 89.7177L131.53 72.7286L131.435 72.6972L120.897 89.7177H110.565Z" fill="#636467"/>
<path fill-rule="evenodd" clip-rule="evenodd" d="M2.18025 87.4354C16.0193 90.4102 17.0349 82.7909 17.9224 79.11C18.8162 75.4044 23.1185 54.9349 23.1185 54.9349H33.8863C33.8863 54.9349 31.0272 68.4681 28.4371 80.7434C26.5517 89.3078 20.0431 95.7267 8.45824 94.8959C5.06468 94.6544 2.24253 93.4944 0.882093 92.4837C0.882093 92.4837 0.108123 91.9342 0 91.848L1.36659 87.2432C1.47061 87.276 1.97427 87.3896 2.18094 87.4354H2.18025Z" fill="#636467"/>
</svg>
