<svg width="14" height="18" viewBox="0 0 14 18" fill="none" xmlns="http://www.w3.org/2000/svg">
<path d="M7.83301 6.5H12.4163L7.83301 1.91666V6.5ZM1.99967 0.666664H8.66634L13.6663 5.66666V15.6667C13.6663 16.1087 13.4907 16.5326 13.1782 16.8452C12.8656 17.1577 12.4417 17.3333 11.9997 17.3333H1.99967C1.55765 17.3333 1.13372 17.1577 0.821163 16.8452C0.508602 16.5326 0.333008 16.1087 0.333008 15.6667V2.33333C0.333008 1.8913 0.508602 1.46738 0.821163 1.15482C1.13372 0.842259 1.55765 0.666664 1.99967 0.666664ZM6.10801 9.36666C6.44968 10.1167 6.88301 10.7333 7.38301 11.1583L7.72467 11.425C6.99967 11.5583 5.99967 11.7917 4.94134 12.2L4.84967 12.2333L5.26634 11.3667C5.64134 10.6417 5.91634 9.98333 6.10801 9.36666ZM11.508 12.5417C11.658 12.3917 11.733 12.2 11.7413 11.9917C11.7663 11.825 11.7247 11.6667 11.6413 11.5333C11.3997 11.1417 10.7747 10.9583 9.74134 10.9583L8.66634 11.0167L7.94134 10.5333C7.41634 10.1 6.94134 9.34166 6.60801 8.4L6.64134 8.28333C6.91634 7.175 7.17467 5.83333 6.62467 5.28333C6.5574 5.21801 6.47782 5.16669 6.39056 5.13236C6.3033 5.09802 6.21009 5.08136 6.11634 5.08333H5.91634C5.60801 5.08333 5.33301 5.40833 5.25801 5.725C4.94967 6.83333 5.13301 7.44166 5.44134 8.45V8.45833C5.23301 9.19166 4.96634 10.0417 4.54134 10.9L3.74134 12.4L2.99967 12.8083C1.99967 13.4333 1.52467 14.1333 1.43301 14.575C1.39967 14.7333 1.41634 14.875 1.47467 15.025L1.49967 15.0667L1.89967 15.325L2.26634 15.4167C2.94134 15.4167 3.70801 14.625 4.74134 12.8583L4.89134 12.8C5.74967 12.525 6.81634 12.3333 8.24967 12.175C9.10801 12.6 10.1163 12.7917 10.7497 12.7917C11.1163 12.7917 11.3663 12.7 11.508 12.5417ZM11.1663 11.95L11.2413 12.0417C11.233 12.125 11.208 12.1333 11.1663 12.15H11.133L10.9747 12.1667C10.5913 12.1667 9.99967 12.0083 9.39134 11.7417C9.46634 11.6583 9.49967 11.6583 9.58301 11.6583C10.7497 11.6583 11.083 11.8667 11.1663 11.95ZM3.52467 13.1667C2.98301 14.1583 2.49134 14.7083 2.11634 14.8333C2.15801 14.5167 2.53301 13.9667 3.12467 13.425L3.52467 13.1667ZM6.04134 7.40833C5.84968 6.65833 5.84134 6.05 5.98301 5.7L6.04134 5.6L6.16634 5.64166C6.30801 5.84166 6.32468 6.10833 6.24134 6.55833L6.21634 6.69166L6.08301 7.375L6.04134 7.40833Z" fill="#EF5350"/>
</svg>
