<svg width="21" height="17" viewBox="0 0 21 17" fill="none" xmlns="http://www.w3.org/2000/svg">
<path d="M1.33334 1.83331V6.83331H6.33334" stroke="white" stroke-linecap="round" stroke-linejoin="round"/>
<path d="M19.6667 15.1667V10.1667H14.6667" stroke="white" stroke-linecap="round" stroke-linejoin="round"/>
<path d="M17.575 5.99998C17.1524 4.80564 16.4341 3.73782 15.4871 2.89616C14.5402 2.05451 13.3955 1.46645 12.1598 1.18686C10.9241 0.907274 9.63772 0.945266 8.42068 1.29729C7.20365 1.64932 6.09563 2.30391 5.20001 3.19998L1.33334 6.83331M19.6667 10.1666L15.8 13.8C14.9044 14.6961 13.7964 15.3506 12.5793 15.7027C11.3623 16.0547 10.0759 16.0927 8.84025 15.8131C7.60457 15.5335 6.45984 14.9455 5.5129 14.1038C4.56595 13.2621 3.84765 12.1943 3.42501 11" stroke="white" stroke-linecap="round" stroke-linejoin="round"/>
</svg>
